<?xml version="1.0" standalone="no"?><!DOCTYPE svg PUBLIC "-//W3C//DTD SVG 1.1//EN" "http://www.w3.org/Graphics/SVG/1.1/DTD/svg11.dtd"><svg t="1658107880169" class="icon" viewBox="0 0 1024 1024" version="1.1" xmlns="http://www.w3.org/2000/svg" p-id="19093" xmlns:xlink="http://www.w3.org/1999/xlink" width="200" height="200"><defs><style type="text/css"></style></defs><path d="M944.333 448c8.837 0 16 7.163 16 16 0 0.835-0.062 1.656-0.185 2.46l-0.12 0.78-0.042 0.788C953.202 594.989 848.033 695 720.333 695h-16v48L619 679l85.333-64v48h16C831.58 663 923 575.465 928.11 464.71l0.13-2.917c2.987-10.599 7.024-13.793 16.093-13.793z" fill="#333333" p-id="19094"></path><path d="M80 480v512h256V480z" fill="#0091FF" p-id="19095"></path><path d="M176 896h64v96h-64v-96z m-48-384h32v32h-32v-32z m64 0h32v32h-32v-32z m64 0h32v32h-32v-32z m-128 64h32v32h-32v-32z m64 0h32v32h-32v-32z m64 0h32v32h-32v-32z m-128 64h32v32h-32v-32z m64 0h32v32h-32v-32z m64 0h32v32h-32v-32z m-128 64h32v32h-32v-32z m64 0h32v32h-32v-32z m64 0h32v32h-32v-32z m-128 64h32v32h-32v-32z m64 0h32v32h-32v-32z m64 0h32v32h-32v-32z m-128 64h32v32h-32v-32z m64 0h32v32h-32v-32z m64 0h32v32h-32v-32z" fill="#FFFFFF" p-id="19096"></path><path d="M368 672v320h192V672z" fill="#7FC8FF" p-id="19097"></path><path d="M416 704h32v32h-32v-32z m64 0h32v32h-32v-32z m-64 64h32v32h-32v-32z m64 0h32v32h-32v-32z m-64 64h32v32h-32v-32z m64 0h32v32h-32v-32z m-48 64h64v96h-64v-96z" fill="#FFFFFF" p-id="19098"></path><path d="M48 992V448h320v192h224v352h48v32H0v-32h48z m320 0h192V672H368v320z m-288 0h256V480H80v512z" fill="#333333" p-id="19099"></path><path d="M576 96h128l64-32 64 32 64-32 64.333 32H1024v288H576z" fill="#0091FF" p-id="19100"></path><path d="M576 96h128l64-32 64 32 64-32 64.333 32H1024v288H576V96z m32 32v224h384V128h-39.186l-56.777-28.241L832 131.777l-64-32L711.554 128H608z" fill="#333333" p-id="19101"></path><path d="M576 0h96v384h-96z" fill="#7FC8FF" p-id="19102"></path><path d="M576 0h96v384h-96V0z m32 32v320h32V32h-32z" fill="#333333" p-id="19103"></path><path d="M704 288h256v64H704v-64z m0-112h32v64h-32v-64z m112 0h32v64h-32v-64z m112 0h32v64h-32v-64z" fill="#FFFFFF" p-id="19104"></path></svg>