<?xml version="1.0" standalone="no"?><!DOCTYPE svg PUBLIC "-//W3C//DTD SVG 1.1//EN" "http://www.w3.org/Graphics/SVG/1.1/DTD/svg11.dtd"><svg t="1658110104147" class="icon" viewBox="0 0 1024 1024" version="1.1" xmlns="http://www.w3.org/2000/svg" p-id="13233" xmlns:xlink="http://www.w3.org/1999/xlink" width="200" height="200"><defs><style type="text/css"></style></defs><path d="M415.654011 142.051345c11.295745-3.7919 18.017024-6.185575 23.994713-8.589244l0.186897-0.074959 0.185897 0.074959c5.97869 2.403669 12.699968 4.797344 23.994714 8.588244 5.200121 1.745034 203.611258 75.29131 222.971538 82.556288l0.231872 0.086952 0.069961 0.237868c7.246987 24.174614 10.146382 32.801837 15.367491 44.710243 9.472755 21.61803 24.106652 40.784417 43.336004 57.163348 20.521637 17.487317 43.555883 29.540643 68.424113 35.61428l0.352805 0.085953 0.026985 0.362799c0.581678 7.9456 0.93948 13.882313 1.242312 20.572609 0.181899 3.987792 0.08995 8.661204-0.323821 16.555833-0.058967 1.129375-0.10794 2.046867-0.23387 4.322606a917.633896 917.633896 0 0 0-0.43476 8.338383l-0.299834 6.380467c-1.334261 28.409269-2.124823 43.512906-3.137263 59.690949-0.918491 14.687867-1.759026 23.742853-3.012332 32.157194-0.752583 5.066195-1.014438 6.824221-1.381235 9.260872-3.135264 20.860449-5.339044 33.340539-8.049543 45.367879-9.817564 43.585866-14.584924 62.59534-21.218251 84.247352-4.471524 14.605913-8.919061 26.661237-20.723525 56.342802l-1.162356 2.923381c-2.288733 5.758811-3.723938 9.387802-5.167139 13.070763-8.662204 22.115754-20.470665 45.088034-37.45626 73.072539-14.161159 23.345074-28.929981 44.237505-44.577317 63.01111-22.691436 27.212932-32.078238 37.422279-44.019626 47.723575-4.223661 3.643982-7.495849 6.505398-15.497419 13.547498-16.14606 14.208133-22.600486 19.731075-30.652028 26.199493-22.788382 18.319856-48.393204 34.76475-76.964384 49.478604-10.126393 5.211115-18.629685 9.213898-40.192745 18.949507-10.844995 4.897288-16.257998 7.365921-21.489101 9.804571l-0.210883 0.098945-0.211883-0.098945c-5.233102-2.43865-10.651102-4.909282-21.489101-9.803572-21.562061-9.736609-30.066352-13.738393-40.192745-18.949507-28.57018-14.714852-54.176002-31.159747-76.964384-49.478603-8.051542-6.468418-14.505968-11.99136-30.652027-26.200493-8.001569-7.042101-11.273758-9.903516-15.497419-13.547498-11.941388-10.301296-21.32819-20.509644-44.019626-47.723575-15.647336-18.772605-30.416158-39.665037-44.576318-63.010111-16.986594-27.985504-28.795056-50.956785-37.457259-73.072539-1.443201-3.68396-2.878406-7.312951-5.167139-13.071762l-1.162357-2.923381c-11.803464-29.680566-16.252001-41.73689-20.722525-56.341803-6.634327-21.65301-11.401687-40.662485-21.219251-84.248351-2.710499-12.02734-4.914279-24.506431-8.049543-45.367879-0.366797-2.435651-0.628652-4.194677-1.381235-9.259873-1.252307-8.41534-2.093841-17.470326-3.012332-32.157194-1.012439-16.179041-1.803002-31.282678-3.138262-59.691948l-0.298835-6.380467a917.621903 917.621903 0 0 0-0.434759-8.338383 1458.772262 1458.772262 0 0 1-0.233871-4.322606c-0.412771-7.894629-0.50572-12.568041-0.32382-16.554834 0.302832-6.691295 0.660634-12.628008 1.242312-20.573608l0.026985-0.362799 0.352804-0.085953c24.867231-6.073637 47.903475-18.126963 68.424113-35.61328 19.229352-16.38093 33.86325-35.546318 43.336005-57.164348 5.221109-11.908406 8.120504-20.535629 15.366491-44.710243l0.070961-0.236869 0.232871-0.086952c19.359281-7.265977 217.770418-80.811254 222.970539-82.557287z" fill="#0091FF" p-id="13234"></path><path d="M453.18323 3.367136c9.518729 4.825328 48.836958 19.466221 117.952688 43.92168a95903.242326 95903.242326 0 0 1 113.765008 42.389528c20.138849 7.515838 40.260707 15.103637 60.201665 22.587493 1.286288 9.464759 1.766022 18.87255 3.969802 27.844582 3.14226 12.774926 6.463421 25.725755 11.713514 37.706122 5.859755 13.374594 15.136619 24.773283 26.375396 34.35098 13.469542 11.481642 28.77007 19.59515 45.903583 23.076222 13.067764 2.650532 26.560293 3.148257 40.782418 4.707393 0.376791 4.128714 0.851528 8.654208 1.189341 13.192695 1.542146 20.357728 3.477075 40.703462 4.400564 61.089175 0.531706 11.656546-0.449751 23.397045-0.996449 35.093568-1.048419 22.368614-2.093841 44.740227-3.491067 67.088852-0.783566 12.536059-1.729043 25.116093-3.578018 37.52922-2.94337 19.834018-5.891738 39.736997-10.292301 59.27318-6.714282 29.821488-13.507521 59.721931-22.445572 88.90777-7.995573 26.13253-18.665665 51.451511-28.644139 76.934401-11.360709 29.016933-26.197494 56.353796-42.286586 82.870114-15.000694 24.740301-31.539536 48.495148-50.094262 70.763817-16.117076 19.337293-32.196173 38.662592-51.297596 55.147465-15.92918 13.752385-31.462579 28.01049-47.851504 41.181197-27.231921 21.899874-56.721593 40.513567-87.686447 56.466734-22.387604 11.525618-45.690701 21.229245-68.469088 31.998282-7.317948 3.460084-14.893753 5.469971-22.470558 5.945708-7.576805-0.475737-15.15261-2.485624-22.470558-5.945708-22.778387-10.769037-46.080485-20.472664-68.469088-31.998282-30.964854-15.953167-60.454526-34.56686-87.686447-56.465735-16.388925-13.171707-31.922324-27.429812-47.851504-41.181197-19.101423-16.484872-35.18052-35.810172-51.297596-55.147464-18.554726-22.269669-35.093568-46.024516-50.095262-70.764817-16.088092-26.516318-30.924877-53.852181-42.286585-82.869115-9.977475-25.48289-20.646568-50.80187-28.64314-76.9354-8.938051-29.185839-15.731289-59.086283-22.445572-88.90777-4.400563-19.536183-7.348931-39.438163-10.2933-59.27318-1.846977-12.413127-2.793453-24.993161-3.578019-37.52922C3.321324 394.0678 2.275903 371.697187 1.226484 349.326574c-0.546697-11.695524-1.529153-23.437023-0.996449-35.093568 0.923489-20.384713 2.858417-40.731447 4.400564-61.088175 0.337813-4.539486 0.81255-9.064981 1.189341-13.194694 14.222125-1.557138 27.714654-2.054862 40.782418-4.706394 17.133513-3.481072 32.434041-11.593581 45.902584-23.076222 11.239776-9.576697 20.51664-20.975386 26.375395-34.35098 5.251092-11.980366 8.572253-24.931195 11.714514-37.706122 2.20378-8.972032 2.683514-18.379823 3.969802-27.844582C154.505611 104.781981 412.20492 10.606127 426.484014 3.367136 431.191407 0.979458 435.568983 0.021988 439.833622 0c4.263639 0.020988 8.642215 0.979458 13.349608 3.367136zM293.441681 87.831367l-2.136817 0.789563c-30.423154 11.237778-95.497122 35.173524-127.312506 46.884039-0.636647 4.519498-1.316271 8.07353-2.340704 12.243221-4.824329 19.614139-8.083524 30.596059-13.475538 42.900246-7.659759 17.484319-19.587154 32.789844-34.922663 45.856609-17.912082 15.271544-38.148877 25.582835-60.291616 30.081343-5.766807 1.169353-10.784029 1.93293-17.520299 2.668523l-0.028984 0.347807-0.257857 3.185236c-1.755028 21.61803-2.442647 31.154749-2.975352 42.903244-0.241866 5.287072-0.123931 10.876977 0.333815 19.643124 0.062965 1.211329 0.116935 2.200781 0.238868 4.409558 0.219878 4.012778 0.314826 5.799789 0.421766 8.085523l0.019989 0.43276 0.279845 5.954703c1.284289 27.356852 2.098838 43.173095 3.164248 60.202665 0.944477 15.11663 1.847977 25.12209 3.292177 34.827716 0.7226 4.867305 1.004444 6.760257 1.389231 9.31884 3.135264 20.872443 5.468972 34.305005 8.46931 47.625629 9.584693 42.568429 14.637895 63.099061 21.827914 86.576062 4.962252 16.220019 9.904516 29.433702 21.573055 58.78445l1.160357 2.919384c2.174796 5.473969 3.633988 9.161927 5.108172 12.927842 9.574698 24.45246 22.346626 49.093816 39.852933 77.94684 14.841782 24.477447 30.50311 46.692146 47.314801 66.869973l0.61366 0.735593c22.519531 27.019039 33.022715 38.603625 47.016966 50.679938 4.305616 3.717941 7.725722 6.714282 15.267547 13.352606l0.083953 0.074959c15.78526 13.896305 22.815367 19.945956 31.64148 27.039028 24.636359 19.81203 52.059174 37.3833 82.284438 52.954678 11.130837 5.730827 20.437683 10.079419 41.640943 19.657116l0.336813 0.152915c12.535059 5.661865 18.369828 8.328388 25.521869 11.710516 3.012332 1.424211 5.9597 2.324713 8.799128 2.731488 2.840427-0.406775 5.788795-1.307276 8.802126-2.732487 7.15204-3.381128 12.98581-6.047651 25.520869-11.710516l0.336813-0.151916c21.20326-9.578696 30.510106-13.926289 41.632947-19.653118 30.23326-15.576375 57.655076-33.146646 82.29943-52.964673 8.819117-7.087076 15.849224-13.137725 31.634484-27.033031l0.083953-0.074959c7.541824-6.639324 10.96193-9.634665 15.271544-13.356604 13.990253-12.073315 24.493438-23.656901 47.013968-50.67594l0.609663-0.731595c16.815689-20.182825 32.476018-42.396525 47.321797-66.880968 17.502309-28.846028 30.275236-53.488383 39.848935-77.940843 1.474184-3.765915 2.933376-7.452873 5.107172-12.926842l1.161357-2.920383c11.668539-29.349749 16.610802-42.564432 21.576054-58.792446 7.186021-23.467006 12.239223-43.998637 21.824915-86.570065 3.000339-13.317626 5.334046-26.751188 8.46931-47.623631 0.384787-2.558583 0.666631-4.451535 1.39023-9.329833 1.443201-9.694632 2.346701-19.699092 3.291178-34.816722 1.06541-17.029571 1.87896-32.844813 3.164248-60.201666l0.279845-5.954703 0.019989-0.43176c0.106941-2.286734 0.200889-4.073744 0.421766-8.086523 0.121932-2.208777 0.175903-3.198229 0.238868-4.410558 0.457747-8.765147 0.575681-14.354052 0.332816-19.655116-0.531706-11.735502-1.219325-21.272221-2.974353-42.891251a15836.731029 15836.731029 0 0 1-0.285842-3.532044c-6.738269-0.736592-11.75749-1.49917-17.530293-2.670522-22.134744-4.49751-42.370539-14.8088-60.276624-30.074347-15.341505-13.072761-27.268901-28.377287-34.926661-45.857608-5.394013-12.308185-8.653209-23.291103-13.479536-42.913239-1.033428-4.206671-1.71605-7.788687-2.358694-12.373149l-17.606251-6.614337c-9.182915-3.448091-16.923629-6.346486-24.333527-9.111955-37.828054-14.12218-75.658107-28.218375-113.48816-42.286585-69.065758-24.439468-107.754335-38.808511-120.407329-44.919128-10.783029 4.994235-58.892391 23.073224-146.378949 55.397326z" fill="#333333" p-id="13235"></path><path d="M664.950972 887.174762c18.765609-16.337953 34.628826-35.403397 50.529022-54.479834a513.275794 513.275794 0 0 0 7.805678-9.604682c18.534737-10.699076 35.720221-22.377609 51.571444-35.123552 7.653762-6.152593 13.775372-11.420676 27.54175-23.539965l0.073959-0.064964c6.60934-5.816779 9.60868-8.445324 13.392584-11.713515 12.021344-10.373256 21.11131-20.398705 40.677477-43.873706l0.532705-0.639646c14.581926-17.50031 28.170402-36.775637 41.061264-58.035865 15.204581-25.059124 26.280448-46.427293 34.562862-67.582579 1.293284-3.302172 2.571576-6.534382 4.47752-11.328727l1.015438-2.555585c10.169369-25.580836 14.467989-37.075471 18.770607-51.137684 6.250539-20.4077 10.654101-38.302791 19.019468-75.456219 2.598561-11.537611 4.627438-23.211148 7.357926-41.386084 0.335814-2.235762 0.581678-3.890846 1.215327-8.158483 1.242312-8.345379 2.023879-17.002585 2.844425-30.125319 0.929485-14.874764 1.642091-28.69711 2.76447-52.614867l0.244864-5.210115 0.01799-0.377791c0.093948-2.015884 0.176902-3.586014 0.370795-7.108064 0.105941-1.928932 0.152915-2.792454 0.207885-3.847869 0.394781-7.550819 0.494726-12.330173 0.289839-16.808693-0.459745-10.173367-1.057414-18.465775-2.578572-37.208398-4.463528-0.549696-8.208455-1.159358-12.414126-2.012885-20.058893-4.074744-38.374751-13.408576-54.539801-27.189945-13.862324-11.81146-24.673338-25.682779-31.629486-41.562986-4.838321-11.041886-7.739714-20.816474-12.015347-38.199848a102.455269 102.455269 0 0 1-1.791009-8.865091c-5.817779-2.186789-11.17981-4.201673-13.20169-4.960254-8.032552-3.01533-14.802804-5.551926-21.284214-7.970586a83883.278911 83883.278911 0 0 0-99.268035-36.988519C684.74801 50.981771 651.321519 38.61262 638.538597 32.774852c-7.345932 3.188235-24.897214 9.948491-53.250515 20.569611l-16.280985-6.056647A9523.031993 9523.031993 0 0 1 538.778835 36.539768c45.266935-16.809692 83.213924-31.09978 88.134199-33.593399C631.031754 0.857525 634.862632 0.018989 638.593566 0c3.730934 0.018989 7.561813 0.856526 11.680533 2.946369 8.329388 4.221662 42.732339 17.032569 103.208852 38.43072 33.189623 12.343165 66.37125 24.70632 99.544881 37.091462 17.621243 6.576359 35.227494 13.215682 52.676832 19.763057 1.124377 8.282414 1.544145 16.514856 3.473077 24.364509 2.748478 11.17881 5.655868 22.510536 10.249325 32.992732 5.127161 11.70352 13.244666 21.677997 23.079221 30.057357 11.785474 10.047437 25.173061 17.146506 40.16476 20.191819 11.433669 2.319716 23.240132 2.755474 35.684241 4.11772 0.329817 3.613999 0.745587 7.573806 1.041424 11.545607 1.349253 17.812137 3.042315 35.615279 3.849868 53.452403 0.465742 10.199353-0.392783 20.473664-0.871518 30.706997-0.917492 19.573162-1.831986 39.148323-3.054308 58.703496-0.68662 10.967927-1.514162 21.975832-3.130267 32.837817-2.576573 17.354391-5.157144 34.769748-9.006013 51.863283-5.876746 26.093552-11.819455 52.257065-19.641125 77.794924-6.996126 22.866339-16.331957 45.020072-25.063122 67.317725-9.940496 25.389941-22.922308 49.308697-36.999513 72.51085-13.126732 21.648013-27.598718 42.433504-43.833729 61.918715-14.102191 16.920631-28.171401 33.830268-44.885146 48.253282-13.938282 12.033337-27.529756 24.509429-41.869817 36.034047-23.828806 19.16239-49.632518 35.449371-76.726515 49.408642-17.400365 8.95804-35.432381 16.658776-53.214535 24.871229z" fill="#333333" p-id="13236"></path><path d="M585.288082 53.344463c28.3533-10.621119 45.904582-17.381376 53.250515-20.568611 12.782922 5.836768 46.209413 18.20492 104.035394 38.66659a83883.278911 83883.278911 0 0 1 99.268035 36.988519c6.481411 2.418661 13.252662 4.955256 21.284214 7.970586l13.20269 4.959254a102.455269 102.455269 0 0 0 1.790009 8.865091c4.275633 17.384374 7.176027 27.158962 12.015347 38.200848 6.956148 15.880207 17.766163 29.751526 31.629486 41.562986 16.165049 13.781369 34.480908 23.115201 54.539801 27.189945 4.205671 0.853527 7.950598 1.46319 12.414126 2.012885 1.521158 18.742622 2.118827 27.03503 2.578572 37.208398 0.204887 4.47852 0.104942 9.257874-0.289839 16.808693-0.05497 1.055416-0.101944 1.918937-0.207885 3.847869a795.116735 795.116735 0 0 0-0.370795 7.108064l-0.01799 0.377791-0.244864 5.210115c-1.122379 23.916757-1.833985 37.739103-2.76447 52.614867-0.820546 13.122734-1.602113 21.77994-2.844425 30.125319-0.633649 4.267637-0.879513 5.922721-1.215327 8.158483-2.730488 18.174936-4.758365 29.848473-7.356926 41.386084-8.365368 37.153428-12.769929 55.048519-19.019469 75.456219-4.303617 14.062214-8.602237 25.556849-18.771606 51.137684l-1.016437 2.555585a2340.677941 2340.677941 0 0 0-4.476521 11.328727c-8.282414 21.155286-19.358281 42.523454-34.562862 67.582579-12.890862 21.260228-26.479338 40.535555-41.061264 58.035865l-0.532705 0.639646c-19.566166 23.475002-28.656133 33.50145-40.677477 43.874706-3.783905 3.26819-6.783244 5.894736-13.392584 11.713514l-0.073959 0.063965c-13.766377 12.119289-19.887988 17.387372-27.54175 23.539965-15.851223 12.745942-33.036707 24.424476-51.571444 35.124551 15.428457-19.452229 29.423708-39.944882 42.289583-61.161134 16.088092-26.516318 30.924877-53.853181 42.286586-82.870114 9.977475-25.48289 20.647567-50.80187 28.64314-76.934401 8.938051-29.185839 15.731289-59.087283 22.446571-88.90777 4.399564-19.536183 7.347931-39.438163 10.292301-59.27318 1.846977-12.413127 2.793453-24.993161 3.578019-37.52922 1.396227-22.348625 2.441648-44.720238 3.490067-67.088852 0.546697-11.695524 1.529153-23.437023 0.996448-35.093568-0.923489-20.385712-2.858417-40.731447-4.400563-61.089175-0.337813-4.538487-0.81255-9.063981-1.189341-13.192695-14.222125-1.559137-27.714654-2.056861-40.782419-4.707393-17.133513-3.481072-32.434041-11.593581-45.902583-23.077222-11.239776-9.576697-20.51664-20.975386-26.375396-34.350979-5.251092-11.979367-8.572253-24.930196-11.713514-37.706122-2.204779-8.971033-2.684514-18.379823-3.969802-27.844582-19.941958-7.482857-40.062817-15.069656-60.202665-22.587493a95913.832462 95913.832462 0 0 0-97.484022-36.332882z" fill="#7FC8FF" p-id="13237"></path><path d="M394.995449 591.692373L587.222011 399.463813c6.245542-6.244542 16.370935-6.244542 22.615478 0 6.244542 6.245542 6.244542 16.370935 0 22.615477L406.302189 625.613591c-6.245542 6.245542-16.370935 6.245542-22.615478 0L270.613321 512.539201c-6.244542-6.244542-6.244542-16.369936 0-22.614478 6.245542-6.244542 16.370935-6.244542 22.615478 0l101.76665 101.766651z" fill="#FFFFFF" p-id="13238"></path></svg>