<?xml version="1.0" standalone="no"?><!DOCTYPE svg PUBLIC "-//W3C//DTD SVG 1.1//EN" "http://www.w3.org/Graphics/SVG/1.1/DTD/svg11.dtd"><svg t="1658110062706" class="icon" viewBox="0 0 1024 1024" version="1.1" xmlns="http://www.w3.org/2000/svg" p-id="11728" xmlns:xlink="http://www.w3.org/1999/xlink" width="200" height="200"><defs><style type="text/css"></style></defs><path d="M293.54251 119.404l-2.138 0.79c-30.44 11.24-95.549 35.178-127.383 46.89-0.636 4.52-1.317 8.075-2.341 12.245-4.827 19.617-8.089 30.6-13.484 42.906-7.663 17.487-19.597 32.795-34.941 45.863-17.923 15.273-38.17 25.586-60.326 30.086-5.77 1.17-10.79 1.932-17.53 2.668l-0.028 0.349-0.259 3.184c-1.755 21.623-2.444 31.16-2.976 42.91-0.242 5.289-0.125 10.878 0.334 19.645 0.063 1.212 0.117 2.202 0.238 4.411 0.221 4.013 0.316 5.8 0.423 8.087l0.02 0.433 0.28 5.955c1.285 27.36 2.1 43.178 3.165 60.21 0.946 15.12 1.85 25.126 3.295 34.833 0.723 4.868 1.005 6.761 1.39 9.32 3.137 20.875 5.472 34.31 8.474 47.632 9.59 42.575 14.646 63.108 21.84 86.587 4.965 16.222 9.91 29.44 21.584 58.793l1.162 2.92c2.176 5.474 3.635 9.163 5.111 12.93 9.579 24.455 22.358 49.1 39.875 77.958 14.85 24.48 30.519 46.697 47.34 66.878l0.614 0.736c22.533 27.022 33.042 38.608 47.043 50.686 4.308 3.718 7.73 6.715 15.276 13.355l0.085 0.074c15.793 13.898 22.828 19.95 31.658 27.044 24.651 19.814 52.089 37.387 82.33 52.961 11.138 5.732 20.45 10.08 41.664 19.66l0.338 0.152c12.542 5.664 18.379 8.33 25.536 11.713 3.014 1.424 5.963 2.325 8.804 2.732 2.842-0.407 5.792-1.308 8.807-2.733 7.156-3.382 12.993-6.049 25.535-11.712l0.337-0.152c21.215-9.58 30.526-13.929 41.656-19.656 30.25-15.578 57.687-33.151 82.345-52.971 8.824-7.089 15.858-13.14 31.651-27.038l0.085-0.074c7.546-6.64 10.968-9.637 15.28-13.359 13.998-12.074 24.506-23.66 47.039-50.682l0.61-0.732c16.825-20.186 32.494-42.403 47.35-66.89 17.51-28.85 30.29-53.495 39.87-77.952 1.475-3.766 2.934-7.454 5.11-12.928l1.162-2.92c11.674-29.354 16.62-42.57 21.587-58.8 7.191-23.472 12.247-44.006 21.838-86.583 3.001-13.32 5.336-26.754 8.474-47.63 0.384-2.558 0.666-4.452 1.39-9.33 1.445-9.697 2.348-19.703 3.294-34.822 1.065-17.032 1.88-32.85 3.166-60.21l0.279-5.956 0.02-0.431c0.107-2.288 0.202-4.075 0.423-8.088 0.121-2.21 0.175-3.199 0.239-4.41 0.458-8.768 0.575-14.358 0.333-19.659-0.532-11.737-1.22-21.275-2.976-42.897a15813.87 15813.87 0 0 1-0.287-3.533c-6.741-0.736-11.763-1.5-17.539-2.67-22.147-4.498-42.394-14.812-60.31-30.079-15.35-13.074-27.285-28.381-34.946-45.864-5.397-12.31-8.658-23.294-13.487-42.919-1.034-4.207-1.717-7.789-2.36-12.374-7.575-2.845-15.015-5.64-17.617-6.616-9.188-3.447-16.932-6.347-24.346-9.113a95947.675 95947.675 0 0 0-113.552-42.293C491.37351 84.482 452.66151 70.11 440.00351 64c-10.79 4.994-58.926 23.076-146.46 55.404z" fill="#0091FF" p-id="11729"></path><path d="M453.37051 3.369c9.524 4.828 48.864 19.477 118.018 43.946a95956.345 95956.345 0 0 1 113.828 42.413c20.15 7.52 40.283 15.112 60.235 22.6 1.287 9.47 1.767 18.883 3.972 27.86 3.144 12.782 6.467 25.74 11.72 37.727 5.863 13.382 15.145 24.787 26.39 34.37 13.477 11.488 28.786 19.606 45.929 23.089 13.075 2.652 26.575 3.15 40.805 4.71 0.377 4.131 0.852 8.659 1.19 13.2 1.543 20.369 3.479 40.726 4.403 61.123 0.532 11.663-0.45 23.41-0.997 35.113-1.049 22.381-2.095 44.765-3.493 67.126-0.784 12.543-1.73 25.13-3.58 37.55-2.945 19.845-5.895 39.759-10.298 59.306-6.718 29.838-13.515 59.755-22.458 88.957-8 26.147-18.676 51.48-28.66 76.977-11.367 29.033-26.212 56.385-42.31 82.916-15.009 24.754-31.557 48.522-50.122 70.803-16.126 19.348-32.214 38.684-51.326 55.178-15.938 13.76-31.48 28.026-47.878 41.204-27.247 21.912-56.753 40.536-87.735 56.498-22.4 11.532-45.716 21.241-68.507 32.016-7.322 3.462-14.902 5.473-22.483 5.949-7.581-0.476-15.161-2.487-22.483-5.949-22.791-10.775-46.106-20.484-68.507-32.016-30.982-15.962-60.488-34.586-87.735-56.497-16.398-13.179-31.94-27.445-47.878-41.204-19.112-16.494-35.2-35.83-51.326-55.178-18.565-22.282-35.113-46.05-50.123-70.804-16.097-26.531-30.942-53.882-42.31-82.915-9.983-25.497-20.658-50.83-28.659-76.978-8.943-29.202-15.74-59.119-22.458-88.957-4.403-19.547-7.353-39.46-10.299-59.306-1.848-12.42-2.795-25.007-3.58-37.55C3.25951 394.286 2.21351 371.903 1.16351 349.52c-0.547-11.702-1.53-23.45-0.997-35.113 0.924-20.396 2.86-40.754 4.403-61.122 0.338-4.542 0.813-9.07 1.19-13.202 14.23-1.558 27.73-2.056 40.805-4.709 17.143-3.483 32.452-11.6 45.928-23.089 11.246-9.582 20.528-20.987 26.39-34.37 5.254-11.987 8.577-24.945 11.721-37.727 2.205-8.977 2.685-18.39 3.972-27.86C154.52751 104.84 412.36951 10.612 426.65651 3.369 431.36651 0.98 435.74651 0.022 440.01351 0c4.266 0.021 8.647 0.98 13.357 3.369zM293.54051 87.88l-2.138 0.79c-30.44 11.244-95.55 35.193-127.383 46.91-0.637 4.522-1.317 8.078-2.342 12.25-4.827 19.625-8.088 30.613-13.483 42.924-7.664 17.494-19.598 32.808-34.942 45.882-17.922 15.28-38.17 25.597-60.325 30.098-5.77 1.17-10.79 1.934-17.53 2.67l-0.029 0.348-0.258 3.187c-1.756 21.63-2.444 31.172-2.977 42.927-0.242 5.29-0.124 10.883 0.334 19.654 0.063 1.212 0.117 2.202 0.239 4.412 0.22 4.015 0.315 5.803 0.422 8.09l0.02 0.433 0.28 5.958c1.285 27.372 2.1 43.197 3.166 60.236 0.945 15.125 1.849 25.136 3.294 34.847 0.723 4.87 1.005 6.764 1.39 9.324 3.137 20.884 5.472 34.324 8.474 47.652 9.59 42.592 14.646 63.134 21.84 86.624 4.965 16.229 9.91 29.45 21.585 58.817l1.161 2.921c2.176 5.477 3.636 9.167 5.111 12.935 9.58 24.466 22.359 49.121 39.875 77.99 14.85 24.491 30.52 46.718 47.341 66.907l0.614 0.736c22.532 27.034 33.041 38.625 47.043 50.708 4.308 3.72 7.73 6.718 15.276 13.36l0.084 0.075c15.794 13.904 22.828 19.957 31.659 27.054 24.65 19.823 52.088 37.404 82.33 52.984 11.137 5.734 20.449 10.085 41.664 19.668l0.337 0.153c12.542 5.665 18.38 8.333 25.536 11.717 3.014 1.425 5.963 2.326 8.804 2.733 2.842-0.407 5.792-1.308 8.807-2.734 7.156-3.383 12.993-6.051 25.535-11.717l0.337-0.152c21.215-9.584 30.527-13.934 41.656-19.664 30.25-15.585 57.687-33.165 82.345-52.994 8.824-7.091 15.858-13.145 31.652-27.048l0.084-0.075c7.546-6.643 10.968-9.64 15.28-13.364 13.998-12.08 24.507-23.67 47.04-50.704l0.61-0.732c16.825-20.194 32.494-42.42 47.348-66.918 17.512-28.862 30.292-53.518 39.871-77.984 1.475-3.768 2.935-7.457 5.11-12.934l1.162-2.922c11.675-29.366 16.62-42.588 21.588-58.825 7.19-23.48 12.246-44.023 21.837-86.618 3.002-13.325 5.337-26.766 8.474-47.65 0.385-2.56 0.667-4.454 1.391-9.335 1.444-9.7 2.348-19.71 3.293-34.836 1.066-17.039 1.88-32.863 3.166-60.235l0.28-5.958 0.02-0.432c0.107-2.288 0.201-4.076 0.422-8.091 0.122-2.21 0.176-3.2 0.239-4.413 0.458-8.77 0.576-14.362 0.333-19.666-0.532-11.742-1.22-21.284-2.976-42.915a15845.5 15845.5 0 0 1-0.286-3.534c-6.742-0.737-11.764-1.5-17.54-2.672-22.147-4.5-42.394-14.817-60.31-30.091-15.35-13.08-27.284-28.393-34.946-45.883-5.397-12.315-8.658-23.304-13.487-42.937-1.034-4.209-1.717-7.793-2.36-12.38l-17.616-6.618c-9.188-3.45-16.933-6.35-24.347-9.117-37.849-14.13-75.7-28.234-113.551-42.31-69.104-24.453-107.814-38.83-120.474-44.944-10.789 4.997-58.925 23.086-146.46 55.428z" fill="#333333" p-id="11730"></path><path d="M665.25551 887.666c18.776-16.347 34.648-35.423 50.557-54.51a513.56 513.56 0 0 0 7.81-9.61c18.545-10.705 35.74-22.39 51.6-35.143 7.658-6.156 13.783-11.427 27.557-23.553l0.074-0.065c6.613-5.82 9.614-8.45 13.4-11.72 12.028-10.379 21.123-20.41 40.7-43.898l0.533-0.64c14.59-17.51 28.186-36.796 41.084-58.068 15.213-25.073 26.295-46.453 34.582-67.62 1.294-3.304 2.573-6.538 4.48-11.335l1.016-2.557c10.175-25.595 14.476-37.096 18.781-51.166 6.254-20.419 10.66-38.324 19.03-75.498 2.6-11.544 4.63-23.224 7.362-41.409 0.336-2.237 0.582-3.893 1.216-8.163 1.243-8.35 2.025-17.012 2.846-30.142 0.93-14.883 1.643-28.713 2.766-52.644l0.245-5.213 0.018-0.378c0.094-2.017 0.177-3.588 0.371-7.112 0.106-1.93 0.153-2.794 0.208-3.85 0.395-7.555 0.495-12.337 0.29-16.818-0.46-10.179-1.058-18.476-2.58-37.229-4.466-0.55-8.213-1.16-12.421-2.014-20.07-4.077-38.396-13.416-54.57-27.205-13.87-11.818-24.687-25.697-31.647-41.586-4.841-11.048-7.744-20.828-12.022-38.221a102.512 102.512 0 0 1-1.792-8.87c-5.821-2.188-11.186-4.204-13.209-4.963-8.037-3.017-14.811-5.555-21.296-7.975a83929.726 83929.726 0 0 0-99.323-37.009C685.06351 51.01 651.61851 38.634 638.82851 32.793c-7.35 3.19-24.911 9.954-53.28 20.581l-16.29-6.06A9528.305 9528.305 0 0 1 539.01351 36.56c45.292-16.819 83.26-31.117 88.183-33.612C631.31751 0.858 635.15051 0.019 638.88351 0c3.733 0.019 7.566 0.857 11.687 2.948 8.334 4.224 42.756 17.042 103.266 38.452 33.208 12.35 66.408 24.72 99.6 37.112 17.631 6.58 35.247 13.223 52.706 19.774 1.125 8.287 1.545 16.524 3.475 24.378 2.75 11.185 5.659 22.523 10.255 33.011 5.13 11.71 13.252 21.69 23.092 30.074 11.792 10.053 25.187 17.156 40.187 20.203 11.44 2.321 23.253 2.757 35.704 4.12 0.33 3.616 0.746 7.578 1.042 11.552 1.35 17.822 3.044 35.635 3.852 53.482 0.466 10.205-0.393 20.485-0.872 30.724-0.918 19.584-1.833 39.17-3.056 58.736-0.687 10.974-1.515 21.988-3.132 32.856-2.578 17.364-5.16 34.789-9.011 51.892-5.88 26.108-11.826 52.286-19.652 77.838-7 22.879-16.341 45.045-25.077 67.355-9.946 25.404-22.935 49.336-37.02 72.551-13.134 21.66-27.614 42.457-43.858 61.953-14.11 16.93-28.187 33.849-44.91 48.28-13.946 12.04-27.545 24.523-41.893 36.054-23.842 19.173-49.66 35.469-76.769 49.436-17.41 8.963-35.452 16.668-53.244 24.885z" fill="#333333" p-id="11731"></path><path d="M585.54851 53.374c28.369-10.627 45.93-17.391 53.28-20.58 12.79 5.84 46.235 18.215 104.093 38.688a83929.726 83929.726 0 0 1 99.323 37.009c6.485 2.42 13.26 4.958 21.296 7.975l13.21 4.962a102.512 102.512 0 0 0 1.791 8.87c4.278 17.394 7.18 27.174 12.022 38.222 6.96 15.889 17.776 29.768 31.647 41.586 16.174 13.789 34.5 23.128 54.57 27.205 4.208 0.854 7.955 1.464 12.421 2.014 1.522 18.753 2.12 27.05 2.58 37.229 0.205 4.481 0.105 9.263-0.29 16.818-0.055 1.056-0.102 1.92-0.208 3.85a795.557 795.557 0 0 0-0.371 7.112l-0.018 0.378-0.245 5.213c-1.123 23.93-1.835 37.76-2.766 52.644-0.821 13.13-1.603 21.792-2.846 30.142-0.634 4.27-0.88 5.926-1.216 8.163-2.732 18.185-4.761 29.865-7.361 41.409-8.37 37.174-12.777 55.079-19.03 75.498-4.306 14.07-8.607 25.571-18.782 51.166l-1.017 2.557a2341.974 2341.974 0 0 0-4.479 11.335c-8.287 21.167-19.369 42.547-34.582 67.62-12.898 21.272-26.494 40.558-41.084 58.068l-0.533 0.64c-19.577 23.488-28.672 33.52-40.7 43.899-3.786 3.27-6.787 5.898-13.4 11.72l-0.074 0.064c-13.774 12.126-19.899 17.397-27.557 23.553-15.86 12.753-33.055 24.438-51.6 35.144 15.437-19.463 29.44-39.967 42.313-61.195 16.097-26.531 30.942-53.883 42.31-82.916 9.983-25.497 20.659-50.83 28.659-76.977 8.943-29.202 15.74-59.12 22.459-88.957 4.402-19.547 7.352-39.46 10.298-59.306 1.848-12.42 2.795-25.007 3.58-37.55 1.397-22.361 2.443-44.745 3.492-67.126 0.547-11.702 1.53-23.45 0.997-35.113-0.924-20.397-2.86-40.754-4.403-61.123-0.338-4.541-0.813-9.069-1.19-13.2-14.23-1.56-27.73-2.058-40.805-4.71-17.143-3.483-32.452-11.6-45.928-23.09-11.246-9.582-20.528-20.987-26.39-34.37-5.254-11.986-8.577-24.944-11.72-37.727-2.206-8.976-2.686-18.39-3.972-27.86-19.953-7.487-40.085-15.078-60.236-22.6a95966.941 95966.941 0 0 0-97.538-36.353z" fill="#7FC8FF" p-id="11732"></path><path d="M395.15051 592.02L587.48351 399.685c6.249-6.248 16.38-6.248 22.628 0 6.248 6.249 6.248 16.38 0 22.628L406.46351 625.96c-6.249 6.249-16.38 6.249-22.628 0L270.69951 512.823c-6.248-6.248-6.248-16.379 0-22.627 6.249-6.248 16.38-6.248 22.628 0l101.823 101.823z" fill="#FFFFFF" p-id="11733"></path></svg>