<?xml version="1.0" standalone="no"?><!DOCTYPE svg PUBLIC "-//W3C//DTD SVG 1.1//EN" "http://www.w3.org/Graphics/SVG/1.1/DTD/svg11.dtd"><svg t="1658109980809" class="icon" viewBox="0 0 1024 1024" version="1.1" xmlns="http://www.w3.org/2000/svg" p-id="9164" xmlns:xlink="http://www.w3.org/1999/xlink" width="200" height="200"><defs><style type="text/css"></style></defs><path d="M0 0h496v496H0z" fill="#0091FF" p-id="9165"></path><path d="M0 528h496v496H0zM528 0h496v496H528zM528 528h496v496H528z" fill="#7FC8FF" p-id="9166"></path><path d="M0 0h496v496H0V0z m32 32v432h432V32H32zM0 528h496v496H0V528z m32 32v432h432V560H32zM528 0h496v496H528V0z m32 32v432h432V32H560zM528 528h496v496H528V528z m32 32v432h432V560H560z" fill="#333333" p-id="9167"></path><path d="M216 216v-96h64v96h96v64h-96v96h-64v-96h-96v-64zM248.137 730.882L316.02 663l45.255 45.255-67.882 67.882 67.882 67.882-45.255 45.255-67.882-67.882-67.882 67.882L135 844.02l67.882-67.882L135 708.255 180.255 663zM648 216h256v64H648zM648 744h256v64H648v-64z m96-96h64v64h-64v-64z m0 192h64v64h-64v-64z" fill="#FFFFFF" p-id="9168"></path></svg>