<?xml version="1.0" standalone="no"?><!DOCTYPE svg PUBLIC "-//W3C//DTD SVG 1.1//EN" "http://www.w3.org/Graphics/SVG/1.1/DTD/svg11.dtd"><svg t="1658110036959" class="icon" viewBox="0 0 1024 1024" version="1.1" xmlns="http://www.w3.org/2000/svg" p-id="10976" xmlns:xlink="http://www.w3.org/1999/xlink" width="200" height="200"><defs><style type="text/css"></style></defs><path d="M991 106.872V32H780.255l69.5 69.5-333.633 285.97 62.476 72.89 339.24-290.777L991 242.745z" fill="#7FC8FF" p-id="10977"></path><path d="M1023 121.333l0.127 0.148-0.127 0.109V320L916.164 213.164 575.127 505.48 471 384 802.692 99.692 703 0h320v121.333z m-32-14.461v26.299V32H780.255l69.5 69.5-333.633 285.97 62.476 72.89 339.24-290.777L991 242.745V106.872z" fill="#333333" p-id="10978"></path><path d="M33 106.872V32h210.745l-69.5 69.5 333.633 285.97-62.476 72.89-339.24-290.777L33 242.745z" fill="#7FC8FF" p-id="10979"></path><path d="M1 121.333l-0.127 0.148 0.127 0.109V320l106.836-106.836L448.873 505.48 553 384 221.308 99.692 321 0H1v121.333z m32-14.461v26.299V32h210.745l-69.5 69.5 333.633 285.97-62.476 72.89-339.24-290.777L33 242.745V106.872z" fill="#333333" p-id="10980"></path><path d="M991 917.128V992H780.255l69.5-69.5-333.633-285.97 62.476-72.89 339.24 290.777L991 781.255z" fill="#7FC8FF" p-id="10981"></path><path d="M1023 902.667l0.127-0.148-0.127-0.109V704L916.164 810.836 575.127 518.52 471 640l331.692 284.308L703 1024h320V902.667z m-32 14.461V890.83 992H780.255l69.5-69.5-333.633-285.97 62.476-72.89 339.24 290.777L991 781.255v135.873z" fill="#333333" p-id="10982"></path><path d="M33 917.128V992h210.745l-69.5-69.5 333.633-285.97-62.476-72.89-339.24 290.777L33 781.255z" fill="#7FC8FF" p-id="10983"></path><path d="M1 902.667l-0.127-0.148 0.127-0.109V704l106.836 106.836L448.873 518.52 553 640 221.308 924.308 321 1024H1V902.667z m32 14.461V890.83 992h210.745l-69.5-69.5 333.633-285.97-62.476-72.89-339.24 290.777L33 781.255v135.873z" fill="#333333" p-id="10984"></path><path d="M237.65 705h578.292C877.885 704.761 928 654.47 928 592.5c0-62.132-50.368-112.5-112.5-112.5-4.072 0-8.11 0.215-12.108 0.641l-35.505 3.787 0.112-35.707L768 448c0-123.712-100.288-224-224-224-106.254 0-197.288 74.57-219.1 177.152l-7.383 34.722-33.773-10.933c-14.15-4.58-29.017-6.941-44.244-6.941C160.247 418 96 482.247 96 561.5c0 77.88 62.13 141.499 139.805 143.454l1.845 0.046z" fill="#FFFFFF" p-id="10985"></path><path d="M237.65 737h578.292C877.885 736.761 928 686.47 928 624.5c0-62.132-50.368-112.5-112.5-112.5-4.072 0-8.11 0.215-12.108 0.641l-35.505 3.787 0.112-35.707L768 480c0-123.712-100.288-224-224-224-106.254 0-197.288 74.57-219.1 177.152l-7.383 34.722-33.773-10.933c-14.15-4.58-29.017-6.941-44.244-6.941C160.247 450 96 514.247 96 593.5c0 77.88 62.13 141.499 139.805 143.454l1.845 0.046z" fill="#0091FF" p-id="10986"></path><path d="M64 561.5C64 464.574 142.574 386 239.5 386c18.878 0 37.06 2.98 54.1 8.497C318.2 278.795 420.964 192 544 192c141.385 0 256 114.615 256 256l-0.001 0.822A146.135 146.135 0 0 1 815.5 448c79.805 0 144.5 64.695 144.5 144.5 0 79.638-64.425 144.23-144 144.5H235v-0.057C140.154 734.556 64 656.921 64 561.5zM237.65 705h578.292C877.885 704.761 928 654.47 928 592.5c0-62.132-50.368-112.5-112.5-112.5-4.072 0-8.11 0.215-12.108 0.641l-35.505 3.787 0.112-35.707L768 448c0-123.712-100.288-224-224-224-106.254 0-197.288 74.57-219.1 177.152l-7.383 34.722-33.773-10.933c-14.15-4.58-29.017-6.941-44.244-6.941C160.247 418 96 482.247 96 561.5c0 77.88 62.13 141.499 139.805 143.454l1.845 0.046z" fill="#333333" p-id="10987"></path></svg>