<?xml version="1.0" standalone="no"?><!DOCTYPE svg PUBLIC "-//W3C//DTD SVG 1.1//EN" "http://www.w3.org/Graphics/SVG/1.1/DTD/svg11.dtd"><svg t="1658110096671" class="icon" viewBox="0 0 1024 1024" version="1.1" xmlns="http://www.w3.org/2000/svg" p-id="12938" xmlns:xlink="http://www.w3.org/1999/xlink" width="200" height="200"><defs><style type="text/css"></style></defs><path d="M629.64 68.241l-16 27.713-101.573-58.955-101.674 59.013-16-27.713L512.067 0 629.64 68.241z m207.571 120.477L953.133 256v136h-32V274.426l-99.922-57.996 16-27.712zM953.133 632v136l-115.922 67.282-16-27.712 99.922-57.996V632h32zM629.64 955.759L512.067 1024l-117.674-68.299 16-27.713 101.674 59.013 101.573-58.955 16 27.713zM186.822 835.224L71 768V632h32v117.574l99.822 57.938-16 27.712zM71 392V256l115.822-67.224 16 27.712L103 274.426V392H71z" fill="#333333" p-id="12939"></path><path d="M512.067 37L103 274.427v475.147l409.067 237.427 409.066-237.427V274.427z" fill="#7FC8FF" p-id="12940"></path><path d="M512 178L224 345.198v334.604L512 847l288-167.198V345.198z" fill="#0091FF" p-id="12941"></path><path d="M512 178L224 345.198v334.604L512 847l288-167.198V345.198L512 178z m0 37.002l256 148.62v297.756l-256 148.62-256-148.62V363.622l256-148.62z" fill="#333333" p-id="12942"></path><path d="M528 199h-32V29h32v170z m263.499 170.606l-16-27.712 147.224-85 16 27.712-147.224 85z m-16 313.5l16-27.712 147.224 85-16 27.712-147.224-85zM496 826h32v170h-32V826zM232.501 655.394l16 27.712-147.224 85-16-27.712 147.224-85z m16-313.5l-16 27.712-147.224-85 16-27.712 147.224 85z" fill="#333333" p-id="12943"></path></svg>