<?xml version="1.0" standalone="no"?><!DOCTYPE svg PUBLIC "-//W3C//DTD SVG 1.1//EN" "http://www.w3.org/Graphics/SVG/1.1/DTD/svg11.dtd"><svg t="1658110019741" class="icon" viewBox="0 0 1024 1024" version="1.1" xmlns="http://www.w3.org/2000/svg" p-id="10231" xmlns:xlink="http://www.w3.org/1999/xlink" width="200" height="200"><defs><style type="text/css"></style></defs><path d="M575.427 64L1024 0v1024H576zM448.573 64L0 0v1024h448z" fill="#7FC8FF" p-id="10232"></path><path d="M575.427 64L1024 0v1024H576l-0.573-960z m32.017 27.756L607.98 992H992V36.89L607.444 91.756zM448.573 64L448 1024H0V0l448.573 64z m-32.017 27.756L32 36.89V992h384.02l0.536-900.244z" fill="#333333" p-id="10233"></path><path d="M0 896h1024v128H0z" fill="#FFFFFF" p-id="10234"></path><path d="M0 960h1024v64H0z" fill="#0091FF" p-id="10235"></path><path d="M0 896h1024v128H0V896z m32 32v64h960v-64H32z" fill="#333333" p-id="10236"></path><path d="M640 384h32v128h-32zM352 384h32v128h-32z" fill="#FFFFFF" p-id="10237"></path></svg>