<?xml version="1.0" standalone="no"?><!DOCTYPE svg PUBLIC "-//W3C//DTD SVG 1.1//EN" "http://www.w3.org/Graphics/SVG/1.1/DTD/svg11.dtd"><svg t="1658107825035" class="icon" viewBox="0 0 1024 1024" version="1.1" xmlns="http://www.w3.org/2000/svg" p-id="16867" xmlns:xlink="http://www.w3.org/1999/xlink" width="200" height="200"><defs><style type="text/css"></style></defs><path d="M0 0h384v384H0zM640 0h384v384H640z" fill="#7FC8FF" p-id="16868"></path><path d="M384 0v384H0V0h384z m-32 32H32v320h320V32zM1024 0v384H640V0h384z m-32 32H672v320h320V32z" fill="#333333" p-id="16869"></path><path d="M64 96h256v32H64zM704 96h256v32H704zM64 176h256v32H64zM704 176h256v32H704zM64 256h256v32H64zM704 256h256v32H704z" fill="#FFFFFF" p-id="16870"></path><path d="M256 512l0.034-1.058C258.295 476.084 372.03 448 512 448s253.705 28.084 255.966 62.942L768 512v448c0 35.346-114.615 64-256 64-139.971 0-253.705-28.084-255.966-62.942L256 960V512z" fill="#0091FF" p-id="16871"></path><path d="M512 448c139.971 0 253.705 28.084 255.966 62.942L768 512v448c0 35.346-114.615 64-256 64-139.971 0-253.705-28.084-255.966-62.942L256 960V512l0.034-1.058C258.295 476.084 372.03 448 512 448zM288 871.425v83.013c1.255 0.965 2.83 2.011 4.715 3.11l0.477 0.276c0.936 0.536 1.922 1.071 2.957 1.606l1.052 0.535c1.069 0.535 2.186 1.07 3.352 1.602l1.182 0.533 0.603 0.266 1.23 0.531 1.26 0.53c0.639 0.265 1.289 0.53 1.95 0.793l1.339 0.527 1.369 0.525 0.696 0.262 1.414 0.523c0.477 0.173 0.958 0.347 1.445 0.52l1.474 0.519 2.267 0.773 2.332 0.768 2.396 0.762 1.633 0.505 1.662 0.501 1.689 0.499 0.855 0.248 1.73 0.493 1.758 0.49 1.785 0.487 1.812 0.482 1.838 0.48 2.334 0.592 1.42 0.353c15.26 3.757 32.429 6.98 51.025 9.596l3.297 0.455 3.326 0.443C432.186 989.533 471.263 992 512 992c8.627 0 17.178-0.11 25.628-0.328l3.892-0.108c5.18-0.154 10.32-0.348 15.413-0.58l3.81-0.183c3.803-0.19 7.577-0.4 11.322-0.634l3.734-0.24a841.697 841.697 0 0 0 30.854-2.607l3.515-0.372c1.616-0.174 3.224-0.353 4.824-0.537l3.186-0.372c1.588-0.189 3.167-0.382 4.736-0.579l3.127-0.4 3.103-0.411 1.541-0.21 3.065-0.427c18.816-2.671 36.152-5.963 51.508-9.802l0.947-0.238 1.874-0.48 1.848-0.483 0.913-0.243 1.807-0.489c0.597-0.164 1.19-0.328 1.779-0.493l1.751-0.496c1.158-0.332 2.298-0.666 3.418-1.003l1.667-0.506 0.823-0.254 1.623-0.51 1.594-0.513c0.527-0.172 1.048-0.343 1.565-0.516l1.535-0.518 1.506-0.52 0.741-0.26 1.46-0.524 0.719-0.263 1.414-0.526c0.7-0.263 1.387-0.528 2.063-0.792l1.336-0.53 0.656-0.266 1.29-0.532 1.256-0.533 1.225-0.534 1.192-0.535c3.136-1.427 5.923-2.86 8.34-4.29 1.682-0.994 3.1-1.938 4.246-2.807l0.156-0.12v-80.771a297.542 297.542 0 0 1-14.88 4.883l-1.15 0.343-2.231 0.654a369.99 369.99 0 0 1-5.121 1.442l-1.738 0.471-2.34 0.622c-1.57 0.412-3.157 0.818-4.762 1.22C653.342 895.908 586.282 903 515 903s-138.342-7.091-188.78-19.7c-1.07-0.268-2.132-0.538-3.187-0.81l-1.575-0.41-2.34-0.622c-1.745-0.47-3.468-0.945-5.167-1.428l-1.692-0.485-2.231-0.654c-7.874-2.335-15.227-4.823-22.029-7.466z m430.123-101.877l-1.15 0.343-2.232 0.654a369.99 369.99 0 0 1-5.121 1.442l-1.738 0.471-2.34 0.622c-1.57 0.412-3.157 0.818-4.762 1.22C650.342 786.908 583.282 794 512 794s-138.342-7.091-188.78-19.7c-1.07-0.268-2.132-0.538-3.187-0.81l-1.575-0.41-2.34-0.622c-1.745-0.47-3.468-0.945-5.167-1.428l-1.692-0.485-2.231-0.654c-6.73-1.996-13.079-4.103-19.029-6.324v73.049C330.747 857.053 416.359 871 515 871c94.225 0 176.56-12.726 221.004-31.679v-75.754c-5.613 2.093-11.577 4.087-17.881 5.98z m0-108.998l-1.15 0.343-2.232 0.654a369.99 369.99 0 0 1-5.121 1.442l-1.738 0.471-2.34 0.622c-1.57 0.412-3.157 0.818-4.762 1.22-50.438 12.61-117.498 19.7-188.78 19.7s-138.342-7.09-188.78-19.7c-1.07-0.268-2.132-0.538-3.187-0.81l-1.575-0.41-2.34-0.622c-1.745-0.47-3.468-0.945-5.167-1.428l-1.692-0.485-2.231-0.654c-6.73-1.996-13.079-4.103-19.029-6.324v74.439C331.67 748.683 415.615 762 512 762c96.387 0 180.332-13.317 224.003-32.993v-74.438c-5.612 2.094-11.576 4.087-17.88 5.98zM512 576c-96.387 0-180.333-13.317-224.003-32.994v77.004C331.67 639.685 415.615 653.002 512 653.002c96.387 0 180.332-13.317 224.004-32.993v-77.003C692.334 562.682 608.388 576 512 576z m1.97-96H512c-40.737 0-79.814 2.468-114.326 6.977l-3.326 0.443-3.297 0.455c-18.05 2.54-34.753 5.65-49.673 9.266l-2.3 0.565-1.878 0.473-1.85 0.477-1.826 0.48-0.902 0.242-1.785 0.487-1.758 0.49-1.73 0.493-0.855 0.248-1.69 0.499-1.66 0.501-1.634 0.505-2.396 0.762-1.562 0.511-0.77 0.257-1.519 0.515-0.748 0.258-1.474 0.519-0.726 0.26-1.43 0.521c-0.471 0.175-0.938 0.349-1.4 0.524l-1.368 0.525-1.339 0.527c-0.661 0.263-1.311 0.528-1.95 0.792l-1.26 0.53-1.23 0.532-0.603 0.266-1.182 0.533c-0.874 0.4-1.721 0.8-2.541 1.2l-0.743 0.367 0.091 0.045a106.59 106.59 0 0 0 3.38 1.608l1.192 0.535 1.225 0.534 1.257 0.533 1.289 0.532 0.656 0.266 1.336 0.53c0.676 0.264 1.364 0.529 2.063 0.792l1.414 0.526 0.719 0.263 1.46 0.523 0.741 0.261 1.506 0.52 1.535 0.518 0.779 0.258 1.58 0.515 1.608 0.511c0.541 0.17 1.087 0.34 1.638 0.51l1.667 0.505c0.84 0.253 1.691 0.504 2.553 0.754l1.737 0.498c0.584 0.165 1.172 0.33 1.765 0.494l1.793 0.491 0.907 0.244 1.834 0.486 2.8 0.72 0.948 0.238c15.356 3.84 32.692 7.131 51.508 9.802l3.065 0.427 3.09 0.417 1.554 0.204 3.127 0.4c1.57 0.197 3.148 0.39 4.736 0.58l3.186 0.371c1.6 0.184 3.208 0.363 4.824 0.537l3.515 0.372a841.697 841.697 0 0 0 30.854 2.607l3.734 0.24c3.745 0.233 7.52 0.444 11.321 0.634l3.811 0.182c5.093 0.233 10.233 0.427 15.413 0.581l3.892 0.108c8.45 0.217 17.001 0.328 25.628 0.328 8.627 0 17.178-0.11 25.628-0.328l3.892-0.108c5.18-0.154 10.32-0.348 15.413-0.58l3.81-0.183c3.803-0.19 7.577-0.4 11.322-0.634l3.734-0.24a841.697 841.697 0 0 0 30.854-2.607l3.515-0.372c1.616-0.174 3.224-0.353 4.824-0.537l3.186-0.372c1.588-0.189 3.167-0.382 4.736-0.579l3.127-0.4 3.103-0.411 1.541-0.21 3.065-0.427c18.816-2.671 36.152-5.963 51.508-9.802l1.922-0.486 0.951-0.245 1.88-0.492c0.312-0.082 0.621-0.165 0.93-0.248l2.747-0.749 1.795-0.504 1.766-0.508c0.584-0.17 1.163-0.34 1.738-0.51l1.707-0.515 1.678-0.517 1.648-0.52 1.618-0.524 1.587-0.525 1.557-0.529c0.256-0.088 0.512-0.176 0.766-0.265l1.51-0.531c0.498-0.178 0.99-0.356 1.478-0.534l1.446-0.535c1.192-0.447 2.35-0.896 3.475-1.347l1.334-0.54 0.654-0.272 1.283-0.543a128.77 128.77 0 0 0 1.863-0.816l1.2-0.545c0.788-0.363 1.554-0.727 2.296-1.091l0.643-0.319 0.069 0.035a105.697 105.697 0 0 0-3.352-1.602l-1.182-0.533-0.603-0.266-1.23-0.531-1.26-0.53c-0.639-0.265-1.289-0.53-1.95-0.793l-1.339-0.527-1.369-0.525-0.696-0.262-1.414-0.523a196.31 196.31 0 0 0-1.445-0.52l-1.474-0.519-2.267-0.773-2.332-0.768-2.396-0.762-1.633-0.505-1.662-0.501-1.689-0.499-0.855-0.248-1.73-0.493-1.758-0.49-1.785-0.487-1.812-0.482-1.838-0.48-2.334-0.592-1.42-0.353c-15.26-3.757-32.429-6.98-51.025-9.596l-3.297-0.455-3.326-0.443c-33.956-4.436-72.33-6.897-112.356-6.977z" fill="#333333" p-id="16872"></path><path d="M848 384v368H744.652v-32h71.347L816 384zM176 384v368h103.348v-32h-71.347L208 384z" fill="#333333" p-id="16873"></path></svg>