<?xml version="1.0" standalone="no"?><!DOCTYPE svg PUBLIC "-//W3C//DTD SVG 1.1//EN" "http://www.w3.org/Graphics/SVG/1.1/DTD/svg11.dtd"><svg t="1658107833535" class="icon" viewBox="0 0 1024 1024" version="1.1" xmlns="http://www.w3.org/2000/svg" p-id="17161" xmlns:xlink="http://www.w3.org/1999/xlink" width="200" height="200"><defs><style type="text/css"></style></defs><path d="M754 176h225v32H754zM754 496h225v32H754zM754 816h225v32H754z" fill="#333333" p-id="17162"></path><path d="M928 192m-96 0a96 96 0 1 0 192 0 96 96 0 1 0-192 0Z" fill="#7FC8FF" p-id="17163"></path><path d="M832 511.644a96 96.644 0 1 0 192 0 96 96.644 0 1 0-192 0Z" fill="#7FC8FF" p-id="17164"></path><path d="M928 831m-96 0a96 96 0 1 0 192 0 96 96 0 1 0-192 0Z" fill="#7FC8FF" p-id="17165"></path><path d="M928 288c53.02 0 96-42.98 96-96s-42.98-96-96-96-96 42.98-96 96 42.98 96 96 96z m0-32c-35.346 0-64-28.654-64-64 0-35.346 28.654-64 64-64 35.346 0 64 28.654 64 64 0 35.346-28.654 64-64 64zM928 608.289c53.02 0 96-43.27 96-96.645C1024 458.27 981.02 415 928 415s-96 43.27-96 96.644c0 53.375 42.98 96.645 96 96.645z m0-32c-35.298 0-64-28.895-64-64.645S892.702 447 928 447s64 28.894 64 64.644c0 35.75-28.702 64.645-64 64.645zM928 927c53.02 0 96-42.98 96-96s-42.98-96-96-96-96 42.98-96 96 42.98 96 96 96z m0-32c-35.346 0-64-28.654-64-64 0-35.346 28.654-64 64-64 35.346 0 64 28.654 64 64 0 35.346-28.654 64-64 64z" fill="#333333" p-id="17166"></path><path d="M768 896c0 70.692-171.923 128-384 128S0 966.692 0 896V128C0 57.308 171.923 0 384 0s384 57.308 384 128v768z" fill="#0091FF" p-id="17167"></path><path d="M768 896c0 70.692-171.923 128-384 128S0 966.692 0 896V128C0 57.308 171.923 0 384 0s384 57.308 384 128v768z m-32 0V128c0-6.167-5.174-14.595-17.984-24.69-16.027-12.631-40.836-24.872-72.606-35.462C577.36 45.165 483.982 32 384 32c-99.982 0-193.361 13.165-261.41 35.848-31.77 10.59-56.58 22.831-72.606 35.462C37.174 113.405 32 121.833 32 128v768c0 6.167 5.174 14.595 17.984 24.69 16.027 12.631 40.836 24.872 72.606 35.462C190.64 978.835 284.018 992 384 992c99.982 0 193.361-13.165 261.41-35.848 31.77-10.59 56.58-22.831 72.606-35.462C730.826 910.595 736 902.167 736 896z" fill="#333333" p-id="17168"></path><path d="M0 128c0 70.692 171.923 128 384 128s384-57.308 384-128v32c0 70.692-171.923 128-384 128S0 230.692 0 160v-32zM0 320c0 70.692 171.923 128 384 128s384-57.308 384-128v32c0 70.692-171.923 128-384 128S0 422.692 0 352v-32zM0 512c0 70.692 171.923 128 384 128s384-57.308 384-128v32c0 70.692-171.923 128-384 128S0 614.692 0 544v-32zM0 704c0 70.692 171.923 128 384 128s384-57.308 384-128v32c0 70.692-171.923 128-384 128S0 806.692 0 736v-32z" fill="#333333" p-id="17169"></path></svg>