<?xml version="1.0" standalone="no"?><!DOCTYPE svg PUBLIC "-//W3C//DTD SVG 1.1//EN" "http://www.w3.org/Graphics/SVG/1.1/DTD/svg11.dtd"><svg t="1658107861100" class="icon" viewBox="0 0 1024 1024" version="1.1" xmlns="http://www.w3.org/2000/svg" p-id="18341" xmlns:xlink="http://www.w3.org/1999/xlink" width="200" height="200"><defs><style type="text/css"></style></defs><path d="M280.5 662C174.923 662 0.057 648.29 0 591.946l0.057-46.06c0-48.403 51.546-99.538 140.562-132.938 67.38-25.283 64.32-63.592 64.32-94.298 0-30.706-32.088-48.066-40.863-63.426-8.776-15.36-29.216-54.93-29.216-100.214 0-59.912 22.123-102.847 59.882-129.076C220.244 8.22 257.993 0 280.5 0c22.507 0 60.256 8.22 85.758 25.934 37.759 26.229 59.882 69.164 59.882 129.076 0 45.283-20.44 84.855-29.216 100.214-8.775 15.36-40.864 32.72-40.864 63.426 0 30.706-3.06 69.015 64.321 94.298 89.016 33.4 140.562 84.535 140.562 132.938l0.057 46.06C560.943 648.29 386.077 662 280.5 662z" fill="#7FC8FF" p-id="18342"></path><path d="M743.5 662c-105.577 0-280.443-13.71-280.5-70.054l0.057-46.06c0-48.403 51.546-99.538 140.562-132.938 67.38-25.283 64.32-63.592 64.32-94.298 0-30.706-32.088-48.066-40.863-63.426-8.776-15.36-29.216-54.93-29.216-100.214 0-59.912 22.123-102.847 59.882-129.076C683.244 8.22 720.993 0 743.5 0c22.507 0 60.256 8.22 85.758 25.934 37.759 26.229 59.882 69.164 59.882 129.076 0 45.283-20.44 84.855-29.216 100.214-8.775 15.36-40.864 32.72-40.864 63.426 0 30.706-3.06 69.015 64.321 94.298 89.016 33.4 140.562 84.535 140.562 132.938l0.057 46.06C1023.943 648.29 849.077 662 743.5 662z" fill="#7FC8FF" p-id="18343"></path><path d="M280.5 662C174.923 662 0.057 648.29 0 591.946l0.057-46.06c0-48.403 51.546-99.538 140.562-132.938 67.38-25.283 64.32-63.592 64.32-94.298 0-30.706-32.088-48.066-40.863-63.426-8.776-15.36-29.216-54.93-29.216-100.214 0-59.912 22.123-102.847 59.882-129.076C220.244 8.22 257.993 0 280.5 0c22.507 0 60.256 8.22 85.758 25.934 37.759 26.229 59.882 69.164 59.882 129.076 0 45.283-20.44 84.855-29.216 100.214-8.775 15.36-40.864 32.72-40.864 63.426 0 30.706-3.06 69.015 64.321 94.298 89.016 33.4 140.562 84.535 140.562 132.938l0.057 46.06C560.943 648.29 386.077 662 280.5 662zM43.547 598.157c13.902 7.092 35.451 13.42 62.922 18.473C154.958 625.55 219.16 630 280.5 630c61.34 0 125.542-4.45 174.03-13.37 27.472-5.053 49.02-11.38 62.923-18.473 5.786-2.952 9.646-5.737 11.545-7.889l-0.055-44.382c0-14.43-8.74-31.457-27.039-48.99-21.153-20.268-52.957-39.052-92.764-53.988-47.525-17.832-73.475-44.833-81.828-81.05-2.829-12.263-3.336-21.36-3.262-39.465 0.008-1.929 0.01-2.738 0.01-3.743 0-14.295 3.962-27.487 11.078-39.703 5.117-8.784 11.26-16.276 19.546-24.77 2.149-2.203 9.658-9.62 11.104-11.117 1.305-1.351 2.261-2.406 2.932-3.222 0.237-0.29 0.413-0.517 0.527-0.676 5.718-10.031 10.989-21.054 15.422-33.535 6.072-17.093 9.47-34.172 9.47-50.617 0-48.102-16.139-81.956-46.137-102.794C330.854 40.304 300.826 32 280.5 32c-20.326 0-50.354 8.304-67.502 20.216C183 73.054 166.86 106.908 166.86 155.01c0 16.445 3.399 33.524 9.47 50.617 4.434 12.48 9.705 23.504 15.423 33.535 0.114 0.16 0.29 0.387 0.527 0.676 0.67 0.816 1.627 1.871 2.932 3.222 1.446 1.497 8.955 8.914 11.104 11.117 8.286 8.494 14.429 15.986 19.546 24.77 7.116 12.216 11.078 25.408 11.078 39.703 0 1.005 0.002 1.814 0.01 3.743 0.074 18.105-0.433 27.202-3.262 39.465-8.353 36.217-34.303 63.218-81.828 81.05-39.807 14.936-71.611 33.72-92.764 53.988-18.298 17.533-27.039 34.56-27.039 49.03l-0.055 44.342c1.899 2.152 5.759 4.937 11.545 7.89z" fill="#333333" p-id="18344"></path><path d="M743.5 662c-105.577 0-280.443-13.71-280.5-70.054l0.057-46.06c0-48.403 51.546-99.538 140.562-132.938 67.38-25.283 64.32-63.592 64.32-94.298 0-30.706-32.088-48.066-40.863-63.426-8.776-15.36-29.216-54.93-29.216-100.214 0-59.912 22.123-102.847 59.882-129.076C683.244 8.22 720.993 0 743.5 0c22.507 0 60.256 8.22 85.758 25.934 37.759 26.229 59.882 69.164 59.882 129.076 0 45.283-20.44 84.855-29.216 100.214-8.775 15.36-40.864 32.72-40.864 63.426 0 30.706-3.06 69.015 64.321 94.298 89.016 33.4 140.562 84.535 140.562 132.938l0.057 46.06C1023.943 648.29 849.077 662 743.5 662z m-236.953-63.843c13.902 7.092 35.451 13.42 62.922 18.473C617.958 625.55 682.16 630 743.5 630c61.34 0 125.542-4.45 174.03-13.37 27.472-5.053 49.02-11.38 62.923-18.473 5.786-2.952 9.646-5.737 11.545-7.889l-0.055-44.382c0-14.43-8.74-31.457-27.039-48.99-21.153-20.268-52.957-39.052-92.764-53.988-47.525-17.832-73.475-44.833-81.828-81.05-2.829-12.263-3.336-21.36-3.262-39.465 0.008-1.929 0.01-2.738 0.01-3.743 0-14.295 3.962-27.487 11.078-39.703 5.117-8.784 11.26-16.276 19.546-24.77 2.149-2.203 9.658-9.62 11.104-11.117 1.305-1.351 2.261-2.406 2.932-3.222 0.237-0.29 0.413-0.517 0.527-0.676 5.718-10.031 10.989-21.054 15.422-33.535 6.072-17.093 9.47-34.172 9.47-50.617 0-48.102-16.139-81.956-46.137-102.794C793.854 40.304 763.826 32 743.5 32c-20.326 0-50.354 8.304-67.502 20.216C646 73.054 629.86 106.908 629.86 155.01c0 16.445 3.399 33.524 9.47 50.617 4.434 12.48 9.705 23.504 15.423 33.535 0.114 0.16 0.29 0.387 0.527 0.676 0.67 0.816 1.627 1.871 2.932 3.222 1.446 1.497 8.955 8.914 11.104 11.117 8.286 8.494 14.429 15.986 19.546 24.77 7.116 12.216 11.078 25.408 11.078 39.703 0 1.005 0.002 1.814 0.01 3.743 0.074 18.105-0.433 27.202-3.262 39.465-8.353 36.217-34.303 63.218-81.828 81.05-39.807 14.936-71.611 33.72-92.764 53.988-18.298 17.533-27.039 34.56-27.039 49.03l-0.055 44.342c1.899 2.152 5.759 4.937 11.545 7.89z" fill="#333333" p-id="18345"></path><path d="M512 1024c-136.63 0-362.926-17.748-363-90.69l0.074-59.626c0-62.661 66.706-128.859 181.903-172.098 87.2-32.73 83.239-82.323 83.239-122.074 0-39.75-41.526-62.225-52.883-82.109-11.357-19.883-37.808-71.11-37.808-129.733 0-77.56 28.63-133.142 77.494-167.096C434.022 177.64 482.874 167 512 167c29.126 0 77.978 10.64 110.981 33.574 48.864 33.954 77.494 89.536 77.494 167.096 0 58.622-26.45 109.85-37.808 129.733-11.357 19.884-52.883 42.359-52.883 82.11 0 39.75-3.96 89.343 83.24 122.073 115.196 43.24 181.902 109.437 181.902 172.098L875 933.31c-0.074 72.941-226.37 90.689-363 90.689z" fill="#0091FF" p-id="18346"></path><path d="M512 1024c-136.63 0-362.926-17.748-363-90.69l0.074-59.626c0-62.661 66.706-128.859 181.903-172.098 87.2-32.73 83.239-82.323 83.239-122.074 0-39.75-41.526-62.225-52.883-82.109-11.357-19.883-37.808-71.11-37.808-129.733 0-77.56 28.63-133.142 77.494-167.096C434.022 177.64 482.874 167 512 167c29.126 0 77.978 10.64 110.981 33.574 48.864 33.954 77.494 89.536 77.494 167.096 0 58.622-26.45 109.85-37.808 129.733-11.357 19.884-52.883 42.359-52.883 82.11 0 39.75-3.96 89.343 83.24 122.073 115.196 43.24 181.902 109.437 181.902 172.098L875 933.31c-0.074 72.941-226.37 90.689-363 90.689z m226.917-49.463c36.368-6.692 65.057-15.12 84.001-24.787 8.582-4.38 14.564-8.72 17.87-12.542 1.803-2.082 2.211-3.078 2.212-3.858l-0.074-59.666c0-21.53-12.5-45.89-37.896-70.23-28.367-27.191-70.614-52.151-123.252-71.909-58.688-22.028-89.968-54.586-100.028-98.218-3.444-14.94-4.072-26.206-3.98-48.93 0.01-2.51 0.014-3.566 0.014-4.885 0-16.737 4.643-32.206 13.054-46.649 6.162-10.58 13.667-19.738 23.898-30.23 2.693-2.76 12.433-12.385 14.403-14.425 3.349-3.469 5.19-5.71 5.741-6.676 7.712-13.5 14.815-28.336 20.795-45.177 8.195-23.078 12.8-46.226 12.8-68.685 0-65.241-22.285-112.002-63.755-140.818C580.853 210.267 540.124 199 512 199c-28.124 0-68.853 11.267-92.72 27.852-41.47 28.816-63.755 75.577-63.755 140.818 0 22.459 4.605 45.607 12.8 68.685 5.98 16.841 13.083 31.676 20.795 45.177 0.551 0.965 2.392 3.207 5.741 6.676 1.97 2.04 11.71 11.664 14.403 14.426 10.23 10.49 17.736 19.648 23.898 30.23 8.41 14.442 13.054 29.91 13.054 46.648 0 1.319 0.003 2.374 0.013 4.884 0.093 22.725-0.535 33.99-3.98 48.93-10.06 43.633-41.34 76.19-100.027 98.22-52.638 19.757-94.885 44.717-123.252 71.907-25.396 24.342-37.896 48.7-37.896 70.27L181 933.278c0 0.852 0.409 1.848 2.211 3.93 3.307 3.821 9.289 8.162 17.871 12.542 18.944 9.667 47.633 18.095 84 24.787C348.475 986.2 432.095 992 512 992s163.526-5.799 226.917-17.463z" fill="#333333" p-id="18347"></path></svg>