<?xml version="1.0" standalone="no"?><!DOCTYPE svg PUBLIC "-//W3C//DTD SVG 1.1//EN" "http://www.w3.org/Graphics/SVG/1.1/DTD/svg11.dtd"><svg t="1658107821498" class="icon" viewBox="0 0 1024 1024" version="1.1" xmlns="http://www.w3.org/2000/svg" p-id="16723" xmlns:xlink="http://www.w3.org/1999/xlink" width="200" height="200"><defs><style type="text/css"></style></defs><path d="M237.65 513h578.292C877.885 512.762 928 462.47 928 400.5c0-62.132-50.368-112.5-112.5-112.5-4.072 0-8.11 0.215-12.108 0.641l-35.505 3.787 0.112-35.707L768 256c0-123.712-100.288-224-224-224-106.254 0-197.288 74.57-219.1 177.152l-7.383 34.722-33.773-10.933c-14.15-4.58-29.017-6.941-44.244-6.941C160.247 226 96 290.247 96 369.5c0 77.88 62.13 141.499 139.805 143.454l1.845 0.046z" fill="#FFFFFF" p-id="16724"></path><path d="M237.65 545h578.292C877.885 544.762 928 494.47 928 432.5c0-62.132-50.368-112.5-112.5-112.5-4.072 0-8.11 0.215-12.108 0.641l-35.505 3.787 0.112-35.707L768 288c0-123.712-100.288-224-224-224-106.254 0-197.288 74.57-219.1 177.152l-7.383 34.722-33.773-10.933c-14.15-4.58-29.017-6.941-44.244-6.941C160.247 258 96 322.247 96 401.5c0 77.88 62.13 141.499 139.805 143.454l1.845 0.046z" fill="#0091FF" p-id="16725"></path><path d="M64 369.5C64 272.574 142.574 194 239.5 194c18.878 0 37.06 2.98 54.1 8.497C318.2 86.795 420.964 0 544 0c141.385 0 256 114.615 256 256l-0.001 0.822A146.135 146.135 0 0 1 815.5 256c79.805 0 144.5 64.695 144.5 144.5 0 79.638-64.425 144.23-144 144.5H235v-0.057C140.154 542.556 64 464.921 64 369.5zM237.65 513h578.292C877.885 512.762 928 462.47 928 400.5c0-62.132-50.368-112.5-112.5-112.5-4.072 0-8.11 0.215-12.108 0.641l-35.505 3.787 0.112-35.707L768 256c0-123.712-100.288-224-224-224-106.254 0-197.288 74.57-219.1 177.152l-7.383 34.722-33.773-10.933c-14.15-4.58-29.017-6.941-44.244-6.941C160.247 226 96 290.247 96 369.5c0 77.88 62.13 141.499 139.805 143.454l1.845 0.046z" fill="#333333" p-id="16726"></path><path d="M448 512h128v320h96l-160 192-160-192h96zM803 512v288h29v-96l192 160-192 160v-96H675V512zM221 512v288h-29v-96L0 864l192 160v-96h157V512z" fill="#7FC8FF" p-id="16727"></path><path d="M576 512v320h96l-160 192-160-192h96V512h128z m-32 32h-64v320h-59.679L512 974.014 603.678 864H544V544zM803 512v288h29v-96l192 160-192 160v-96H675V512h128z m-32 32h-64v352h157v59.678L974.014 864 864 772.321V832h-93V544zM221 512v288h-29v-96L0 864l192 160v-96h157V512H221z m32 32h64v352H160v59.678L49.986 864 160 772.321V832h93V544z" fill="#333333" p-id="16728"></path></svg>