<?xml version="1.0" standalone="no"?><!DOCTYPE svg PUBLIC "-//W3C//DTD SVG 1.1//EN" "http://www.w3.org/Graphics/SVG/1.1/DTD/svg11.dtd"><svg t="1658110073600" class="icon" viewBox="0 0 1024 1024" version="1.1" xmlns="http://www.w3.org/2000/svg" p-id="12177" xmlns:xlink="http://www.w3.org/1999/xlink" width="200" height="200"><defs><style type="text/css"></style></defs><path d="M32 32v512h576V32z" fill="#7FC8FF" p-id="12178"></path><path d="M384 464h640v496H384z" fill="#FFFFFF" p-id="12179"></path><path d="M0 0h640v576H0V0z m32 32v512h576V32H32z" fill="#333333" p-id="12180"></path><path d="M373.052 448H194.073L113.396 308.263c-21.401-37.068-8.7-84.466 28.367-105.867 37.068-21.401 84.466-8.7 105.867 28.367L373.052 448z" fill="#0091FF" p-id="12181"></path><path d="M373.052 448H194.073L113.396 308.263c-21.401-37.068-8.7-84.466 28.367-105.867 37.068-21.401 84.466-8.7 105.867 28.367L373.052 448z m-55.426-32l-97.709-169.237c-12.564-21.762-40.392-29.219-62.154-16.654C136 242.673 128.544 270.5 141.109 292.263L212.549 416h105.077z" fill="#333333" p-id="12182"></path><path d="M71 416h384v32H71z" fill="#333333" p-id="12183"></path><path d="M229.332 329.607l198.875-149.634L359 72.6 135.73 206.133z" fill="#0091FF" p-id="12184"></path><path d="M229.332 329.607l198.875-149.634L359 72.6 135.73 206.133l93.602 123.474z m-46.525-114.343l166.06-99.317 36.32 56.348L235.57 284.867l-52.764-69.603z" fill="#333333" p-id="12185"></path><path d="M180.5 269.5m-77.5 0a77.5 77.5 0 1 0 155 0 77.5 77.5 0 1 0-155 0Z" fill="#7FC8FF" p-id="12186"></path><path d="M391 128m-64 0a64 64 0 1 0 128 0 64 64 0 1 0-128 0Z" fill="#7FC8FF" p-id="12187"></path><path d="M180.5 347c42.802 0 77.5-34.698 77.5-77.5S223.302 192 180.5 192 103 226.698 103 269.5 137.698 347 180.5 347z m0-32C155.371 315 135 294.629 135 269.5S155.371 224 180.5 224s45.5 20.371 45.5 45.5-20.371 45.5-45.5 45.5zM391 192c35.346 0 64-28.654 64-64 0-35.346-28.654-64-64-64-35.346 0-64 28.654-64 64 0 35.346 28.654 64 64 64z m0-32c-17.673 0-32-14.327-32-32 0-17.673 14.327-32 32-32 17.673 0 32 14.327 32 32 0 17.673-14.327 32-32 32z" fill="#333333" p-id="12188"></path><path d="M423 96h147v32H423z" fill="#333333" p-id="12189"></path><path d="M384 464h640v496H384z" fill="#FFFFFF" p-id="12190"></path><path d="M416 528v432h576V528z" fill="#0091FF" p-id="12191"></path><path d="M384 464h640v496H384V464z m32 32v432h576V496H416z" fill="#333333" p-id="12192"></path><path d="M688 938h32v63h-32z" fill="#333333" p-id="12193"></path><path d="M480 992h448v32H480z" fill="#333333" p-id="12194"></path><path d="M634.968 621.845l53.51 214.04c3.882 15.529 25.639 16.364 30.7 1.178l51.786-155.354 46.725 93.45A16 16 0 0 0 832 784.004h64v-32h-54.111L782.31 632.848c-6.375-12.75-24.982-11.427-29.49 2.096L706.196 774.82l-50.674-202.696c-3.602-14.41-23.19-16.561-29.833-3.275l-59.578 119.156H512v32h64a16 16 0 0 0 14.31-8.845l44.658-89.314z" fill="#FFFFFF" p-id="12195"></path><path d="M986.333 436c8.837 0 16-7.163 16-16 0-0.835-0.062-1.656-0.185-2.46l-0.12-0.78-0.042-0.788C995.202 289.011 890.033 189 762.333 189h-16v-48L661 205l85.333 64v-48h16C873.58 221 965 308.535 970.11 419.29l0.13 2.917c2.987 10.599 7.024 13.793 16.093 13.793zM48 601c9.07 0 13.106 3.194 16.093 13.793l0.13 2.917C69.333 728.465 160.754 816 272 816h16v-48l85.333 64L288 896v-48h-16C144.3 848 39.131 747.989 32.347 621.028l-0.042-0.788-0.12-0.78A16.249 16.249 0 0 1 32 617c0-8.837 7.163-16 16-16z" fill="#333333" p-id="12196"></path></svg>