<?xml version="1.0" standalone="no"?><!DOCTYPE svg PUBLIC "-//W3C//DTD SVG 1.1//EN" "http://www.w3.org/Graphics/SVG/1.1/DTD/svg11.dtd"><svg t="1658110081325" class="icon" viewBox="0 0 1024 1024" version="1.1" xmlns="http://www.w3.org/2000/svg" p-id="12491" xmlns:xlink="http://www.w3.org/1999/xlink" width="200" height="200"><defs><style type="text/css"></style></defs><path d="M896 320V128H128v192H0V0h1024v320z" fill="#7FC8FF" p-id="12492"></path><path d="M896 320v-32h96V32H32v256h96v32H0V0h1024v320z" fill="#333333" p-id="12493"></path><path d="M160 192h704v832H160z" fill="#0091FF" p-id="12494"></path><path d="M496 611.627v-96H336v-32h145.608l-128-128L376.235 333 512 468.765 647.765 333l22.627 22.627-128 128H688v32H528v96h160v32H528v176h-32v-176H336v-32z" fill="#FFFFFF" p-id="12495"></path><path d="M128 128h768v896H128V128z m32 32v832h704V160H160z" fill="#333333" p-id="12496"></path></svg>