<?xml version="1.0" standalone="no"?><!DOCTYPE svg PUBLIC "-//W3C//DTD SVG 1.1//EN" "http://www.w3.org/Graphics/SVG/1.1/DTD/svg11.dtd"><svg t="1658109974734" class="icon" viewBox="0 0 1024 1024" version="1.1" xmlns="http://www.w3.org/2000/svg" p-id="9016" xmlns:xlink="http://www.w3.org/1999/xlink" width="200" height="200"><defs><style type="text/css"></style></defs><path d="M1024 644.701v0.013c0 21.138-8.34 41.411-23.189 56.358L798.626 904.645c-15.765 15.757-37.376 24.116-57.917 23.017-0.318 0.023-149.638 0.092-447.958 0.184a24.269 24.269 0 0 0-16.174 6.182l-83.327 74.615c-24.114 21.615-61.069 19.46-82.54-4.819a58.886 58.886 0 0 1-8.907-13.387L5.918 792.335c-14.14-29.223-2.073-64.453 26.953-78.69a58.189 58.189 0 0 1 15.132-4.993l162.035-29.68a65.659 65.659 0 0 0 35.92-19.535l52.275-55.423c0.62-0.66 1.29-1.273 2.002-1.832 14.613-13.71 33.848-21.33 53.822-21.322H655.22c43.722-0.006 79.17 35.67 79.176 79.686a78.6 78.6 0 0 1-0.08 3.608c-1.888 42.896-39.581 76.104-83.145 76.104h-82.667c-7.726 0-13.99 6.304-13.99 14.083s6.264 14.086 13.99 14.086h141.47l178.87-180.078c30.91-31.127 81.035-31.132 111.955-0.013 14.852 14.951 23.195 35.23 23.192 56.375l0.009-0.01z" fill="#7FC8FF" p-id="9017"></path><path d="M1024 644.714c0 21.138-8.34 41.411-23.189 56.358L798.626 904.645c-15.765 15.757-37.376 24.116-57.917 23.017-0.318 0.023-149.638 0.092-447.958 0.184a24.269 24.269 0 0 0-16.174 6.182l-83.327 74.615c-24.114 21.615-61.069 19.46-82.54-4.819a58.886 58.886 0 0 1-8.907-13.387L5.918 792.335c-14.14-29.223-2.073-64.453 26.953-78.69a58.189 58.189 0 0 1 15.132-4.993l162.035-29.68a65.659 65.659 0 0 0 35.92-19.535l52.275-55.423c0.62-0.66 1.29-1.273 2.002-1.832 14.613-13.71 33.848-21.33 53.822-21.322H655.22c43.722-0.006 79.17 35.67 79.176 79.686a78.6 78.6 0 0 1-0.08 3.608c-1.888 42.896-39.581 76.104-83.145 76.104h-82.667c-7.726 0-13.99 6.304-13.99 14.083s6.264 14.086 13.99 14.086h141.47l178.87-180.078c30.91-31.127 81.035-31.132 111.955-0.013 14.852 14.951 23.195 35.23 23.192 56.375l0.009-0.01v0.013z m-32.009-0.007c0.002-12.7-5.004-24.869-13.893-33.816-18.404-18.524-48.15-18.52-66.551 0.009L723.293 800.427H568.504c-25.448 0-45.99-20.683-45.99-46.086 0-25.404 20.543-46.083 45.99-46.083h82.667c27.312 0 50.08-20.595 51.178-45.573a46.59 46.59 0 0 0 0.047-2.134c-0.004-26.391-21.17-47.694-47.176-47.69H354.043c-11.827-0.006-23.23 4.511-31.912 12.658l-1.037 0.972-0.278 0.218-51.578 54.683a97.665 97.665 0 0 1-53.435 29.056l-162.028 29.68a26.194 26.194 0 0 0-6.813 2.248c-13.192 6.47-18.723 22.62-12.24 36.018l95.893 198.12a26.885 26.885 0 0 0 4.066 6.111 26.192 26.192 0 0 0 37.222 2.179l83.35-74.635a56.262 56.262 0 0 1 37.488-14.323c140.898-0.044 255.756-0.084 335.726-0.118a536726.186 536726.186 0 0 0 105.11-0.055l5.279-0.006c-9.59 0.015 0.84-0.013-0.41 0.076l1.985-0.141 1.988 0.106c11.529 0.617 24.266-4.402 33.549-13.66l202.14-203.528c8.671-8.728 13.646-20.518 13.883-32.88v-0.933z" fill="#333333" p-id="9018"></path><path d="M32 64v416h461.255L512 498.745 530.745 480H992V64z" fill="#0091FF" p-id="9019"></path><path d="M0 0h1024v480H544l-32 32-32-32H0V0z m32 32v416h461.255L512 466.745 530.745 448H992V32H32z" fill="#333333" p-id="9020"></path><path d="M96 128h288v32H96v-32z m0 96h352v32H96v-32z m0 96h416v32H96v-32z m553.688-76.733l92.115 70.087 141.245-194.748 25.904 18.788-160.468 221.252-118.172-89.913 19.376-25.466z" fill="#FFFFFF" p-id="9021"></path></svg>