<?xml version="1.0" standalone="no"?><!DOCTYPE svg PUBLIC "-//W3C//DTD SVG 1.1//EN" "http://www.w3.org/Graphics/SVG/1.1/DTD/svg11.dtd"><svg t="1658110050848" class="icon" viewBox="0 0 1024 1024" version="1.1" xmlns="http://www.w3.org/2000/svg" p-id="11279" xmlns:xlink="http://www.w3.org/1999/xlink" width="200" height="200"><defs><style type="text/css"></style></defs><path d="M504 0h16v60.235h-16V0z m0 120.47h16v60.236h-16V120.47z m0 120.471h16v60.235h-16v-60.235z m0 120.47h16v60.236h-16v-60.235z m0 120.471h16v60.236h-16v-60.236z m0 120.47h16v60.236h-16v-60.235z m0 120.472h16v60.235h-16v-60.235z m0 120.47h16v60.235h-16v-60.235z m0 120.47h16V1024h-16v-60.235z" fill="#0091FF" p-id="11280"></path><path d="M640 0h320c35.346 0 64 28.654 64 64v768c0 35.346-28.654 64-64 64H640c-35.346 0-64-28.654-64-64V64c0-35.346 28.654-64 64-64z" fill="#00A0FF" p-id="11281"></path><path d="M64 0h320c35.346 0 64 28.654 64 64v768c0 35.346-28.654 64-64 64H64c-35.346 0-64-28.654-64-64V64C0 28.654 28.654 0 64 0z" fill="#7FC8FF" p-id="11282"></path><path d="M640 0h320c35.346 0 64 28.654 64 64v768c0 35.346-28.654 64-64 64H640c-35.346 0-64-28.654-64-64V64c0-35.346 28.654-64 64-64z m0 32c-17.673 0-32 14.327-32 32v768c0 17.673 14.327 32 32 32h320c17.673 0 32-14.327 32-32V64c0-17.673-14.327-32-32-32H640z" fill="#333333" p-id="11283"></path><path d="M64 0h320c35.346 0 64 28.654 64 64v768c0 35.346-28.654 64-64 64H64c-35.346 0-64-28.654-64-64V64C0 28.654 28.654 0 64 0z m0 32c-17.673 0-32 14.327-32 32v768c0 17.673 14.327 32 32 32h320c17.673 0 32-14.327 32-32V64c0-17.673-14.327-32-32-32H64z" fill="#647279" p-id="11284"></path><path d="M608 928h384c17.673 0 32 14.327 32 32v32c0 17.673-14.327 32-32 32H608c-17.673 0-32-14.327-32-32v-32c0-17.673 14.327-32 32-32z" fill="#00A0FF" p-id="11285"></path><path d="M32 928h384c17.673 0 32 14.327 32 32v32c0 17.673-14.327 32-32 32H32c-17.673 0-32-14.327-32-32v-32c0-17.673 14.327-32 32-32z" fill="#7FC8FF" p-id="11286"></path><path d="M608 928h384c17.673 0 32 14.327 32 32v32c0 17.673-14.327 32-32 32H608c-17.673 0-32-14.327-32-32v-32c0-17.673 14.327-32 32-32z m0 32v32h384v-32H608z" fill="#333333" p-id="11287"></path><path d="M32 928h384c17.673 0 32 14.327 32 32v32c0 17.673-14.327 32-32 32H32c-17.673 0-32-14.327-32-32v-32c0-17.673 14.327-32 32-32z m0 32v32h384v-32H32z" fill="#647279" p-id="11288"></path></svg>