<?xml version="1.0" standalone="no"?><!DOCTYPE svg PUBLIC "-//W3C//DTD SVG 1.1//EN" "http://www.w3.org/Graphics/SVG/1.1/DTD/svg11.dtd"><svg t="1658107806654" class="icon" viewBox="0 0 1024 1024" version="1.1" xmlns="http://www.w3.org/2000/svg" p-id="16278" xmlns:xlink="http://www.w3.org/1999/xlink" width="200" height="200"><defs><style type="text/css"></style></defs><path d="M0 0h896v896H0z" fill="#FFFFFF" p-id="16279"></path><path d="M0 0h896v896H0V0z m32 32v832h832V32H32z" fill="#333333" p-id="16280"></path><path d="M0 224h896v672H0z" fill="#0091FF" p-id="16281"></path><path d="M259.23 560l58.083 87.124c4.901 7.352 2.915 17.286-4.438 22.188-7.352 4.902-17.286 2.915-22.188-4.438l-64-96a16 16 0 0 1 0-17.75l64-96c4.902-7.352 14.836-9.34 22.188-4.438 7.353 4.902 9.34 14.836 4.438 22.188L259.23 560z m319.459-87.126c-4.902-7.352-2.915-17.286 4.437-22.188 7.353-4.901 17.287-2.914 22.189 4.438l64 96a16 16 0 0 1 0 17.75l-64 96c-4.902 7.353-14.836 9.34-22.189 4.438-7.352-4.902-9.339-14.836-4.437-22.188l58.083-87.125-58.083-87.125zM512 449.146c7.653 4.419 10.275 14.204 5.856 21.857l-112 193.99c-4.418 7.652-14.203 10.274-21.856 5.856-7.653-4.419-10.275-14.204-5.856-21.857l112-193.99c4.418-7.652 14.203-10.274 21.856-5.856z" fill="#FFFFFF" p-id="16282"></path><path d="M0 160h896v736H0V160z m32 32v672h832V192H32z" fill="#333333" p-id="16283"></path><path d="M96 95m-16 0a16 16 0 1 0 32 0 16 16 0 1 0-32 0Z" fill="#333333" p-id="16284"></path><path d="M176 95m-16 0a16 16 0 1 0 32 0 16 16 0 1 0-32 0Z" fill="#333333" p-id="16285"></path><path d="M736 736m-288 0a288 288 0 1 0 576 0 288 288 0 1 0-576 0Z" fill="#7FC8FF" p-id="16286"></path><path d="M736 1024c159.058 0 288-128.942 288-288S895.058 448 736 448 448 576.942 448 736s128.942 288 288 288z m0-32c-141.385 0-256-114.615-256-256s114.615-256 256-256 256 114.615 256 256-114.615 256-256 256z" fill="#333333" p-id="16287"></path><path d="M803.47 645.647a121.942 121.942 0 0 1 6.798 63.52l71.557 71.62c28.408 27.62 29.055 73.049 1.446 101.468-27.609 28.419-73.019 29.066-101.427 1.446-0.489-0.475-0.97-0.957-1.446-1.446l-71.795-71.824c-66.492 10.362-128.793-35.162-139.15-101.681a121.943 121.943 0 0 1 6.754-62.743l0.355-0.906c3.198-8.09 12.347-12.055 20.435-8.855 2.014 0.797 3.842 2 5.37 3.536l48.36 48.346c6.06 6.069 15.837 6.16 22.008 0.27l0.275-0.27 15.443-15.45c6.067-6.061 6.158-15.842 0.27-22.016l-0.27-0.275-48.19-48.176c-6.163-6.14-6.183-16.115-0.045-22.28a15.747 15.747 0 0 1 5.056-3.406l0.407-0.164c62.698-24.457 133.342 6.563 157.789 69.286z m-29.816 11.62c-14.602-37.466-51.552-59.59-89.633-57.063l-0.469 0.035 27.56 27.551c18.443 18.473 18.61 48.285 0.527 66.95l-0.554 0.562-15.47 15.475c-18.471 18.458-48.293 18.625-66.95 0.535l-0.562-0.553-27.827-27.819-0.056 0.759a89.94 89.94 0 0 0 0.725 19.291l0.126 0.836c7.563 48.567 52.664 81.954 101.135 75.204l1.47-0.217 16.065-2.504 83.45 83.484 0.16 0.164c0.263 0.27 0.53 0.538 0.8 0.801 15.733 15.297 40.877 14.938 56.168-0.801 15.145-15.59 14.945-40.42-0.333-55.765l-0.798-0.787-83.095-83.168 2.575-16.118a89.942 89.942 0 0 0-4.706-46.052l-0.308-0.8z" fill="#FFFFFF" p-id="16288"></path></svg>