<?xml version="1.0" standalone="no"?><!DOCTYPE svg PUBLIC "-//W3C//DTD SVG 1.1//EN" "http://www.w3.org/Graphics/SVG/1.1/DTD/svg11.dtd"><svg t="1658110044300" class="icon" viewBox="0 0 1024 1024" version="1.1" xmlns="http://www.w3.org/2000/svg" p-id="11130" xmlns:xlink="http://www.w3.org/1999/xlink" width="200" height="200"><defs><style type="text/css"></style></defs><path d="M52 32c-11.046 0-20 8.954-20 20v728c0 11.046 8.954 20 20 20h728c11.046 0 20-8.954 20-20V208c0-11.046-8.954-20-20-20H540.509a84 84 0 0 1-57.34-22.615l-137.03-128A20 20 0 0 0 332.487 32H52z" fill="#7FC8FF" p-id="11131"></path><path d="M52 0h280.487a52 52 0 0 1 35.496 14l137.03 128a52 52 0 0 0 35.496 14H780c28.719 0 52 23.281 52 52v572c0 28.719-23.281 52-52 52H52c-28.719 0-52-23.281-52-52V52C0 23.281 23.281 0 52 0z m0 32c-11.046 0-20 8.954-20 20v728c0 11.046 8.954 20 20 20h728c11.046 0 20-8.954 20-20V208c0-11.046-8.954-20-20-20H540.509a84 84 0 0 1-57.34-22.615l-137.03-128A20 20 0 0 0 332.487 32H52z" fill="#333333" p-id="11132"></path><path d="M736 1024c159.058 0 288-128.942 288-288S895.058 448 736 448 448 576.942 448 736s128.942 288 288 288z" fill="#0091FF" p-id="11133"></path><path d="M736 1024c159.058 0 288-128.942 288-288S895.058 448 736 448 448 576.942 448 736s128.942 288 288 288z m0-32c-141.385 0-256-114.615-256-256s114.615-256 256-256 256 114.615 256 256-114.615 256-256 256z" fill="#333333" p-id="11134"></path><path d="M883.786 736c0-11.602 7.202-21.83 17.949-25.956l13.28-5.099-3.51-13.786a180.093 180.093 0 0 0-19.675-47.54l-7.261-12.233-12.999 5.78c-10.533 4.684-22.832 2.538-31.027-5.679-8.21-8.21-10.356-20.55-5.679-31.045l5.803-13.02-12.266-7.262a180.821 180.821 0 0 0-47.56-19.665l-13.76-3.504-5.114 13.246c-4.158 10.768-14.395 17.977-25.967 17.977-11.602 0-21.83-7.202-25.956-17.949l-5.099-13.28-13.786 3.51a180.093 180.093 0 0 0-47.54 19.675l-12.233 7.261 5.78 12.999c4.683 10.532 2.542 22.842-5.658 31.042-8.195 8.195-20.546 10.349-31.058 5.687l-12.965-5.75-7.263 12.183a178.995 178.995 0 0 0-19.727 47.567l-3.504 13.76 13.246 5.114c10.768 4.158 17.977 14.395 17.977 25.967 0 11.602-7.202 21.83-17.949 25.956l-13.28 5.099 3.51 13.786a180.093 180.093 0 0 0 19.675 47.54l7.261 12.233 12.999-5.78c10.533-4.684 22.832-2.538 31.027 5.679 8.21 8.21 10.356 20.55 5.679 31.045l-5.803 13.02 12.266 7.262a180.821 180.821 0 0 0 47.56 19.665l13.76 3.504 5.114-13.246c4.158-10.768 14.395-17.977 25.967-17.977 11.602 0 21.83 7.202 25.956 17.949l5.099 13.28 13.786-3.51a180.093 180.093 0 0 0 47.54-19.675l12.233-7.261-5.78-12.999c-4.683-10.532-2.542-22.842 5.658-31.042 8.195-8.195 20.546-10.349 31.058-5.687l12.965 5.75 7.263-12.183a178.995 178.995 0 0 0 19.727-47.567l3.51-13.786-13.28-5.099c-10.747-4.126-17.95-14.354-17.95-25.956z m-13.668 65.253c-18.703-3.151-38.263 2.658-52.253 16.648-13.995 13.995-19.797 33.534-16.63 52.238a147.93 147.93 0 0 1-16.525 6.838c-10.982-15.466-28.908-25.191-48.71-25.191-19.78 0-37.699 9.729-48.696 25.196a148.612 148.612 0 0 1-16.571-6.852c3.16-18.691-2.647-38.242-16.634-52.23-13.98-14.018-33.524-19.834-52.238-16.665a147.93 147.93 0 0 1-6.838-16.525c15.466-10.982 25.191-28.908 25.191-48.71 0-19.78-9.729-37.698-25.195-48.695a146.811 146.811 0 0 1 6.863-16.558c18.703 3.151 38.263-2.658 52.253-16.648 13.995-13.995 19.797-33.534 16.63-52.238a147.93 147.93 0 0 1 16.525-6.838c10.982 15.466 28.908 25.191 48.71 25.191 19.78 0 37.699-9.729 48.696-25.196a148.612 148.612 0 0 1 16.571 6.852c-3.16 18.691 2.647 38.242 16.634 52.23 13.98 14.018 33.524 19.834 52.238 16.665a147.93 147.93 0 0 1 6.838 16.525c-15.466 10.982-25.191 28.908-25.191 48.71s9.725 37.728 25.19 48.71a146.81 146.81 0 0 1-6.858 16.543z" fill="#FFFFFF" p-id="11135"></path><path d="M736 812c-41.963 0-76-34.037-76-76s34.037-76 76-76 76 34.037 76 76-34.037 76-76 76z m0-32c24.29 0 44-19.71 44-44s-19.71-44-44-44-44 19.71-44 44 19.71 44 44 44z" fill="#FFFFFF" p-id="11136"></path></svg>