<?xml version="1.0" standalone="no"?><!DOCTYPE svg PUBLIC "-//W3C//DTD SVG 1.1//EN" "http://www.w3.org/Graphics/SVG/1.1/DTD/svg11.dtd"><svg t="1658110026738" class="icon" viewBox="0 0 1024 1024" version="1.1" xmlns="http://www.w3.org/2000/svg" p-id="10527" xmlns:xlink="http://www.w3.org/1999/xlink" width="200" height="200"><defs><style type="text/css"></style></defs><path d="M207.846 0l207.846 120v240L207.846 480 0 360V120zM815.846 0l207.846 120v240L815.846 480 608 360V120zM207.846 544l207.846 120v240l-207.846 120L0 904V664zM815.846 544l207.846 120v240l-207.846 120L608 904V664z" fill="#7FC8FF" p-id="10528"></path><path d="M207.846 0l207.846 120v240L207.846 480 0 360V120L207.846 0z m0 36.95L32 138.475v203.05L207.846 443.05l175.846-101.525v-203.05L207.846 36.95zM815.846 0l207.846 120v240L815.846 480 608 360V120L815.846 0zM640 138.475v203.05L815.846 443.05l175.846-101.525v-203.05L815.846 36.95 640 138.475zM207.846 544l207.846 120v240l-207.846 120L0 904V664l207.846-120zM32 682.475v203.05L207.846 987.05l175.846-101.525v-203.05L207.846 580.95 32 682.475zM815.846 544l207.846 120v240l-207.846 120L608 904V664l207.846-120zM640 682.475v203.05L815.846 987.05l175.846-101.525v-203.05L815.846 580.95 640 682.475z" fill="#333333" p-id="10529"></path><path d="M512 228.955L267 370.47v283.058l245 141.516L757 653.53V370.471z" fill="#FFFFFF" p-id="10530"></path><path d="M512 266L267 407.516v283.058l245 141.517 245-141.517V407.516z" fill="#0091FF" p-id="10531"></path><path d="M512 192l277 160v320L512 832 235 672V352l277-160z m0 36.955L267 370.47v283.058l245 141.516L757 653.53V370.471L512 228.955z" fill="#333333" p-id="10532"></path></svg>