<?xml version="1.0" standalone="no"?><!DOCTYPE svg PUBLIC "-//W3C//DTD SVG 1.1//EN" "http://www.w3.org/Graphics/SVG/1.1/DTD/svg11.dtd"><svg t="1658110084674" class="icon" viewBox="0 0 1024 1024" version="1.1" xmlns="http://www.w3.org/2000/svg" p-id="12639" xmlns:xlink="http://www.w3.org/1999/xlink" width="200" height="200"><defs><style type="text/css"></style></defs><path d="M832 448h128c35.346 0 64 28.654 64 64v315.077c0 35.346-28.654 64-64 64h-24.615L891.077 1024 757.532 891.077H512c-35.346 0-64-28.654-64-64V640h32v187.077c0 17.673 14.327 32 32 32h258.743L877.05 964.889l35.27-105.812H960c17.673 0 32-14.327 32-32V512c0-17.673-14.327-32-32-32H832v-32z" fill="#979797" p-id="12640"></path><path d="M832 448h128c35.346 0 64 28.654 64 64v315.077c0 35.346-28.654 64-64 64h-24.615L891.077 1024 757.532 891.077H512c-35.346 0-64-28.654-64-64V640h32v187.077c0 17.673 14.327 32 32 32h258.743L877.05 964.889l35.27-105.812H960c17.673 0 32-14.327 32-32V512c0-17.673-14.327-32-32-32H832v-32z" fill="#333333" p-id="12641"></path><path d="M480 608h288c17.673 0 32-14.327 32-32v-96h160c17.673 0 32 14.327 32 32v315.077c0 17.673-14.327 32-32 32h-47.68l-35.27 105.812-106.307-105.812H512c-17.673 0-32-14.327-32-32V608z" fill="#7FC8FF" p-id="12642"></path><path d="M206.027 802.889L371.687 638H768c17.673 0 32-14.327 32-32V94c0-17.673-14.327-32-32-32H64c-17.673 0-32 14.327-32 32v512c0 17.673 14.327 32 32 32h87.064l54.963 164.889z" fill="#0091FF" p-id="12643"></path><path d="M64 0h704c35.346 0 64 28.654 64 64v512c0 35.346-28.654 64-64 64H384.899L192 832l-64-192H64c-35.346 0-64-28.654-64-64V64C0 28.654 28.654 0 64 0z m142.027 772.889L371.687 608H768c17.673 0 32-14.327 32-32V64c0-17.673-14.327-32-32-32H64c-17.673 0-32 14.327-32 32v512c0 17.673 14.327 32 32 32h87.064l54.963 164.889z" fill="#333333" p-id="12644"></path><path d="M227.23 319.853l58.083 87.125c4.901 7.352 2.915 17.286-4.438 22.188-7.352 4.901-17.286 2.915-22.188-4.438l-64-96a16 16 0 0 1 0-17.75l64-96c4.902-7.353 14.836-9.34 22.188-4.438 7.353 4.902 9.34 14.836 4.438 22.188l-58.083 87.125z m319.459-87.125c-4.902-7.352-2.915-17.286 4.437-22.188 7.353-4.901 17.287-2.915 22.189 4.438l64 96a16 16 0 0 1 0 17.75l-64 96c-4.902 7.353-14.836 9.34-22.189 4.438-7.352-4.902-9.339-14.836-4.437-22.188l58.083-87.125-58.083-87.125zM480 209c7.653 4.418 10.275 14.204 5.856 21.856l-112 193.99c-4.418 7.653-14.203 10.275-21.856 5.857-7.653-4.419-10.275-14.204-5.856-21.857l112-193.99c4.418-7.652 14.203-10.274 21.856-5.856z" fill="#FFFFFF" p-id="12645"></path></svg>