<?xml version="1.0" standalone="no"?><!DOCTYPE svg PUBLIC "-//W3C//DTD SVG 1.1//EN" "http://www.w3.org/Graphics/SVG/1.1/DTD/svg11.dtd"><svg t="1658107864880" class="icon" viewBox="0 0 1024 1024" version="1.1" xmlns="http://www.w3.org/2000/svg" p-id="18486" xmlns:xlink="http://www.w3.org/1999/xlink" width="200" height="200"><defs><style type="text/css"></style></defs><path d="M512 99.845l-416 208v408.446l416 208 416-208V307.845z" fill="#0091FF" p-id="18487"></path><path d="M512 64l448 224v448L512 960 64 736V288L512 64z m0 35.777l-416 208v408.446l416 208 416-208V307.777l-416-208z" fill="#333333" p-id="18488"></path><path d="M496 486.321V70h32v416.321l392.95-192.907 14.1 28.726L548.308 512l386.744 189.86-14.102 28.726L528 537.679V939h-32V537.679L103.05 730.586l-14.1-28.726L475.692 512 88.949 322.14l14.102-28.726z" fill="#FFFFFF" p-id="18489"></path><path d="M512 96m-96 0a96 96 0 1 0 192 0 96 96 0 1 0-192 0Z" fill="#7FC8FF" p-id="18490"></path><path d="M512 192c53.02 0 96-42.98 96-96S565.02 0 512 0 416 42.98 416 96s42.98 96 96 96z m0-32c-35.346 0-64-28.654-64-64 0-35.346 28.654-64 64-64 35.346 0 64 28.654 64 64 0 35.346-28.654 64-64 64z" fill="#333333" p-id="18491"></path><path d="M96 298m-96 0a96 96 0 1 0 192 0 96 96 0 1 0-192 0Z" fill="#7FC8FF" p-id="18492"></path><path d="M96 394c53.02 0 96-42.98 96-96S149.02 202 96 202 0 244.98 0 298s42.98 96 96 96z m0-32c-35.346 0-64-28.654-64-64 0-35.346 28.654-64 64-64 35.346 0 64 28.654 64 64 0 35.346-28.654 64-64 64z" fill="#333333" p-id="18493"></path><path d="M96 727m-96 0a96 96 0 1 0 192 0 96 96 0 1 0-192 0Z" fill="#7FC8FF" p-id="18494"></path><path d="M96 823c53.02 0 96-42.98 96-96S149.02 631 96 631 0 673.98 0 727s42.98 96 96 96z m0-32c-35.346 0-64-28.654-64-64 0-35.346 28.654-64 64-64 35.346 0 64 28.654 64 64 0 35.346-28.654 64-64 64z" fill="#333333" p-id="18495"></path><path d="M928 727m-96 0a96 96 0 1 0 192 0 96 96 0 1 0-192 0Z" fill="#7FC8FF" p-id="18496"></path><path d="M928 823c53.02 0 96-42.98 96-96S981.02 631 928 631 832 673.98 832 727s42.98 96 96 96z m0-32c-35.346 0-64-28.654-64-64 0-35.346 28.654-64 64-64 35.346 0 64 28.654 64 64 0 35.346-28.654 64-64 64z" fill="#333333" p-id="18497"></path><path d="M928 298m-96 0a96 96 0 1 0 192 0 96 96 0 1 0-192 0Z" fill="#7FC8FF" p-id="18498"></path><path d="M928 394c53.02 0 96-42.98 96-96S981.02 202 928 202 832 244.98 832 298s42.98 96 96 96z m0-32c-35.346 0-64-28.654-64-64 0-35.346 28.654-64 64-64 35.346 0 64 28.654 64 64 0 35.346-28.654 64-64 64z" fill="#333333" p-id="18499"></path><path d="M512 512m-96 0a96 96 0 1 0 192 0 96 96 0 1 0-192 0Z" fill="#7FC8FF" p-id="18500"></path><path d="M512 608c53.02 0 96-42.98 96-96S565.02 416 512 416 416 458.98 416 512s42.98 96 96 96z m0-32c-35.346 0-64-28.654-64-64 0-35.346 28.654-64 64-64 35.346 0 64 28.654 64 64 0 35.346-28.654 64-64 64z" fill="#333333" p-id="18501"></path><path d="M512 928m-96 0a96 96 0 1 0 192 0 96 96 0 1 0-192 0Z" fill="#7FC8FF" p-id="18502"></path><path d="M512 1024c53.02 0 96-42.98 96-96S565.02 832 512 832 416 874.98 416 928s42.98 96 96 96z m0-32c-35.346 0-64-28.654-64-64 0-35.346 28.654-64 64-64 35.346 0 64 28.654 64 64 0 35.346-28.654 64-64 64z" fill="#333333" p-id="18503"></path></svg>