<?xml version="1.0" standalone="no"?><!DOCTYPE svg PUBLIC "-//W3C//DTD SVG 1.1//EN" "http://www.w3.org/Graphics/SVG/1.1/DTD/svg11.dtd"><svg t="1658107858098" class="icon" viewBox="0 0 1024 1024" version="1.1" xmlns="http://www.w3.org/2000/svg" p-id="18195" xmlns:xlink="http://www.w3.org/1999/xlink" width="200" height="200"><defs><style type="text/css"></style></defs><path d="M512 512m-512 0a512 512 0 1 0 1024 0 512 512 0 1 0-1024 0Z" fill="#7FC8FF" p-id="18196"></path><path d="M512 512m-448 0a448 448 0 1 0 896 0 448 448 0 1 0-896 0Z" fill="#0091FF" p-id="18197"></path><path d="M512 960c247.424 0 448-200.576 448-448S759.424 64 512 64 64 264.576 64 512s200.576 448 448 448z m0-32C282.25 928 96 741.75 96 512S282.25 96 512 96s416 186.25 416 416-186.25 416-416 416z" fill="#333333" p-id="18198"></path><path d="M512 512m-128 0a128 128 0 1 0 256 0 128 128 0 1 0-256 0Z" fill="#FFFFFF" p-id="18199"></path><path d="M512 672c88.366 0 160-71.634 160-160s-71.634-160-160-160-160 71.634-160 160 71.634 160 160 160z m0-32c-70.692 0-128-57.308-128-128 0-70.692 57.308-128 128-128 70.692 0 128 57.308 128 128 0 70.692-57.308 128-128 128z" fill="#333333" p-id="18200"></path><path d="M683.844 98.142a446.187 446.187 0 0 1 49.405 24.214c-157.114 17.222-286.336 127.17-331.763 273.943-30.314 28.964-49.264 69.72-49.484 114.906 0.603-202.047 142.362-370.88 331.842-413.063zM352.004 513H352a487.261 487.261 0 0 1 0-0.81l0.003 0.81z m574.503-171.983a446.186 446.186 0 0 1 17.813 52.056c-123.274-98.918-292.393-112.547-428.299-40.885-41.916-0.955-84.135 14.465-116.241 46.26 143.295-142.442 362.916-161.585 526.728-57.431z m-0.149 343.327a446.187 446.187 0 0 1-24.214 49.405c-17.222-157.114-127.17-286.336-273.943-331.763-28.964-30.314-69.72-49.264-114.906-49.484 202.047 0.603 370.88 142.362 413.063 331.842zM683.483 927.007a446.186 446.186 0 0 1-52.056 17.813c98.918-123.274 112.547-292.393 40.885-428.299 0.955-41.916-14.465-84.135-46.26-116.241 142.442 143.295 161.585 362.916 57.431 526.728z m-343.327-0.149a446.187 446.187 0 0 1-49.405-24.214c157.114-17.222 286.336-127.17 331.763-273.943 30.314-28.964 49.264-69.72 49.484-114.906-0.603 202.047-142.362 370.88-331.842 413.063zM97.493 683.983a446.186 446.186 0 0 1-17.813-52.056c123.274 98.918 292.393 112.547 428.299 40.885 41.916 0.955 84.135-14.465 116.241-46.26-143.295 142.442-362.916 161.585-526.728 57.431z m0.149-343.327a446.187 446.187 0 0 1 24.214-49.405c17.222 157.114 127.17 286.336 273.943 331.763 28.964 30.314 69.72 49.264 114.906 49.484-202.047-0.603-370.88-142.362-413.063-331.842zM340.517 97.993a446.186 446.186 0 0 1 52.056-17.813c-98.918 123.274-112.547 292.393-40.885 428.299-0.955 41.916 14.465 84.135 46.26 116.241-142.442-143.295-161.585-362.916-57.431-526.728z m57.995 301.726l-0.002-0.002a484.917 484.917 0 0 1 0.572-0.573l-0.57 0.575zM511.5 352.503v-0.003a487.261 487.261 0 0 1 0.81 0l-0.81 0.003z m113.281 46.509l0.002-0.002a484.917 484.917 0 0 1 0.573 0.572l-0.575-0.57zM671.997 512H672a487.261 487.261 0 0 1 0 0.81l-0.003-0.81z m-46.509 113.281l0.002 0.002a484.917 484.917 0 0 1-0.572 0.573l0.57-0.575zM512.5 672.497v0.003a487.261 487.261 0 0 1-0.81 0l0.81-0.003z m-113.281-46.509l-0.002 0.002a484.917 484.917 0 0 1-0.573-0.572l0.575 0.57z" fill="#333333" p-id="18201"></path><path d="M512 1024c282.77 0 512-229.23 512-512S794.77 0 512 0 0 229.23 0 512s229.23 512 512 512z m0-32C246.903 992 32 777.097 32 512S246.903 32 512 32s480 214.903 480 480-214.903 480-480 480z" fill="#333333" p-id="18202"></path></svg>