<?xml version="1.0" standalone="no"?><!DOCTYPE svg PUBLIC "-//W3C//DTD SVG 1.1//EN" "http://www.w3.org/Graphics/SVG/1.1/DTD/svg11.dtd"><svg t="1658110006374" class="icon" viewBox="0 0 1024 1024" version="1.1" xmlns="http://www.w3.org/2000/svg" p-id="9782" xmlns:xlink="http://www.w3.org/1999/xlink" width="200" height="200"><defs><style type="text/css"></style></defs><path d="M32 64v960h736V64z" fill="#0091FF" p-id="9783"></path><path d="M0 0h768v1024H0V0z m32 32v960h704V32H32z" fill="#333333" p-id="9784"></path><path d="M80 192c-8.837 0-16-7.163-16-16s7.163-16 16-16 16 7.163 16 16-7.163 16-16 16z m480 0c-8.837 0-16-7.163-16-16s7.163-16 16-16 16 7.163 16 16-7.163 16-16 16z m-416 0c-8.837 0-16-7.163-16-16s7.163-16 16-16 16 7.163 16 16-7.163 16-16 16z m480 0c-8.837 0-16-7.163-16-16s7.163-16 16-16 16 7.163 16 16-7.163 16-16 16z m-416 0c-8.837 0-16-7.163-16-16s7.163-16 16-16 16 7.163 16 16-7.163 16-16 16z m480 0c-8.837 0-16-7.163-16-16s7.163-16 16-16 16 7.163 16 16-7.163 16-16 16z m-368-32h128c8.837 0 16 7.163 16 16s-7.163 16-16 16H320c-8.837 0-16-7.163-16-16s7.163-16 16-16zM80 512c-8.837 0-16-7.163-16-16s7.163-16 16-16 16 7.163 16 16-7.163 16-16 16z m480 0c-8.837 0-16-7.163-16-16s7.163-16 16-16 16 7.163 16 16-7.163 16-16 16z m-416 0c-8.837 0-16-7.163-16-16s7.163-16 16-16 16 7.163 16 16-7.163 16-16 16z m480 0c-8.837 0-16-7.163-16-16s7.163-16 16-16 16 7.163 16 16-7.163 16-16 16z m-416 0c-8.837 0-16-7.163-16-16s7.163-16 16-16 16 7.163 16 16-7.163 16-16 16z m480 0c-8.837 0-16-7.163-16-16s7.163-16 16-16 16 7.163 16 16-7.163 16-16 16z m-368-32h128c8.837 0 16 7.163 16 16s-7.163 16-16 16H320c-8.837 0-16-7.163-16-16s7.163-16 16-16z" fill="#FFFFFF" p-id="9785"></path><path d="M16 320h736v32H16zM16 640h736v32H16z" fill="#333333" p-id="9786"></path><path d="M80 832c-8.837 0-16-7.163-16-16s7.163-16 16-16 16 7.163 16 16-7.163 16-16 16z m64 0c-8.837 0-16-7.163-16-16s7.163-16 16-16 16 7.163 16 16-7.163 16-16 16z m64 0c-8.837 0-16-7.163-16-16s7.163-16 16-16 16 7.163 16 16-7.163 16-16 16z m112-32h128c8.837 0 16 7.163 16 16s-7.163 16-16 16H320c-8.837 0-16-7.163-16-16s7.163-16 16-16z" fill="#FFFFFF" p-id="9787"></path><path d="M808.319 1012.913c-8.452-8.996-35.137-32.36-56.993-32.36-21.673 0-48.78 23.485-56.569 31.756-6.159 6.52-15.697 10.445-25.417 10.445-4.65 0-9.056-0.846-13.041-2.597l-67.136-36.464c-12.739-8.635-17.327-24.754-11.35-37.915 0.06-0.121 6.097-13.766 6.097-26.203 0-37.794-31.575-68.524-70.395-68.524h-2.777c-11.109 0-20.165-9.6-23.063-24.511-0.241-1.208-5.675-29.402-5.675-51.62 0-22.217 5.435-50.472 5.674-51.62 2.96-15.092 12.197-24.753 23.487-24.45h2.354c38.82 0 70.395-30.73 70.395-68.524 0-12.437-6.097-26.082-6.157-26.203-5.977-13.1-1.329-29.22 10.807-37.432l70.758-37.914c4.648-1.932 8.995-2.777 13.583-2.777 9.72 0 19.26 3.803 25.478 10.203 8.272 8.452 34.534 30.43 55.724 30.43 21.011 0 47.093-21.555 55.364-29.826 6.217-6.279 15.636-10.022 25.296-10.022 4.648 0 9.056 0.845 13.101 2.536l68.403 36.888c12.8 8.694 17.388 24.814 11.41 37.974-0.06 0.121-6.097 13.767-6.097 26.203 0 37.794 31.575 68.524 70.396 68.524h2.355c11.288-0.242 20.587 9.419 23.485 24.451 0.24 1.207 5.674 29.402 5.674 51.62 0 22.217-5.433 50.472-5.674 51.619-2.959 15.093-12.196 24.693-23.486 24.451h-2.354c-38.82 0-70.396 30.73-70.396 68.524 0 12.438 6.098 26.082 6.159 26.203 5.977 13.1 1.388 29.22-10.748 37.432l-69.49 37.491c-4.709 1.992-9.056 2.838-13.583 2.838-9.841 0-19.44-3.984-25.6-10.626z" fill="#7FC8FF" p-id="9788"></path><path d="M751.082 980.06c-21.653 0-48.737 23.46-56.518 31.722-6.153 6.514-15.683 10.435-25.394 10.435-4.645 0-9.048-0.846-13.03-2.595l-67.074-36.425c-12.727-8.625-17.312-24.727-11.34-37.874 0.06-0.12 6.092-13.75 6.092-26.174 0-37.753-31.546-68.45-70.331-68.45h-2.775c-11.099 0-20.146-9.589-23.042-24.485-0.241-1.206-5.67-29.37-5.67-51.563s5.43-50.417 5.67-51.564c2.955-15.077 12.185-24.726 23.464-24.425h2.353c38.785 0 70.331-30.696 70.331-68.449 0-12.424-6.092-26.053-6.152-26.174-5.972-13.087-1.327-29.19 10.797-37.392l70.694-37.873c4.644-1.93 8.987-2.774 13.571-2.774 9.712 0 19.242 3.8 25.455 10.192 8.265 8.443 34.502 30.396 55.674 30.396 20.992 0 47.05-21.53 55.313-29.793 6.212-6.271 15.622-10.01 25.274-10.01 4.644 0 9.047 0.844 13.089 2.532l68.34 36.848c12.788 8.685 17.373 24.787 11.401 37.934-0.06 0.12-6.092 13.751-6.092 26.174 0 37.753 31.546 68.45 70.332 68.45h2.353c11.278-0.242 20.568 9.408 23.464 24.425 0.24 1.205 5.669 29.37 5.669 51.563 0 22.194-5.429 50.418-5.67 51.563-2.956 15.078-12.184 24.667-23.464 24.425h-2.352c-38.786 0-70.332 30.697-70.332 68.45 0 12.424 6.092 26.054 6.153 26.174 5.972 13.087 1.387 29.19-10.737 37.392l-69.428 37.45c-4.705 1.99-9.047 2.835-13.57 2.835-9.833 0-19.423-3.98-25.577-10.614-8.444-8.986-35.105-32.325-56.94-32.325z m80.606 10.598a5.172 5.172 0 0 0 1.911 0.377c0.104 0 0.185-0.002 0.268-0.014l63.571-34.292c-1.193-2.857-2.593-6.685-3.76-10.481-2.767-8.993-4.467-17.988-4.467-27.099 0-53.84 43.176-97.564 96.987-100.281l0.01-0.054c0.179-0.966 0.383-2.109 0.602-3.38 0.608-3.533 1.217-7.41 1.78-11.451 1.532-11.019 2.439-21.253 2.439-29.272 0-8.016-0.906-18.233-2.44-29.246a365.009 365.009 0 0 0-1.78-11.457 284.69 284.69 0 0 0-0.614-3.454c-53.81-2.719-96.984-46.443-96.984-100.281 0-9.076 1.678-18.044 4.41-27.013 1.193-3.917 2.626-7.854 3.822-10.716l-62.666-33.787a5.996 5.996 0 0 0-2.476 0.396c-0.233 0.092-0.419 0.186-0.545 0.266-7.1 7.096-17.618 15.598-28.411 22.406-16.488 10.4-32.767 16.729-49.488 16.729-16.885 0-33.304-6.46-49.896-17.065-10.87-6.947-21.467-15.64-28.548-22.86a3.477 3.477 0 0 0-0.518-0.25 6.04 6.04 0 0 0-2.167-0.414c-0.161 0-0.286 0.005-0.417 0.027l-64.732 34.679c1.176 2.822 2.57 6.631 3.744 10.444 2.766 8.993 4.466 17.987 4.466 27.098 0 53.84-43.176 97.564-96.987 100.28l-0.01 0.052c-0.179 0.968-0.383 2.11-0.602 3.381a362.831 362.831 0 0 0-1.779 11.454c-1.533 11.019-2.44 21.253-2.44 29.271 0 8.016 0.906 18.234 2.44 29.245 0.561 4.035 1.17 7.905 1.78 11.457a283.6 283.6 0 0 0 0.626 3.515c53.803 2.725 96.972 46.447 96.972 100.281 0 9.076-1.678 18.044-4.41 27.013-1.192 3.911-2.622 7.843-3.817 10.703l61.476 33.385 0.132 0.001c0.613 0 1.298-0.136 1.875-0.373a3.17 3.17 0 0 0 0.44-0.217c6.86-7.24 17.572-16.286 28.522-23.514 16.975-11.204 33.753-18.052 51.075-18.052 17.44 0 34.277 6.876 51.214 18.153 11.06 7.364 21.79 16.555 28.992 24.213 0.095 0.057 0.23 0.126 0.4 0.197z" fill="#333333" p-id="9789"></path><path d="M652.828 774.75c0-55.075 44.835-99.9 99.9-99.9 55.064 0 99.9 44.825 99.9 99.9 0 55.074-44.836 99.9-99.9 99.9-55.065 0-99.9-44.826-99.9-99.9z m32 0c0 37.397 30.504 67.9 67.9 67.9 37.395 0 67.9-30.503 67.9-67.9 0-37.398-30.505-67.9-67.9-67.9-37.396 0-67.9 30.502-67.9 67.9z" fill="#333333" p-id="9790"></path></svg>