<?xml version="1.0" standalone="no"?><!DOCTYPE svg PUBLIC "-//W3C//DTD SVG 1.1//EN" "http://www.w3.org/Graphics/SVG/1.1/DTD/svg11.dtd"><svg t="1658110000722" class="icon" viewBox="0 0 1024 1024" version="1.1" xmlns="http://www.w3.org/2000/svg" p-id="9622" xmlns:xlink="http://www.w3.org/1999/xlink" width="200" height="200"><defs><style type="text/css"></style></defs><path d="M512 64h512v960H512z" fill="#0091FF" p-id="9623"></path><path d="M512 0h512v1024H512V0z m32 32v960h448V32H544z" fill="#333333" p-id="9624"></path><path d="M0 400h224v224H0z" fill="#0091FF" p-id="9625"></path><path d="M0 400h224v224H0V400z m32 32v160h160V432H32z" fill="#333333" p-id="9626"></path><path d="M224 496h288v32H224z" fill="#333333" p-id="9627"></path><path d="M528 512m-80 0a80 80 0 1 0 160 0 80 80 0 1 0-160 0Z" fill="#7FC8FF" p-id="9628"></path><path d="M528 608c53.02 0 96-42.98 96-96S581.02 416 528 416 432 458.98 432 512s42.98 96 96 96z m0-32c-35.346 0-64-28.654-64-64 0-35.346 28.654-64 64-64 35.346 0 64 28.654 64 64 0 35.346-28.654 64-64 64z" fill="#333333" p-id="9629"></path><path d="M0 64h224v224H0z" fill="#0091FF" p-id="9630"></path><path d="M0 64h224v224H0V64z m32 32v160h160V96H32z" fill="#333333" p-id="9631"></path><path d="M224 160h288v32H224z" fill="#333333" p-id="9632"></path><path d="M528 176m-80 0a80 80 0 1 0 160 0 80 80 0 1 0-160 0Z" fill="#7FC8FF" p-id="9633"></path><path d="M528 272c53.02 0 96-42.98 96-96S581.02 80 528 80 432 122.98 432 176s42.98 96 96 96z m0-32c-35.346 0-64-28.654-64-64 0-35.346 28.654-64 64-64 35.346 0 64 28.654 64 64 0 35.346-28.654 64-64 64z" fill="#333333" p-id="9634"></path><path d="M0 736h224v224H0z" fill="#0091FF" p-id="9635"></path><path d="M0 736h224v224H0V736z m32 32v160h160V768H32z" fill="#333333" p-id="9636"></path><path d="M224 832h288v32H224z" fill="#333333" p-id="9637"></path><path d="M528 848m-80 0a80 80 0 1 0 160 0 80 80 0 1 0-160 0Z" fill="#7FC8FF" p-id="9638"></path><path d="M528 944c53.02 0 96-42.98 96-96S581.02 752 528 752 432 794.98 432 848s42.98 96 96 96z m0-32c-35.346 0-64-28.654-64-64 0-35.346 28.654-64 64-64 35.346 0 64 28.654 64 64 0 35.346-28.654 64-64 64z" fill="#333333" p-id="9639"></path></svg>