<?xml version="1.0" standalone="no"?><!DOCTYPE svg PUBLIC "-//W3C//DTD SVG 1.1//EN" "http://www.w3.org/Graphics/SVG/1.1/DTD/svg11.dtd"><svg t="1658110014698" class="icon" viewBox="0 0 1024 1024" version="1.1" xmlns="http://www.w3.org/2000/svg" p-id="10082" xmlns:xlink="http://www.w3.org/1999/xlink" width="200" height="200"><defs><style type="text/css"></style></defs><path d="M0 0h896v832H0z" fill="#7FC8FF" p-id="10083"></path><path d="M0 0h896v832H0V0z m32 32v768h832V32H32z" fill="#333333" p-id="10084"></path><path d="M736 736m-288 0a288 288 0 1 0 576 0 288 288 0 1 0-576 0Z" fill="#0091FF" p-id="10085"></path><path d="M830.963 803.294c23.311-13.819 48.958-31.91 76.859-54.32a16 16 0 0 0 2.456-2.455c5.533-6.89 4.434-16.96-2.456-22.494-27.901-22.408-53.548-40.5-76.86-54.32C844.22 688.619 852 711.65 852 736.5s-7.78 47.882-21.037 66.794zM639.479 670.51c-22.95 13.715-48.145 31.54-75.508 53.515a16 16 0 0 0-2.456 2.456c-5.534 6.89-4.434 16.96 2.456 22.494 27.363 21.976 52.557 39.8 75.508 53.515C626.562 783.73 619 760.998 619 736.5c0-24.498 7.562-47.23 20.479-65.99zM735.5 821c46.668 0 84.5-37.832 84.5-84.5S782.168 652 735.5 652 651 689.832 651 736.5s37.832 84.5 84.5 84.5z m0.396 48c-49.863 0-113.368-31.954-191.963-95.075-20.669-16.6-23.968-46.812-7.368-67.481a48 48 0 0 1 7.368-7.369C622.528 635.955 686.033 604 735.896 604s113.369 31.954 191.964 95.075c20.669 16.6 23.968 46.812 7.368 67.481a48 48 0 0 1-7.368 7.369C849.265 837.045 785.76 869 735.896 869z" fill="#FFFFFF" p-id="10086"></path><path d="M736 1024c159.058 0 288-128.942 288-288S895.058 448 736 448 448 576.942 448 736s128.942 288 288 288z m0-32c-141.385 0-256-114.615-256-256s114.615-256 256-256 256 114.615 256 256-114.615 256-256 256z" fill="#333333" p-id="10087"></path><path d="M257.176 246.125L368.821 581.06c4.323 12.968 21.866 14.894 28.899 3.172l177.004-295.007 50.965 101.93A16 16 0 0 0 640 400h192v-32H649.889L590.31 248.845c-5.646-11.293-21.535-11.903-28.03-1.077l-174.103 290.17-117-350.998c-4.974-14.923-26.24-14.461-30.562 0.664L179.93 400H64v32h128a16 16 0 0 0 15.384-11.604l49.792-174.271z" fill="#FFFFFF" p-id="10088"></path></svg>