<?xml version="1.0" standalone="no"?><!DOCTYPE svg PUBLIC "-//W3C//DTD SVG 1.1//EN" "http://www.w3.org/Graphics/SVG/1.1/DTD/svg11.dtd"><svg t="1658110011274" class="icon" viewBox="0 0 1024 1024" version="1.1" xmlns="http://www.w3.org/2000/svg" p-id="9933" xmlns:xlink="http://www.w3.org/1999/xlink" width="200" height="200"><defs><style type="text/css"></style></defs><path d="M767.99625 895.995625c0 70.691655-171.922161 127.999375-383.998125 127.999375S0 966.68728 0 895.995625V127.999375C0 57.30772 171.922161 0 383.998125 0s383.998125 57.30772 383.998125 127.999375v767.99625z" fill="#7FC8FF" p-id="9934"></path><path d="M767.99625 895.995625c0 70.691655-171.922161 127.999375-383.998125 127.999375S0 966.68728 0 895.995625V127.999375C0 57.30772 171.922161 0 383.998125 0s383.998125 57.30772 383.998125 127.999375v767.99625z m-31.999844 0V127.999375c0-6.16697-5.173975-14.594929-17.983912-24.689879-16.026922-12.630938-40.835801-24.871879-72.605645-35.461827C577.357181 45.164779 483.979637 31.999844 383.998125 31.999844c-99.981512 0-193.360056 13.164936-261.408724 35.847825-31.769845 10.589948-56.579724 22.830889-72.605645 35.461827C37.173818 113.404446 31.999844 121.832405 31.999844 127.999375v767.99625c0 6.16697 5.173975 14.594929 17.983912 24.689879 16.026922 12.630938 40.835801 24.871879 72.605645 35.461827C190.639069 978.830221 284.016613 991.995156 383.998125 991.995156c99.981512 0 193.360056-13.164936 261.408724-35.847825 31.769845-10.589948 56.579724-22.830889 72.605645-35.461827C730.822432 910.590554 735.996406 902.162595 735.996406 895.995625z" fill="#333333" p-id="9935"></path><path d="M0 127.999375c0 70.691655 171.922161 127.999375 383.998125 127.999375s383.998125-57.30772 383.998125-127.999375v31.999844c0 70.691655-171.922161 127.999375-383.998125 127.999375S0 230.690874 0 159.999219v-31.999844zM0 319.998438c0 70.691655 171.922161 127.999375 383.998125 127.999375s383.998125-57.30772 383.998125-127.999375v31.999843c0 70.691655-171.922161 127.999375-383.998125 127.999375S0 422.689936 0 351.998281v-31.999843zM0 511.9975c0 70.691655 171.922161 127.999375 383.998125 127.999375s383.998125-57.30772 383.998125-127.999375v31.999844c0 70.691655-171.922161 127.999375-383.998125 127.999375S0 614.688999 0 543.997344v-31.999844zM0 703.996563c0 70.691655 171.922161 127.999375 383.998125 127.999375s383.998125-57.30772 383.998125-127.999375v31.999843c0 70.691655-171.922161 127.999375-383.998125 127.999375S0 806.688061 0 735.996406v-31.999843z" fill="#333333" p-id="9936"></path><path d="M691.041626 481.27465l-1.283994 0.473998c-18.279911 6.750967-57.37572 21.129897-76.491626 28.163862a69.68766 69.68766 0 0 1-1.405994 7.353964c-2.897986 11.782942-4.856976 18.37991-8.09696 25.770874-4.600978 10.502949-11.767943 19.696904-20.980898 27.546866-10.762947 9.172955-22.919888 15.366925-36.224823 18.069912-3.464983 0.701997-6.479968 1.159994-10.526948 1.602992l-0.017 0.208999-0.154999 1.912991c-1.053995 12.985937-1.467993 18.714909-1.786992 25.771874-0.144999 3.176984-0.075 6.533968 0.199999 11.799942 0.038 0.727996 0.07 1.321994 0.144 2.648987 0.131999 2.409988 0.188999 3.483983 0.252998 4.856976l0.012 0.259999 0.167999 3.576983c0.771996 16.43292 1.260994 25.933873 1.900991 36.163823 0.567997 9.079956 1.109995 15.089926 1.97899 20.920898 0.433998 2.923986 0.602997 4.06098 0.833996 5.597973 1.883991 12.537939 3.285984 20.606899 5.088976 28.60886 5.758972 25.570875 8.793957 37.903815 13.113936 52.006746 2.981985 9.742952 5.950971 17.680914 12.961936 35.311828l0.696997 1.753991a1604.242167 1604.242167 0 0 1 3.069985 7.765962c5.750972 14.687928 13.424934 29.489856 23.943883 46.822771 8.916956 14.703928 18.325911 28.047863 28.426861 40.169804l0.368998 0.440998c13.529934 16.229921 19.839903 23.189887 28.247862 30.443852 2.586987 2.232989 4.641977 4.03298 9.172956 8.01996l0.050999 0.046c9.483954 8.346959 13.707933 11.980941 19.009908 16.241921 14.802928 11.901942 31.278847 22.45589 49.437758 31.809844 6.687967 3.442983 12.27994 6.05497 25.019878 11.808943l0.201999 0.090999c7.530963 3.401983 11.035946 5.003976 15.333925 7.034966 1.809991 0.854996 3.579983 1.395993 5.286974 1.640992 1.705992-0.244999 3.476983-0.785996 5.287974-1.641992 4.296979-2.02999 7.801962-3.632982 15.332926-7.033966l0.202999-0.090999c12.739938-5.753972 18.32991-8.365959 25.013877-11.805943 18.163911-9.356954 34.639831-19.911903 49.446759-31.815844 5.297974-4.257979 9.521954-7.891961 19.005907-16.239921l0.05-0.044c4.531978-3.988981 6.586968-5.787972 9.176955-8.02396 8.404959-7.251965 14.714928-14.210931 28.245862-30.440852l0.365998-0.439998c10.102951-12.122941 19.511905-25.467876 28.431862-40.175804 10.515949-17.327915 18.189911-32.129843 23.941883-46.819771a1604.402166 1604.402166 0 0 1 3.766981-9.517953c7.009966-17.629914 9.979951-25.569875 12.961937-35.316828 4.318979-14.097931 7.353964-26.429871 13.113936-52.002746 1.801991-7.999961 3.203984-16.069922 5.087975-28.60786 0.230999-1.536992 0.399998-2.673987 0.834996-5.604973 0.866996-5.822972 1.409993-11.833942 1.97799-20.913898 0.639997-10.22995 1.128994-19.729904 1.899991-36.163823 0.048-0.992995 0.084-1.779991 0.168999-3.576983l0.012-0.259999c0.064-1.373993 0.119999-2.446988 0.253999-4.856976 0.073-1.326994 0.104999-1.920991 0.142999-2.649987 0.274999-5.264974 0.345998-8.622958 0.199999-11.805942-0.319998-7.049966-0.732996-12.778938-1.786991-25.765874l-0.154999-1.911991-0.017-0.209999c-4.04798-0.441998-7.063966-0.899996-10.531949-1.603992-13.299935-2.699987-25.456876-8.895957-36.215823-18.065912-9.216955-7.851962-16.38392-17.045917-20.983897-27.545866-3.239984-7.393964-5.199975-13.990932-8.099961-25.778874-0.619997-2.525988-1.029995-4.677977-1.415993-7.431963l-10.578948-3.973981a8141.360247 8141.360247 0 0 0-14.619929-5.472973 57608.14871 57608.14871 0 0 0-68.185667-25.401876c-41.494797-14.680928-64.739684-23.312886-72.341647-26.982868-6.478968 2.999985-35.383827 13.859932-87.94657 33.276837z" fill="#0091FF" p-id="9937"></path><path d="M746.522355 796.811109l152.292256-156.128237c6.248969-6.247969 16.37992-6.247969 22.62789 0 6.247969 6.248969 6.247969 16.37992 0 22.627889L757.8353 830.751944c-6.247969 6.247969-16.37892 6.247969-22.62689 0l-98.525519-89.905561c-6.247969-6.247969-6.247969-16.37892 0-22.62689 6.248969-6.248969 16.37992-6.248969 22.62789 0l87.211574 78.591616z" fill="#FFFFFF" p-id="9938"></path><path d="M691.077626 481.27465l-1.283994 0.473998c-18.282911 6.750967-57.38972 21.129897-76.509627 28.163862a69.67366 69.67366 0 0 1-1.405993 7.353964c-2.899986 11.782942-4.857976 18.37991-8.09796 25.770874-4.602978 10.502949-11.770943 19.696904-20.986898 27.546866-10.764947 9.172955-22.925888 15.366925-36.232823 18.069912-3.465983 0.701997-6.479968 1.159994-10.529948 1.602992l-0.016 0.208999-0.155 1.912991c-1.054995 12.985937-1.468993 18.714909-1.787991 25.771874-0.144999 3.176984-0.075 6.533968 0.199999 11.799942 0.038 0.727996 0.07 1.321994 0.144 2.648987 0.131999 2.409988 0.189999 3.483983 0.252998 4.856976l0.013 0.259999 0.166999 3.576983c0.772996 16.43292 1.261994 25.933873 1.901991 36.163823 0.567997 9.079956 1.109995 15.089926 1.97899 20.920898 0.433998 2.923986 0.602997 4.06098 0.833996 5.597973 1.884991 12.537939 3.286984 20.606899 5.089976 28.60886 5.759972 25.570875 8.796957 37.903815 13.117936 52.006746 2.981985 9.742952 5.951971 17.680914 12.963936 35.311828l0.697997 1.753991a1604.172167 1604.172167 0 0 1 3.069985 7.765962c5.752972 14.687928 13.428934 29.489856 23.949883 46.822771 8.918956 14.703928 18.32991 28.047863 28.433861 40.169804l0.367998 0.440998c13.533934 16.229921 19.845903 23.189887 28.254862 30.443852 2.587987 2.232989 4.642977 4.03298 9.175955 8.01996l0.05 0.046c9.485954 8.346959 13.710933 11.980941 19.014907 16.241921 14.805928 11.901942 31.285847 22.45589 49.449759 31.809844 6.689967 3.442983 12.28194 6.05497 25.023878 11.808943l0.202999 0.090999c7.532963 3.401983 11.038946 5.003976 15.336925 7.034966 1.809991 0.854996 3.581983 1.395993 5.287974 1.640992 1.706992-0.244999 3.479983-0.785996 5.289974-1.641992 4.297979-2.02999 7.803962-3.632982 15.336925-7.033966l0.201999-0.090999c12.742938-5.753972 18.33591-8.365959 25.019878-11.805943 18.168911-9.356954 34.648831-19.911903 49.458759-31.815844 5.299974-4.257979 9.523953-7.891961 19.009907-16.239921l0.051-0.044c4.531978-3.988981 6.587968-5.787972 9.177955-8.02396 8.406959-7.251965 14.718928-14.210931 28.252862-30.440852l0.365998-0.439998c10.105951-12.122941 19.516905-25.467876 28.438861-40.175804 10.517949-17.327915 18.193911-32.129843 23.946883-46.819771a1604.120167 1604.120167 0 0 1 3.767982-9.517953c7.010966-17.629914 9.981951-25.569875 12.964937-35.316828 4.319979-14.097931 7.355964-26.429871 13.116935-52.002746 1.802991-7.999961 3.204984-16.069922 5.089976-28.60786 0.229999-1.536992 0.399998-2.673987 0.834996-5.604973 0.866996-5.822972 1.409993-11.833942 1.97799-20.913898 0.639997-10.22995 1.129994-19.729904 1.900991-36.163823l0.167999-3.576983 0.012-0.259999c0.064-1.373993 0.120999-2.446988 0.253999-4.856976 0.073-1.326994 0.104999-1.920991 0.142999-2.649987 0.275999-5.264974 0.345998-8.622958 0.199999-11.805942-0.318998-7.049966-0.731996-12.778938-1.786991-25.765874a9037.701871 9037.701871 0 0 1-0.172-2.12199c-4.04998-0.441998-7.064966-0.899996-10.533948-1.603992-13.302935-2.699987-25.463876-8.895957-36.224823-18.065912-9.219955-7.851962-16.38692-17.045917-20.988898-27.545866-3.240984-7.393964-5.199975-13.990932-8.09996-25.778874-0.621997-2.525988-1.031995-4.677977-1.417993-7.431963l-10.579949-3.973981c-5.519973-2.06999-10.17095-3.811981-14.623928-5.472973a57629.605605 57629.605605 0 0 0-68.201667-25.401876c-41.504797-14.680928-64.755684-23.312886-72.359647-26.982868-6.479968 2.999985-35.391827 13.859932-87.96657 33.276837z m149.41527 23.789884c22.640889 8.415959 45.282779 16.848918 67.924668 25.297876 2.813986 1.049995 5.739972 2.14399 8.994956 3.363984 2.412988 8.959956 4.557978 15.204926 7.607963 22.161892 6.531968 14.903927 16.577919 28.013863 29.546856 39.059809 11.301945 9.629953 23.849884 16.883918 37.344818 21.476895 0.056 1.050995 0.106999 2.09099 0.154999 3.166985 0.086 1.879991 0.044 4.222979-0.188999 8.687957-0.035 0.663997-0.064 1.199994-0.138999 2.561988a564.517244 564.517244 0 0 0-0.266999 5.119975l-0.012 0.256998-0.166999 3.572983c-0.799996 17.029917-1.271994 26.028873-1.874991 35.667826-0.535997 8.569958-1.006995 13.607934-1.690992 18.199911-0.453998 3.058985-0.609997 4.10598-0.829996 5.559973-1.851991 12.32694-3.117985 19.482905-4.660977 26.329871-5.859971 26.011873-8.631958 37.053819-12.495939 49.662758-2.559988 8.362959-5.079975 15.205926-12.103941 32.865839l-0.699997 1.757992a1623.908071 1623.908071 0 0 0-3.127984 7.914961c-4.889976 12.483939-11.619943 25.599875-21.506895 41.886796-8.19996 13.517934-16.699918 25.535875-25.664875 36.291822l-0.361998 0.434998c-13.047936 15.646924-18.109912 21.124897-24.57788 26.70387-2.583987 2.229989-4.589978 3.982981-9.415954 8.22996l-0.05 0.044999c-9.575953 8.426959-13.273935 11.589943-17.911912 15.315926-12.987937 10.439949-27.629865 19.847903-44.068785 28.313861-5.823972 2.996985-10.689948 5.287974-23.537885 11.089946l-0.201999 0.091a2259.300968 2259.300968 0 0 0-7.456964 3.379983c-2.02599-0.922995-4.412978-2.00499-7.456964-3.379983l-0.202999-0.09c-12.848937-5.802972-17.713914-8.09396-23.551885-11.097946-16.42492-8.458959-31.065848-17.866913-44.042785-28.297861-4.648977-3.734982-8.345959-6.896966-17.922912-15.324926l-0.05-0.043999c-4.826976-4.246979-6.831967-5.999971-9.409954-8.22496-6.472968-5.583973-11.535944-11.061946-24.58388-26.70987l-0.368998-0.441998c-8.959956-10.748948-17.457915-22.765889-25.649875-36.271823-9.893952-16.29992-16.624919-29.415856-21.514895-41.897795-0.875996-2.238989-1.747991-4.441978-3.128984-7.916961l-0.699997-1.757992c-7.021966-17.658914-9.543953-24.50188-12.099941-32.851839-3.866981-12.621938-6.638968-23.663884-12.497939-49.673758-1.543992-6.849967-2.809986-14.005932-4.662977-26.331871-0.218999-1.454993-0.374998-2.501988-0.825996-5.542973-0.686997-4.609977-1.157994-9.646953-1.694992-18.217911-0.602997-9.639953-1.073995-18.637909-1.873991-35.667826l-0.166999-3.572983-0.013-0.259998a564.453244 564.453244 0 0 0-0.266998-5.116975 863.935782 863.935782 0 0 1-0.138-2.561988c-0.233999-4.462978-0.275999-6.807967-0.189999-8.667957 0.048-1.082995 0.1-2.12999 0.155999-3.187985 13.498934-4.593978 26.045873-11.847942 37.353818-21.483895 12.959937-11.038946 23.006888-24.148882 29.539856-39.058809 3.023985-6.894966 5.157975-13.094936 7.545963-21.932893l21.379896-7.864962 0.068999-0.026c17.586914-6.470968 30.481851-11.219945 38.794811-14.28993l0.642997-0.236999 0.642996-0.237999c38.82981-14.33993 62.857693-23.306886 76.707626-28.690859 12.608938 4.933976 32.399842 12.124941 61.621699 22.46189z" fill="#333333" p-id="9939"></path></svg>