<?xml version="1.0" standalone="no"?><!DOCTYPE svg PUBLIC "-//W3C//DTD SVG 1.1//EN" "http://www.w3.org/Graphics/SVG/1.1/DTD/svg11.dtd"><svg t="1658110029495" class="icon" viewBox="0 0 1024 1024" version="1.1" xmlns="http://www.w3.org/2000/svg" p-id="10675" xmlns:xlink="http://www.w3.org/1999/xlink" width="200" height="200"><defs><style type="text/css"></style></defs><path d="M760.572534 897.237911c0 70.008325-170.260302 126.762089-380.286267 126.762089S0 967.246236 0 897.237911V136.665377C0 66.657052 170.260302 9.903288 380.286267 9.903288s380.286267 56.753764 380.286267 126.762089v760.572534z" fill="#7FC8FF" p-id="10676"></path><path d="M760.572534 897.237911c0 70.008325-170.260302 126.762089-380.286267 126.762089S0 967.246236 0 897.237911V136.665377C0 66.657052 170.260302 9.903288 380.286267 9.903288s380.286267 56.753764 380.286267 126.762089v760.572534z m-31.690522 0V136.665377c0-6.107358-5.123961-14.453849-17.810074-24.451218-15.872-12.508843-40.441068-24.631458-71.903814-35.119041C571.776248 54.631489 479.301323 41.59381 380.286267 41.59381c-99.015056 0-191.490971 13.037679-258.881857 35.501308-31.462747 10.487582-56.032805 22.610197-71.903814 35.119041C36.814484 122.211528 31.690522 130.558019 31.690522 136.665377v760.572534c0 6.107358 5.123961 14.453849 17.810074 24.451219 15.872 12.508843 40.441068 24.631458 71.903814 35.11904C188.796286 979.271799 281.271211 992.309478 380.286267 992.309478c99.015056 0 191.490971-13.037679 258.881857-35.501308 31.462747-10.487582 56.032805-22.610197 71.903814-35.11904C723.75805 911.69176 728.882012 903.345269 728.882012 897.237911z" fill="#333333" p-id="10677"></path><path d="M0 136.665377c0 70.008325 170.260302 126.762089 380.286267 126.762089s380.286267-56.753764 380.286267-126.762089v31.690522c0 70.008325-170.260302 126.762089-380.286267 126.762089S0 238.364224 0 168.355899v-31.690522zM0 326.808511c0 70.008325 170.260302 126.762089 380.286267 126.762089s380.286267-56.753764 380.286267-126.762089v31.690522c0 70.008325-170.260302 126.762089-380.286267 126.762089S0 428.507358 0 358.499033v-31.690522zM0 516.951644c0 70.008325 170.260302 126.762089 380.286267 126.762089s380.286267-56.753764 380.286267-126.762089v31.690522c0 70.008325-170.260302 126.762089-380.286267 126.762089S0 618.650491 0 548.642166v-31.690522zM0 707.094778c0 70.008325 170.260302 126.762089 380.286267 126.762089s380.286267-56.753764 380.286267-126.762089v31.690522c0 70.008325-170.260302 126.762089-380.286267 126.762089S0 808.793625 0 738.7853v-31.690522z" fill="#333333" p-id="10678"></path><path d="M728.882012 1024c157.519721 0 285.2147-127.694979 285.2147-285.2147S886.401733 453.5706 728.882012 453.5706 443.667311 581.265578 443.667311 738.7853s127.694979 285.2147 285.214701 285.2147z" fill="#0091FF" p-id="10679"></path><path d="M728.882012 1024c157.519721 0 285.2147-127.694979 285.2147-285.2147S886.401733 453.5706 728.882012 453.5706 443.667311 581.265578 443.667311 738.7853s127.694979 285.2147 285.214701 285.2147z m0-31.690522c-140.01764 0-253.524178-113.506538-253.524178-253.524178s113.506538-253.524178 253.524178-253.524178 253.524178 113.506538 253.524178 253.524178-113.506538 253.524178-253.524178 253.524178z" fill="#333333" p-id="10680"></path><path d="M903.179884 659.770925l-174.297872 253.524178-174.297873-253.524178 66.062855-95.071567h216.470035l66.062855 95.071567z m-82.633037-63.381045H637.217176l-44.109246 63.478097L728.882012 857.357369l135.774081-197.489392-44.109246-63.478097z" fill="#FFFFFF" p-id="10681"></path><path d="M635.499946 559.179265L605.794043 570.221431l108.235017 291.156673h29.703923l108.235017-291.156673-29.704913-11.042166L728.882012 810.381122z" fill="#FFFFFF" p-id="10682"></path><path d="M795.540054 669.887133L819.931853 649.655706l-78.853942-95.071567-24.393779 0.001981-78.827204 95.071567 24.395761 20.227466 66.631303-80.363203z" fill="#FFFFFF" p-id="10683"></path><path d="M554.584139 675.616186h348.595745v-31.690523H554.584139z" fill="#FFFFFF" p-id="10684"></path></svg>