<?xml version="1.0" standalone="no"?><!DOCTYPE svg PUBLIC "-//W3C//DTD SVG 1.1//EN" "http://www.w3.org/Graphics/SVG/1.1/DTD/svg11.dtd"><svg t="1658107877610" class="icon" viewBox="0 0 1024 1024" version="1.1" xmlns="http://www.w3.org/2000/svg" p-id="18944" xmlns:xlink="http://www.w3.org/1999/xlink" width="200" height="200"><defs><style type="text/css"></style></defs><path d="M237.65 513h578.292C877.885 512.761 928 462.47 928 400.5c0-62.132-50.368-112.5-112.5-112.5-4.072 0-8.11 0.215-12.108 0.641l-35.505 3.787 0.112-35.707L768 256c0-123.712-100.288-224-224-224-106.254 0-197.288 74.57-219.1 177.152l-7.383 34.722-33.773-10.933c-14.15-4.58-29.017-6.941-44.244-6.941C160.247 226 96 290.247 96 369.5c0 77.88 62.13 141.499 139.805 143.454l1.845 0.046z" fill="#FFFFFF" p-id="18945"></path><path d="M237.65 545h578.292C877.885 544.761 928 494.47 928 432.5c0-62.132-50.368-112.5-112.5-112.5-4.072 0-8.11 0.215-12.108 0.641l-35.505 3.787 0.112-35.707L768 288c0-123.712-100.288-224-224-224-106.254 0-197.288 74.57-219.1 177.152l-7.383 34.722-33.773-10.933c-14.15-4.58-29.017-6.941-44.244-6.941C160.247 258 96 322.247 96 401.5c0 77.88 62.13 141.499 139.805 143.454l1.845 0.046z" fill="#0091FF" p-id="18946"></path><path d="M64 369.5C64 272.574 142.574 194 239.5 194c18.878 0 37.06 2.98 54.1 8.497C318.2 86.795 420.964 0 544 0c141.385 0 256 114.615 256 256l-0.001 0.822A146.135 146.135 0 0 1 815.5 256c79.805 0 144.5 64.695 144.5 144.5 0 79.638-64.425 144.23-144 144.5H235v-0.057C140.154 542.556 64 464.921 64 369.5zM237.65 513h578.292C877.885 512.761 928 462.47 928 400.5c0-62.132-50.368-112.5-112.5-112.5-4.072 0-8.11 0.215-12.108 0.641l-35.505 3.787 0.112-35.707L768 256c0-123.712-100.288-224-224-224-106.254 0-197.288 74.57-219.1 177.152l-7.383 34.722-33.773-10.933c-14.15-4.58-29.017-6.941-44.244-6.941C160.247 226 96 290.247 96 369.5c0 77.88 62.13 141.499 139.805 143.454l1.845 0.046z" fill="#333333" p-id="18947"></path><path d="M736 816h69v32H704V545h32v271zM336 545v303H214v-32h90V545h32z m176 0h32v287h-32V545z" fill="#333333" p-id="18948"></path><path d="M912 944c-61.856 0-112-50.144-112-112s50.144-112 112-112 112 50.144 112 112-50.144 112-112 112z m0-32c44.183 0 80-35.817 80-80s-35.817-80-80-80-80 35.817-80 80 35.817 80 80 80zM112 944C50.144 944 0 893.856 0 832s50.144-112 112-112 112 50.144 112 112-50.144 112-112 112z m0-32c44.183 0 80-35.817 80-80s-35.817-80-80-80-80 35.817-80 80 35.817 80 80 80zM528 1024c-61.856 0-112-50.144-112-112s50.144-112 112-112 112 50.144 112 112-50.144 112-112 112z m0-32c44.183 0 80-35.817 80-80s-35.817-80-80-80-80 35.817-80 80 35.817 80 80 80z" fill="#333333" p-id="18949"></path><path d="M528 992c44.183 0 80-35.817 80-80s-35.817-80-80-80-80 35.817-80 80 35.817 80 80 80zM112 912c44.183 0 80-35.817 80-80s-35.817-80-80-80-80 35.817-80 80 35.817 80 80 80zM912 912c44.183 0 80-35.817 80-80s-35.817-80-80-80-80 35.817-80 80 35.817 80 80 80z" fill="#7FC8FF" p-id="18950"></path></svg>