<?xml version="1.0" standalone="no"?><!DOCTYPE svg PUBLIC "-//W3C//DTD SVG 1.1//EN" "http://www.w3.org/Graphics/SVG/1.1/DTD/svg11.dtd"><svg t="1658110087666" class="icon" viewBox="0 0 1024 1024" version="1.1" xmlns="http://www.w3.org/2000/svg" p-id="12788" xmlns:xlink="http://www.w3.org/1999/xlink" width="200" height="200"><defs><style type="text/css"></style></defs><path d="M0 0h1024v896H0V0z m512 768c176.731 0 320-143.269 320-320S688.731 128 512 128 192 271.269 192 448s143.269 320 320 320z" fill="#7FC8FF" p-id="12789"></path><path d="M0 0h1024v896H0V0z m32 32v832h960V32H32z" fill="#333333" p-id="12790"></path><path d="M512 768c-159.058 0-288-128.942-288-288s128.942-288 288-288 288 128.942 288 288-128.942 288-288 288z" fill="#0091FF" p-id="12791"></path><path d="M406.899 393.885l19.008 26.214c-28.742 14.343-53.382 35.682-71.69 61.787L328 463.533c20.345-29.01 47.395-52.977 78.899-69.648z m29.991-13.15C460.235 372.486 485.355 368 511.524 368c75.915 0 143.01 37.765 183.523 95.533l-26.217 18.353C634.104 432.37 576.594 400 511.524 400c-19.075 0-37.5 2.782-54.892 7.961l-19.742-27.227z m8.116 65.705l19.263 26.565c-23.38 9.293-43.373 25.276-57.616 45.586l-26.218-18.353c16.272-23.202 38.548-41.887 64.57-53.798z m31.796-10.662A160.573 160.573 0 0 1 511.524 432c54.225 0 102.15 26.975 131.088 68.238l-26.218 18.353C593.244 485.58 554.904 464 511.524 464c-4.639 0-9.22 0.247-13.73 0.728l-20.992-28.95z m7.07 64.264l20.555 28.347c-18.74 2.067-35.044 12.226-45.339 26.906l-26.217-18.352c12.233-17.443 30.12-30.631 51.002-36.901z m36.917-3.6c28.69 2.747 53.693 18.121 69.388 40.5l-26.218 18.353a64.301 64.301 0 0 0-5.171-6.448l-38-52.406z m13.335 72.903l3.287 4.534L511.524 592l-26.218-18.352c5.788-8.253 15.373-13.648 26.218-13.648 8.822 0 16.811 3.57 22.6 9.345z" fill="#FFFFFF" p-id="12792"></path><path d="M512 768c176.731 0 320-143.269 320-320S688.731 128 512 128 192 271.269 192 448s143.269 320 320 320z m0-32c-159.058 0-288-128.942-288-288s128.942-288 288-288 288 128.942 288 288-128.942 288-288 288z" fill="#333333" p-id="12793"></path><path d="M512 896h32v128h-32z" fill="#333333" p-id="12794"></path><path d="M144 992h768v32H144z" fill="#333333" p-id="12795"></path></svg>