<?xml version="1.0" standalone="no"?><!DOCTYPE svg PUBLIC "-//W3C//DTD SVG 1.1//EN" "http://www.w3.org/Graphics/SVG/1.1/DTD/svg11.dtd"><svg t="1658110059594" class="icon" viewBox="0 0 1024 1024" version="1.1" xmlns="http://www.w3.org/2000/svg" p-id="11580" xmlns:xlink="http://www.w3.org/1999/xlink" width="200" height="200"><defs><style type="text/css"></style></defs><path d="M496 930c-212.077 0-384-171.923-384-384s171.923-384 384-384 384 171.923 384 384-171.923 384-384 384z" fill="#0091FF" p-id="11581"></path><path d="M512 159.514L858.441 821H165.56L512 159.514z m0 68.972L218.441 789H805.56L512 228.486z" fill="#FFFFFF" p-id="11582"></path><path d="M496 962c229.75 0 416-186.25 416-416S725.75 130 496 130 80 316.25 80 546s186.25 416 416 416z m0-32c-212.077 0-384-171.923-384-384s171.923-384 384-384 384 171.923 384 384-171.923 384-384 384z" fill="#333333" p-id="11583"></path><path d="M512 0l192 110.75v221.5L512 443 320 332.25v-221.5zM192 581l192 110.75v221.5L192 1024 0 913.25v-221.5zM832 581l192 110.75v221.5L832 1024 640 913.25v-221.5z" fill="#7FC8FF" p-id="11584"></path><path d="M512 0l192 110.75v221.5L512 443 320 332.25v-221.5L512 0z m0 36.942l-160 92.292v184.532l160 92.292 160-92.292V129.234L512 36.942zM192 581l192 110.75v221.5L192 1024 0 913.25v-221.5L192 581z m0 36.942L32 710.234v184.532l160 92.292 160-92.292V710.234l-160-92.292zM832 581l192 110.75v221.5L832 1024 640 913.25v-221.5L832 581z m0 36.942l-160 92.292v184.532l160 92.292 160-92.292V710.234l-160-92.292z" fill="#333333" p-id="11585"></path></svg>