<?xml version="1.0" standalone="no"?><!DOCTYPE svg PUBLIC "-//W3C//DTD SVG 1.1//EN" "http://www.w3.org/Graphics/SVG/1.1/DTD/svg11.dtd"><svg t="1658107830078" class="icon" viewBox="0 0 1024 1024" version="1.1" xmlns="http://www.w3.org/2000/svg" p-id="17012" xmlns:xlink="http://www.w3.org/1999/xlink" width="200" height="200"><defs><style type="text/css"></style></defs><path d="M128 0h896v960H128z" fill="#7FC8FF" p-id="17013"></path><path d="M128 0h896v960H128V0z m32 32v896h832V32H160z" fill="#333333" p-id="17014"></path><path d="M0 128h896v896H0z" fill="#FFFFFF" p-id="17015"></path><path d="M0 128h896v896H0V128z m32 32v832h832V160H32z" fill="#333333" p-id="17016"></path><path d="M0 352h896v672H0z" fill="#0091FF" p-id="17017"></path><path d="M0 288h896v736H0V288z m32 32v672h832V320H32z" fill="#333333" p-id="17018"></path><path d="M384.5 832.5v31h319v-31h-319z" fill="#FFFFFF" p-id="17019"></path><path d="M96 223m-16 0a16 16 0 1 0 32 0 16 16 0 1 0-32 0Z" fill="#333333" p-id="17020"></path><path d="M176 223m-16 0a16 16 0 1 0 32 0 16 16 0 1 0-32 0Z" fill="#333333" p-id="17021"></path><path d="M178.687 871.125l26.626 17.75 133.932-200.898-133.954-199.884-26.582 17.814 122.046 182.116z" fill="#FFFFFF" p-id="17022"></path></svg>