<?xml version="1.0" standalone="no"?><!DOCTYPE svg PUBLIC "-//W3C//DTD SVG 1.1//EN" "http://www.w3.org/Graphics/SVG/1.1/DTD/svg11.dtd"><svg t="1658110056652" class="icon" viewBox="0 0 1024 1024" version="1.1" xmlns="http://www.w3.org/2000/svg" p-id="11431" xmlns:xlink="http://www.w3.org/1999/xlink" width="200" height="200"><defs><style type="text/css"></style></defs><path d="M512.98 211l316.099 182.5v365L512.979 941 196.88 758.5v-365z" fill="#0091FF" p-id="11432"></path><path d="M512.98 128l387.979 224v448l-387.98 224L125 800V352l387.98-224zM157 370.475v411.05L512.98 987.05l355.979-205.525v-411.05L512.979 164.95 157 370.475z" fill="#333333" p-id="11433"></path><path d="M514 129m-113 0a113 113 0 1 0 226 0 113 113 0 1 0-226 0Z" fill="#7FC8FF" p-id="11434"></path><path d="M129 803m-113 0a113 113 0 1 0 226 0 113 113 0 1 0-226 0Z" fill="#7FC8FF" p-id="11435"></path><path d="M895 803m-113 0a113 113 0 1 0 226 0 113 113 0 1 0-226 0Z" fill="#7FC8FF" p-id="11436"></path><path d="M514 258c71.245 0 129-57.755 129-129S585.245 0 514 0 385 57.755 385 129s57.755 129 129 129z m0-32c-53.572 0-97-43.428-97-97s43.428-97 97-97 97 43.428 97 97-43.428 97-97 97zM129 932c71.245 0 129-57.755 129-129s-57.755-129-129-129S0 731.755 0 803s57.755 129 129 129z m0-32c-53.572 0-97-43.428-97-97s43.428-97 97-97 97 43.428 97 97-43.428 97-97 97zM894 932c71.245 0 129-57.755 129-129s-57.755-129-129-129-129 57.755-129 129 57.755 129 129 129z m0-32c-53.572 0-97-43.428-97-97s43.428-97 97-97 97 43.428 97 97-43.428 97-97 97z" fill="#333333" p-id="11437"></path></svg>