<?xml version="1.0" standalone="no"?><!DOCTYPE svg PUBLIC "-//W3C//DTD SVG 1.1//EN" "http://www.w3.org/Graphics/SVG/1.1/DTD/svg11.dtd"><svg t="1658107851880" class="icon" viewBox="0 0 1024 1024" version="1.1" xmlns="http://www.w3.org/2000/svg" p-id="17899" xmlns:xlink="http://www.w3.org/1999/xlink" width="200" height="200"><defs><style type="text/css"></style></defs><path d="M437 320m-320 0a320 320 0 1 0 640 0 320 320 0 1 0-640 0Z" fill="#7FC8FF" p-id="17900"></path><path d="M437 640c176.731 0 320-143.269 320-320S613.731 0 437 0 117 143.269 117 320s143.269 320 320 320z m0-32C277.942 608 149 479.058 149 320S277.942 32 437 32s288 128.942 288 288-128.942 288-288 288z" fill="#333333" p-id="17901"></path><path d="M437 321m-220 0a220 220 0 1 0 440 0 220 220 0 1 0-440 0Z" fill="#0091FF" p-id="17902"></path><path d="M437 541c121.503 0 220-98.497 220-220s-98.497-220-220-220-220 98.497-220 220 98.497 220 220 220z m0-32c-103.83 0-188-84.17-188-188s84.17-188 188-188 188 84.17 188 188-84.17 188-188 188z" fill="#333333" p-id="17903"></path><path d="M864 562v323.246C864 942.548 817.584 989 760.326 989H480.054c-27.693 0-52.85-10.867-71.446-28.571a60.79 60.79 0 0 1-18.872-12.859L175.853 733.52c-23.804-23.822-23.804-62.445 0-86.267 23.803-23.822 62.396-23.822 86.2 0L376.38 761.67V318c0-33.69 27.29-61 60.953-61 33.663 0 60.952 27.31 60.952 61v195.2c18.193-40.667 38.51-61 60.953-61 22.442 0 42.76 20.333 60.952 61 18.193-40.667 38.51-61 60.953-61 33.663 0 60.952 27.31 60.952 61V562c18.193-40.667 38.51-61 60.953-61C836.71 501 864 528.31 864 562z" fill="#FFFFFF" p-id="17904"></path><path d="M864 596v323.246C864 976.548 817.584 1024 760.326 1024H480.054c-27.693 0-52.85-11.867-71.446-29.571a60.79 60.79 0 0 1-18.872-12.859L175.853 767.52c-23.804-23.822-23.804-62.445 0-86.267 23.803-23.822 62.396-23.822 86.2 0L376.38 795.67V352c0-33.69 27.29-61 60.953-61 33.663 0 60.952 27.31 60.952 61v195.2c18.193-40.667 38.51-61 60.953-61 22.442 0 42.76 20.333 60.952 61 18.193-40.667 38.51-61 60.953-61 33.663 0 60.952 27.31 60.952 61V596c18.193-40.667 38.51-61 60.953-61C836.71 535 864 562.31 864 596z" fill="#0091FF" p-id="17905"></path><path d="M681.143 422.2c-20.365 0-38.902 8.815-54.706 24.631a118.59 118.59 0 0 0-6.247 6.77 118.59 118.59 0 0 0-6.246-6.77c-15.804-15.816-34.342-24.631-54.706-24.631-10.141 0-19.83 2.186-28.953 6.334V320c0-51.357-41.61-93-92.952-93s-92.953 41.643-92.953 93v366.373l-59.691-59.738c-36.303-36.33-95.17-36.33-131.473 0-36.288 36.316-36.288 95.187 0 131.504L367.1 972.189a92.908 92.908 0 0 0 23.46 17.091c24.518 21.55 56.087 33.72 89.494 33.72h280.272C835.262 1023 896 962.215 896 887.246V564c0-51.357-41.61-93-92.952-93-12.623 0-24.544 3.387-35.548 9.729-13.687-34.294-47.19-58.529-86.357-58.529zM864 564v323.246C864 944.548 817.584 991 760.326 991H480.054c-27.693 0-52.85-10.867-71.446-28.571a60.79 60.79 0 0 1-18.872-12.859L175.853 735.52c-23.804-23.822-23.804-62.445 0-86.267 23.803-23.822 62.396-23.822 86.2 0L376.38 763.67V320c0-33.69 27.29-61 60.953-61 33.663 0 60.952 27.31 60.952 61v195.2c18.193-40.667 38.51-61 60.953-61 22.442 0 42.76 20.333 60.952 61 18.193-40.667 38.51-61 60.953-61 33.663 0 60.952 27.31 60.952 61V564c18.193-40.667 38.51-61 60.953-61C836.71 503 864 530.31 864 564z" fill="#333333" p-id="17906"></path></svg>