<?xml version="1.0" standalone="no"?><!DOCTYPE svg PUBLIC "-//W3C//DTD SVG 1.1//EN" "http://www.w3.org/Graphics/SVG/1.1/DTD/svg11.dtd"><svg t="1658110023206" class="icon" viewBox="0 0 1024 1024" version="1.1" xmlns="http://www.w3.org/2000/svg" p-id="10380" xmlns:xlink="http://www.w3.org/1999/xlink" width="200" height="200"><defs><style type="text/css"></style></defs><path d="M957.715 448c-9.883-48.688-52.928-85.333-104.533-85.333-16.965 0-32.862 5.469-47.321 15.669-13.364-43.656-53.98-75.403-102.012-75.403-22.883 0-43.823 9.95-61.913 28.04-4.387 4.387-8.634 9.273-12.754 14.66-4.12-5.387-8.366-10.273-12.754-14.66-18.09-18.09-39.03-28.04-61.912-28.04-15.164 0-29.474 4.37-42.667 12.58V170.667C511.849 111.757 464.093 64 405.182 64c-58.91 0-106.666 47.756-106.666 106.667V448H0V0h1024v448h-66.285z" fill="#7FC8FF" p-id="10381"></path><path d="M957.715 448a105.969 105.969 0 0 0-12.136-32H992V32H32v384h266.516v32H0V0h1024v448h-66.285z" fill="#333333" p-id="10382"></path><path d="M926.849 501.333V897c0 70.14-56.86 127-127 127H456.516c-33.924 0-64.742-13.301-87.522-34.973-8.394-3.632-16.258-8.878-23.118-15.739L83.869 711.282c-29.159-29.16-29.159-76.436 0-105.595 29.16-29.159 76.436-29.159 105.595 0L329.516 745.74V202.667c0-41.238 33.429-74.667 74.666-74.667 41.238 0 74.667 33.43 74.667 74.667V441.6c22.286-49.778 47.175-74.667 74.667-74.667 27.491 0 52.38 24.89 74.666 74.667 22.287-49.778 47.175-74.667 74.667-74.667 41.237 0 74.667 33.43 74.667 74.667v59.733c22.286-49.777 47.175-74.666 74.666-74.666 41.238 0 74.667 33.43 74.667 74.666z" fill="#0091FF" p-id="10383"></path><path d="M852.182 362.667c58.91 0 106.667 47.756 106.667 106.666V865c0 87.813-71.187 159-159 159H456.516c-39.457 0-76.716-14.472-105.545-40.08a106.587 106.587 0 0 1-27.722-20.004L61.242 701.909c-41.656-41.656-41.656-109.193 0-150.85 41.656-41.655 109.193-41.655 150.85 0l85.424 85.425V170.667C297.516 111.757 345.272 64 404.182 64S510.85 111.756 510.85 170.667v144.846c13.193-8.21 27.503-12.58 42.667-12.58 22.883 0 43.823 9.95 61.912 28.04 4.388 4.387 8.635 9.273 12.754 14.66 4.12-5.387 8.367-10.273 12.754-14.66 18.09-18.09 39.03-28.04 61.913-28.04 48.032 0 88.648 31.747 102.012 75.403 14.459-10.2 30.356-15.67 47.321-15.67z m74.667 106.666c0-41.237-33.43-74.666-74.667-74.666-27.491 0-52.38 24.889-74.666 74.666V409.6c0-41.237-33.43-74.667-74.667-74.667-27.492 0-52.38 24.89-74.667 74.667-22.286-49.778-47.175-74.667-74.666-74.667-27.492 0-52.38 24.89-74.667 74.667V170.667c0-41.238-33.43-74.667-74.667-74.667s-74.666 33.43-74.666 74.667v543.072L189.464 573.687c-29.16-29.159-76.435-29.159-105.595 0-29.159 29.16-29.159 76.436 0 105.595l262.007 262.006c6.86 6.86 14.724 12.107 23.118 15.74 22.78 21.67 53.598 34.972 87.522 34.972h343.333c70.14 0 127-56.86 127-127V469.333z" fill="#333333" p-id="10384"></path></svg>