<?xml version="1.0" standalone="no"?><!DOCTYPE svg PUBLIC "-//W3C//DTD SVG 1.1//EN" "http://www.w3.org/Graphics/SVG/1.1/DTD/svg11.dtd"><svg t="1658107848884" class="icon" viewBox="0 0 1024 1024" version="1.1" xmlns="http://www.w3.org/2000/svg" p-id="17754" xmlns:xlink="http://www.w3.org/1999/xlink" width="200" height="200"><defs><style type="text/css"></style></defs><path d="M511.957 432l309.957 527.586H202L511.957 432z m0 63.173L257.914 927.586H766L511.957 495.173z" fill="#333333" p-id="17755"></path><path d="M81.721 1024h333.63c35.736-0.137 64.649-29.1 64.649-64.787 0-35.78-29.058-64.787-64.904-64.787-2.349 0-4.68 0.124-6.985 0.37l-20.484 2.18 0.065-20.563v-0.415c0-71.244-57.858-128.998-129.23-128.998-61.3 0-113.82 42.944-126.404 102.019l-4.26 19.996-19.484-6.296c-8.163-2.638-16.741-3.998-25.526-3.998-45.722 0-82.788 37-82.788 82.64 0 44.85 35.844 81.486 80.657 82.612l1.064 0.027zM625.721 1024h333.63c35.736-0.137 64.649-29.1 64.649-64.787 0-35.78-29.058-64.787-64.904-64.787-2.349 0-4.68 0.124-6.985 0.37l-20.484 2.18 0.065-20.563v-0.415c0-71.244-57.858-128.998-129.23-128.998-61.3 0-113.82 42.944-126.404 102.019l-4.26 19.996-19.484-6.296c-8.163-2.638-16.741-3.998-25.526-3.998-45.722 0-82.788 37-82.788 82.64 0 44.85 35.844 81.486 80.657 82.612l1.064 0.027z" fill="#7FC8FF" p-id="17756"></path><path d="M81.721 1023h333.63c35.736-0.137 64.649-29.1 64.649-64.787 0-35.78-29.058-64.787-64.904-64.787-2.349 0-4.68 0.124-6.985 0.37l-20.484 2.18 0.065-20.563v-0.415c0-71.244-57.858-128.998-129.23-128.998-61.3 0-113.82 42.944-126.404 102.019l-4.26 19.996-19.484-6.296c-8.163-2.638-16.741-3.998-25.526-3.998-45.722 0-82.788 37-82.788 82.64 0 44.85 35.844 81.486 80.657 82.612l1.064 0.027z m-0.26-31.959C53.978 990.351 32 967.855 32 940.361c0-28 22.739-50.697 50.788-50.697 5.405 0 10.659 0.825 15.67 2.445l53.258 17.208 11.642-54.655c9.495-44.576 49.17-76.72 95.104-76.72 53.699 0 97.23 43.454 97.23 97.056v0.315l-0.177 56.205 55.99-5.96a33.91 33.91 0 0 1 3.591-0.19c18.172 0 32.904 14.706 32.904 32.845 0 18.073-14.629 32.748-32.72 32.844H82.124l-0.662-0.016zM625.721 1023h333.63c35.736-0.137 64.649-29.1 64.649-64.787 0-35.78-29.058-64.787-64.904-64.787-2.349 0-4.68 0.124-6.985 0.37l-20.484 2.18 0.065-20.563v-0.415c0-71.244-57.858-128.998-129.23-128.998-61.3 0-113.82 42.944-126.404 102.019l-4.26 19.996-19.484-6.296c-8.163-2.638-16.741-3.998-25.526-3.998-45.722 0-82.788 37-82.788 82.64 0 44.85 35.844 81.486 80.657 82.612l1.064 0.027z m-0.26-31.959c-27.484-0.69-49.461-23.186-49.461-50.68 0-28 22.739-50.697 50.788-50.697 5.405 0 10.659 0.825 15.67 2.445l53.258 17.208 11.642-54.655c9.495-44.576 49.17-76.72 95.104-76.72 53.699 0 97.23 43.454 97.23 97.056v0.315l-0.177 56.205 55.99-5.96a33.91 33.91 0 0 1 3.591-0.19c18.172 0 32.904 14.706 32.904 32.845 0 18.073-14.629 32.748-32.72 32.844H626.124l-0.662-0.016z" fill="#333333" p-id="17757"></path><path d="M237.65 513h578.292C877.885 512.761 928 462.47 928 400.5c0-62.132-50.368-112.5-112.5-112.5-4.072 0-8.11 0.215-12.108 0.641l-35.505 3.787 0.112-35.707L768 256c0-123.712-100.288-224-224-224-106.254 0-197.288 74.57-219.1 177.152l-7.383 34.722-33.773-10.933c-14.15-4.58-29.017-6.941-44.244-6.941C160.247 226 96 290.247 96 369.5c0 77.88 62.13 141.499 139.805 143.454l1.845 0.046z" fill="#FFFFFF" p-id="17758"></path><path d="M237.65 545h578.292C877.885 544.761 928 494.47 928 432.5c0-62.132-50.368-112.5-112.5-112.5-4.072 0-8.11 0.215-12.108 0.641l-35.505 3.787 0.112-35.707L768 288c0-123.712-100.288-224-224-224-106.254 0-197.288 74.57-219.1 177.152l-7.383 34.722-33.773-10.933c-14.15-4.58-29.017-6.941-44.244-6.941C160.247 258 96 322.247 96 401.5c0 77.88 62.13 141.499 139.805 143.454l1.845 0.046z" fill="#0091FF" p-id="17759"></path><path d="M64 369.5C64 272.574 142.574 194 239.5 194c18.878 0 37.06 2.98 54.1 8.497C318.2 86.795 420.964 0 544 0c141.385 0 256 114.615 256 256l-0.001 0.822A146.135 146.135 0 0 1 815.5 256c79.805 0 144.5 64.695 144.5 144.5 0 79.638-64.425 144.23-144 144.5H235v-0.057C140.154 542.556 64 464.921 64 369.5zM237.65 513h578.292C877.885 512.761 928 462.47 928 400.5c0-62.132-50.368-112.5-112.5-112.5-4.072 0-8.11 0.215-12.108 0.641l-35.505 3.787 0.112-35.707L768 256c0-123.712-100.288-224-224-224-106.254 0-197.288 74.57-219.1 177.152l-7.383 34.722-33.773-10.933c-14.15-4.58-29.017-6.941-44.244-6.941C160.247 226 96 290.247 96 369.5c0 77.88 62.13 141.499 139.805 143.454l1.845 0.046z" fill="#333333" p-id="17760"></path></svg>