<?xml version="1.0" standalone="no"?><!DOCTYPE svg PUBLIC "-//W3C//DTD SVG 1.1//EN" "http://www.w3.org/Graphics/SVG/1.1/DTD/svg11.dtd"><svg t="1658107800028" class="icon" viewBox="0 0 1024 1024" version="1.1" xmlns="http://www.w3.org/2000/svg" p-id="16131" xmlns:xlink="http://www.w3.org/1999/xlink" width="200" height="200"><defs><style type="text/css"></style></defs><path d="M0 0h1024v1024H0z" fill="#7FC8FF" p-id="16132"></path><path d="M512 0l512 512-512 512L0 512z" fill="#0091FF" p-id="16133"></path><path d="M256 256h512v512H256z" fill="#7FC8FF" p-id="16134"></path><path d="M512 256l256 256-256 256-256-256z" fill="#0091FF" p-id="16135"></path><path d="M1024 0v1024H0V0h1024z m-32 32H32v960h960V32z" fill="#333333" p-id="16136"></path><path d="M512 0l512 512-512 512L0 512 512 0z m0 45.255L45.255 512 512 978.745 978.745 512 512 45.255z" fill="#333333" p-id="16137"></path><path d="M512 256l256 256-256 256-256-256 256-256z m0 45.255L301.255 512 512 722.745 722.745 512 512 301.255z" fill="#FFFFFF" p-id="16138"></path><path d="M768 256v512H256V256h512z m-32 32H288v448h448V288z" fill="#333333" p-id="16139"></path></svg>