<?xml version="1.0" standalone="no"?><!DOCTYPE svg PUBLIC "-//W3C//DTD SVG 1.1//EN" "http://www.w3.org/Graphics/SVG/1.1/DTD/svg11.dtd"><svg t="1658110032327" class="icon" viewBox="0 0 1024 1024" version="1.1" xmlns="http://www.w3.org/2000/svg" p-id="10827" xmlns:xlink="http://www.w3.org/1999/xlink" width="200" height="200"><defs><style type="text/css"></style></defs><path d="M256 0h768v896H256V0z m32 32v832h704V32H288z" fill="#333333" p-id="10828"></path><path d="M288 32v832h704V32z" fill="#7FC8FF" p-id="10829"></path><path d="M32 160v832h704V160z" fill="#FFFFFF" p-id="10830"></path><path d="M32 192v832h704V192z" fill="#0091FF" p-id="10831"></path><path d="M0 128h768v896H0V128z m32 32v832h704V160H32z" fill="#333333" p-id="10832"></path><path d="M112 512h32v256h-32V512z m128-128h32v384h-32V384z m128 192h32v192h-32V576z m128-128h32v320h-32V448z m128 64h32v256h-32V512z" fill="#FFFFFF" p-id="10833"></path></svg>