<?xml version="1.0" standalone="no"?><!DOCTYPE svg PUBLIC "-//W3C//DTD SVG 1.1//EN" "http://www.w3.org/Graphics/SVG/1.1/DTD/svg11.dtd"><svg t="1658107870974" class="icon" viewBox="0 0 1024 1024" version="1.1" xmlns="http://www.w3.org/2000/svg" p-id="18795" xmlns:xlink="http://www.w3.org/1999/xlink" width="200" height="200"><defs><style type="text/css"></style></defs><path d="M0 0h896v832H0z" fill="#7FC8FF" p-id="18796"></path><path d="M0 0h896v832H0V0z m32 32v768h832V32H32z" fill="#333333" p-id="18797"></path><path d="M96 320h32v320H96V320z m96-128h32v448h-32V192z m96 207h32v241h-32V399z m96 81h32v160h-32V480z m96-137h32v297h-32V343z m96-77h32v374h-32V266z m96-74h32v448h-32V192z m96 243h32v205h-32V435z" fill="#FFFFFF" p-id="18798"></path><path d="M736 736m-288 0a288 288 0 1 0 576 0 288 288 0 1 0-576 0Z" fill="#0091FF" p-id="18799"></path><path d="M736 1024c159.058 0 288-128.942 288-288S895.058 448 736 448 448 576.942 448 736s128.942 288 288 288z m0-32c-141.385 0-256-114.615-256-256s114.615-256 256-256 256 114.615 256 256-114.615 256-256 256z" fill="#333333" p-id="18800"></path><path d="M695.287 640.824l61.709 250.998c3.939 16.024 26.614 16.32 30.97 0.404l31.803-116.224h116.464v-32H807.56a16 16 0 0 0-15.433 11.777l-18.765 68.576-60.03-244.175c-3.815-15.515-25.513-16.472-30.678-1.353l-56.434 165.175H536v32h101.661a16 16 0 0 0 15.14-10.827l42.486-124.351z" fill="#FFFFFF" p-id="18801"></path></svg>