<?xml version="1.0" standalone="no"?><!DOCTYPE svg PUBLIC "-//W3C//DTD SVG 1.1//EN" "http://www.w3.org/Graphics/SVG/1.1/DTD/svg11.dtd"><svg t="1658107814447" class="icon" viewBox="0 0 1024 1024" version="1.1" xmlns="http://www.w3.org/2000/svg" p-id="16427" xmlns:xlink="http://www.w3.org/1999/xlink" width="200" height="200"><defs><style type="text/css"></style></defs><path d="M128 992h576v32H128z" fill="#333333" p-id="16428"></path><path d="M400 896h32v128h-32z" fill="#333333" p-id="16429"></path><path d="M32 288v608h768V288z" fill="#7FC8FF" p-id="16430"></path><path d="M0 256h832v640H0V256z m32 32v576h768V288H32z" fill="#333333" p-id="16431"></path><path d="M544 640h32v149h-32zM640 576h32v213h-32zM736 524h32v265h-32z" fill="#FFFFFF" p-id="16432"></path><path d="M293 347c117.637 0 213 95.363 213 213 0 5.382-0.2 10.718-0.592 16H293V347z m32 197h148.303C466.139 462.207 404.572 396.015 325 381.82V544z" fill="#FFFFFF" p-id="16433"></path><path d="M277 363v229h212.408C481.227 702.163 389.254 789 277 789c-117.637 0-213-95.363-213-213s95.363-213 213-213zM96 576c0 99.964 81.036 181 181 181 82.972 0 153.497-56.043 174.58-133H245V397.82C160.3 412.93 96 486.956 96 576z" fill="#FFFFFF" p-id="16434"></path><path d="M736 576c159.058 0 288-128.942 288-288S895.058 0 736 0 448 128.942 448 288s128.942 288 288 288z" fill="#0091FF" p-id="16435"></path><path d="M736 576c159.058 0 288-128.942 288-288S895.058 0 736 0 448 128.942 448 288s128.942 288 288 288z m0-32c-141.385 0-256-114.615-256-256S594.615 32 736 32s256 114.615 256 256-114.615 256-256 256z" fill="#333333" p-id="16436"></path><path d="M640 160v-16h64v16h192v32H704v16h-64v-16h-64v-32h64z m0 224v-16h64v16h192v32H704v16h-64v-16h-64v-32h64z m128-112v-16h64v16h64v32h-64v16h-64v-16H576v-32h192z" fill="#FFFFFF" p-id="16437"></path></svg>