<?xml version="1.0" standalone="no"?><!DOCTYPE svg PUBLIC "-//W3C//DTD SVG 1.1//EN" "http://www.w3.org/Graphics/SVG/1.1/DTD/svg11.dtd"><svg t="1658110070780" class="icon" viewBox="0 0 1024 1024" version="1.1" xmlns="http://www.w3.org/2000/svg" p-id="12026" xmlns:xlink="http://www.w3.org/1999/xlink" width="200" height="200"><defs><style type="text/css"></style></defs><path d="M448 0h576v448H448V0z m32 32v384h512V32H480z" fill="#333333" p-id="12027"></path><path d="M32 320v576h768V320z" fill="#0091FF" p-id="12028"></path><path d="M0 256h832v640H0V256z m32 32v576h768V288H32z" fill="#333333" p-id="12029"></path><path d="M425.31 619.98L397.857 756 536.72 535.982l-126.505 24.651L449.285 396H346.43L295 653.143z" fill="#FFFFFF" p-id="12030"></path><path d="M128 992h576v32H128z" fill="#333333" p-id="12031"></path><path d="M400 896h32v128h-32z" fill="#333333" p-id="12032"></path><path d="M464 16v416h544V16H464z" fill="#7FC8FF" p-id="12033"></path><path d="M741.395 248.433L726.143 324l77.146-122.232-70.28 13.695L754.713 124h-57.143L669 266.857z" fill="#FFFFFF" p-id="12034"></path></svg>