<?xml version="1.0" standalone="no"?><!DOCTYPE svg PUBLIC "-//W3C//DTD SVG 1.1//EN" "http://www.w3.org/Graphics/SVG/1.1/DTD/svg11.dtd"><svg t="1658109996114" class="icon" viewBox="0 0 1024 1024" version="1.1" xmlns="http://www.w3.org/2000/svg" p-id="9471" xmlns:xlink="http://www.w3.org/1999/xlink" width="200" height="200"><defs><style type="text/css"></style></defs><path d="M32 320v576h768V320z" fill="#0091FF" p-id="9472"></path><path d="M227.23 576l58.083 87.124c4.901 7.352 2.915 17.286-4.438 22.188-7.352 4.902-17.286 2.915-22.188-4.438l-64-96a16 16 0 0 1 0-17.75l64-96c4.902-7.352 14.836-9.34 22.188-4.438 7.353 4.902 9.34 14.836 4.438 22.188L227.23 576z m319.459-87.126c-4.902-7.352-2.915-17.286 4.437-22.188 7.353-4.901 17.287-2.914 22.189 4.438l64 96a16 16 0 0 1 0 17.75l-64 96c-4.902 7.353-14.836 9.34-22.189 4.438-7.352-4.902-9.339-14.836-4.437-22.188l58.083-87.125-58.083-87.125zM480 465.146c7.653 4.419 10.275 14.204 5.856 21.857l-112 193.99c-4.418 7.652-14.203 10.274-21.856 5.856-7.653-4.419-10.275-14.204-5.856-21.857l112-193.99c4.418-7.652 14.203-10.274 21.856-5.856z" fill="#FFFFFF" p-id="9473"></path><path d="M0 256h832v640H0V256z m32 32v576h768V288H32z" fill="#333333" p-id="9474"></path><path d="M128 992h576v32H128z" fill="#333333" p-id="9475"></path><path d="M400 896h32v128h-32z" fill="#333333" p-id="9476"></path><path d="M448 0h576v448H448z" fill="#7FC8FF" p-id="9477"></path><path d="M547.23 224l58.083 87.124c4.901 7.352 2.915 17.286-4.438 22.188-7.352 4.902-17.286 2.915-22.188-4.438l-64-96a16 16 0 0 1 0-17.75l64-96c4.902-7.352 14.836-9.34 22.188-4.438 7.353 4.902 9.34 14.836 4.438 22.188L547.23 224z m319.459-87.126c-4.902-7.352-2.915-17.286 4.437-22.188 7.353-4.901 17.287-2.914 22.189 4.438l64 96a16 16 0 0 1 0 17.75l-64 96c-4.902 7.353-14.836 9.34-22.189 4.438-7.352-4.902-9.339-14.836-4.437-22.188l58.083-87.125-58.083-87.125zM800 113.146c7.653 4.419 10.275 14.204 5.856 21.857l-112 193.99c-4.418 7.652-14.203 10.274-21.856 5.856-7.653-4.419-10.275-14.204-5.856-21.857l112-193.99c4.418-7.652 14.203-10.274 21.856-5.856z" fill="#FFFFFF" p-id="9478"></path><path d="M448 0h576v448H448V0z m32 32v384h512V32H480z" fill="#333333" p-id="9479"></path></svg>