<?xml version="1.0" standalone="no"?><!DOCTYPE svg PUBLIC "-//W3C//DTD SVG 1.1//EN" "http://www.w3.org/Graphics/SVG/1.1/DTD/svg11.dtd"><svg t="1658107840810" class="icon" viewBox="0 0 1024 1024" version="1.1" xmlns="http://www.w3.org/2000/svg" p-id="17456" xmlns:xlink="http://www.w3.org/1999/xlink" width="200" height="200"><defs><style type="text/css"></style></defs><path d="M128 992h576v32H128z" fill="#333333" p-id="17457"></path><path d="M400 896h32v128h-32z" fill="#333333" p-id="17458"></path><path d="M32 288v608h768V288z" fill="#7FC8FF" p-id="17459"></path><path d="M0 256h832v640H0V256z m32 32v576h768V288H32z" fill="#333333" p-id="17460"></path><path d="M544 640h32v149h-32zM640 576h32v213h-32zM736 524h32v265h-32z" fill="#FFFFFF" p-id="17461"></path><path d="M293 347c117.637 0 213 95.363 213 213 0 5.382-0.2 10.718-0.592 16H293V347z m32 197h148.303C466.139 462.207 404.572 396.015 325 381.82V544z" fill="#FFFFFF" p-id="17462"></path><path d="M277 363v229h212.408C481.227 702.163 389.254 789 277 789c-117.637 0-213-95.363-213-213s95.363-213 213-213zM96 576c0 99.964 81.036 181 181 181 82.972 0 153.497-56.043 174.58-133H245V397.82C160.3 412.93 96 486.956 96 576z" fill="#FFFFFF" p-id="17463"></path><path d="M736 576c159.058 0 288-128.942 288-288S895.058 0 736 0 448 128.942 448 288s128.942 288 288 288z" fill="#0091FF" p-id="17464"></path><path d="M736 576c159.058 0 288-128.942 288-288S895.058 0 736 0 448 128.942 448 288s128.942 288 288 288z m0-32c-141.385 0-256-114.615-256-256S594.615 32 736 32s256 114.615 256 256-114.615 256-256 256z" fill="#333333" p-id="17465"></path><path d="M816.666 232.334C827.597 248.144 834 267.324 834 288c0 20.676-6.403 39.856-17.334 55.666 21.42-13.02 42.037-31.536 61.898-55.666-19.861-24.13-40.478-42.646-61.898-55.666zM655.334 343.666C644.403 327.856 638 308.676 638 288c0-20.676 6.403-39.856 17.334-55.666-21.42 13.02-42.037 31.536-61.898 55.666 19.861 24.13 40.478 42.646 61.898 55.666zM736 399c-65.451 0-124.218-34.25-175.688-101.253a16 16 0 0 1 0-19.494C611.782 211.251 670.549 177 736 177s124.218 34.25 175.688 101.253a16 16 0 0 1 0 19.494C860.218 364.749 801.451 399 736 399z m0-45c36.45 0 66-29.55 66-66s-29.55-66-66-66-66 29.55-66 66 29.55 66 66 66z" fill="#FFFFFF" p-id="17466"></path></svg>