<?xml version="1.0" standalone="no"?><!DOCTYPE svg PUBLIC "-//W3C//DTD SVG 1.1//EN" "http://www.w3.org/Graphics/SVG/1.1/DTD/svg11.dtd"><svg t="1658107837316" class="icon" viewBox="0 0 1024 1024" version="1.1" xmlns="http://www.w3.org/2000/svg" p-id="17308" xmlns:xlink="http://www.w3.org/1999/xlink" width="200" height="200"><defs><style type="text/css"></style></defs><path d="M32 320v576h672V320z" fill="#FFFFFF" p-id="17309"></path><path d="M32 352v576h672V352z" fill="#0091FF" p-id="17310"></path><path d="M0 288v640h736V288H0z m32 32h672v576H32V320z" fill="#333333" p-id="17311"></path><path d="M179.23 640l58.083 87.124c4.901 7.352 2.915 17.286-4.438 22.188-7.352 4.902-17.286 2.915-22.188-4.438l-64-96a16 16 0 0 1 0-17.75l64-96c4.902-7.352 14.836-9.34 22.188-4.438 7.353 4.902 9.34 14.836 4.438 22.188L179.23 640z m319.459-87.126c-4.902-7.352-2.915-17.286 4.437-22.188 7.353-4.901 17.287-2.914 22.189 4.438l64 96a16 16 0 0 1 0 17.75l-64 96c-4.902 7.353-14.836 9.34-22.189 4.438-7.352-4.902-9.339-14.836-4.437-22.188l58.083-87.125-58.083-87.125zM432 529.146c7.653 4.419 10.275 14.204 5.856 21.857l-112 193.99c-4.418 7.652-14.203 10.274-21.856 5.856-7.653-4.419-10.275-14.204-5.856-21.857l112-193.99c4.418-7.652 14.203-10.274 21.856-5.856z" fill="#FFFFFF" p-id="17312"></path><path d="M80 992h576v32H80z" fill="#333333" p-id="17313"></path><path d="M352 896h32v128h-32z" fill="#333333" p-id="17314"></path><path d="M576 0h448v448H576z" fill="#7FC8FF" p-id="17315"></path><path d="M576 0h448v448H576V0z m32 32v384h384V32H608z" fill="#333333" p-id="17316"></path><path d="M889.585 112H800c-8.837 0-16-7.163-16-16s7.163-16 16-16h128c8.837 0 16 7.163 16 16v128c0 8.837-7.163 16-16 16s-16-7.163-16-16v-89.154L726.415 324H816c8.837 0 16 7.163 16 16s-7.163 16-16 16H688c-8.837 0-16-7.163-16-16V212c0-8.837 7.163-16 16-16s16 7.163 16 16v89.154L889.585 112z" fill="#FFFFFF" p-id="17317"></path></svg>