<?xml version="1.0" standalone="no"?><!DOCTYPE svg PUBLIC "-//W3C//DTD SVG 1.1//EN" "http://www.w3.org/Graphics/SVG/1.1/DTD/svg11.dtd"><svg t="1658107817999" class="icon" viewBox="0 0 1024 1024" version="1.1" xmlns="http://www.w3.org/2000/svg" p-id="16576" xmlns:xlink="http://www.w3.org/1999/xlink" width="200" height="200"><defs><style type="text/css"></style></defs><path d="M32 320v576h768V320z" fill="#0091FF" p-id="16577"></path><path d="M479.5 704c35.346 0 64 28.654 64 64 0 35.346-28.654 64-64 64h-128c-35.346 0-64-28.654-64-64 0-35.346 28.654-64 64-64h128zM258 594l0.315 0.003C267.006 594.171 274 601.269 274 610s-6.994 15.83-15.685 15.997L258 626h-16.75l-1.046 0.008c-34.45 0.559-62.204 28.66-62.204 63.242 0 34.003 26.832 61.739 60.477 63.19l1.022 0.036 0.001-14.976 23.9 15.934a16.013 16.013 0 0 1 6.103 3.944l0.311 0.332L287.5 769.5l-48 32v-17.016c-51.798-0.933-93.5-43.214-93.5-95.234 0-52.08 41.796-94.396 93.675-95.237l1.575-0.013H258z m221.5 142h-128c-17.673 0-32 14.327-32 32 0 17.496 14.042 31.713 31.47 31.996l0.53 0.004h128c17.673 0 32-14.327 32-32 0-17.496-14.042-31.713-31.47-31.996l-0.53-0.004z m0-192c35.346 0 64 28.654 64 64 0 35.346-28.654 64-64 64h-128c-35.346 0-64-28.654-64-64 0-35.346 28.654-64 64-64h128z m110.75-111c52.605 0 95.25 42.645 95.25 95.25 0 52.02-41.702 94.3-93.5 95.234V640.5l-48-32 17.686-11.79a16.02 16.02 0 0 1 6.413-4.276L592 576.5l0.001 14.976c34.123-0.927 61.499-28.88 61.499-63.226 0-34.583-27.754-62.683-62.204-63.242L590.25 465H573.5c-8.837 0-16-7.163-16-16 0-8.731 6.994-15.83 15.685-15.997l0.315-0.003h16.75zM479.5 576h-128c-17.673 0-32 14.327-32 32 0 17.496 14.042 31.713 31.47 31.996l0.53 0.004h128c17.673 0 32-14.327 32-32 0-17.496-14.042-31.713-31.47-31.996l-0.53-0.004z m0-192c35.346 0 64 28.654 64 64 0 35.346-28.654 64-64 64h-128c-35.346 0-64-28.654-64-64 0-35.346 28.654-64 64-64h128z m0 32h-128c-17.673 0-32 14.327-32 32 0 17.496 14.042 31.713 31.47 31.996l0.53 0.004h128c17.673 0 32-14.327 32-32 0-17.496-14.042-31.713-31.47-31.996l-0.53-0.004z" fill="#FFFFFF" p-id="16578"></path><path d="M0 256h832v640H0V256z m32 32v576h768V288H32z" fill="#333333" p-id="16579"></path><path d="M128 992h576v32H128z" fill="#333333" p-id="16580"></path><path d="M400 896h32v128h-32z" fill="#333333" p-id="16581"></path><path d="M448 0h576v448H448z" fill="#7FC8FF" p-id="16582"></path><path d="M547.23 224l58.083 87.124c4.901 7.352 2.915 17.286-4.438 22.188-7.352 4.902-17.286 2.915-22.188-4.438l-64-96a16 16 0 0 1 0-17.75l64-96c4.902-7.352 14.836-9.34 22.188-4.438 7.353 4.902 9.34 14.836 4.438 22.188L547.23 224z m319.459-87.126c-4.902-7.352-2.915-17.286 4.437-22.188 7.353-4.901 17.287-2.914 22.189 4.438l64 96a16 16 0 0 1 0 17.75l-64 96c-4.902 7.353-14.836 9.34-22.189 4.438-7.352-4.902-9.339-14.836-4.437-22.188l58.083-87.125-58.083-87.125zM800 113.146c7.653 4.419 10.275 14.204 5.856 21.857l-112 193.99c-4.418 7.652-14.203 10.274-21.856 5.856-7.653-4.419-10.275-14.204-5.856-21.857l112-193.99c4.418-7.652 14.203-10.274 21.856-5.856z" fill="#FFFFFF" p-id="16583"></path><path d="M448 0h576v448H448V0z m32 32v384h512V32H480z" fill="#333333" p-id="16584"></path></svg>