<?xml version="1.0" standalone="no"?><!DOCTYPE svg PUBLIC "-//W3C//DTD SVG 1.1//EN" "http://www.w3.org/Graphics/SVG/1.1/DTD/svg11.dtd"><svg t="1658110076690" class="icon" viewBox="0 0 1024 1024" version="1.1" xmlns="http://www.w3.org/2000/svg" p-id="12339" xmlns:xlink="http://www.w3.org/1999/xlink" width="200" height="200"><defs><style type="text/css"></style></defs><path d="M0 0h895.999125v1023.999H0z" fill="#7FC8FF" p-id="12340"></path><path d="M0 0h895.999125v1023.999H0V0z m31.999969 31.999969v959.999062h831.999187V31.999969H31.999969z" fill="#333333" p-id="12341"></path><path d="M79.999922 186.999817c-8.836991 0-15.999984-7.162993-15.999984-15.999984s7.162993-15.999984 15.999984-15.999984 15.999984 7.162993 15.999984 15.999984-7.162993 15.999984-15.999984 15.999984z m63.999937 0c-8.836991 0-15.999984-7.162993-15.999984-15.999984s7.162993-15.999984 15.999984-15.999984 15.999984 7.162993 15.999985 15.999984-7.162993 15.999984-15.999985 15.999984z m63.999938 0c-8.836991 0-15.999984-7.162993-15.999984-15.999984s7.162993-15.999984 15.999984-15.999984 15.999984 7.162993 15.999984 15.999984-7.162993 15.999984-15.999984 15.999984z m63.999937 0c-8.836991 0-15.999984-7.162993-15.999984-15.999984s7.162993-15.999984 15.999984-15.999984 15.999984 7.162993 15.999985 15.999984-7.162993 15.999984-15.999985 15.999984z m319.999688 0c-8.836991 0-15.999984-7.162993-15.999984-15.999984s7.162993-15.999984 15.999984-15.999984 15.999984 7.162993 15.999984 15.999984-7.162993 15.999984-15.999984 15.999984z m63.999937 0c-8.836991 0-15.999984-7.162993-15.999984-15.999984s7.162993-15.999984 15.999984-15.999984 15.999984 7.162993 15.999985 15.999984-7.162993 15.999984-15.999985 15.999984z m63.999938 0c-8.836991 0-15.999984-7.162993-15.999984-15.999984s7.162993-15.999984 15.999984-15.999984 15.999984 7.162993 15.999984 15.999984-7.162993 15.999984-15.999984 15.999984z m63.999937 0c-8.836991 0-15.999984-7.162993-15.999984-15.999984s7.162993-15.999984 15.999984-15.999984 15.999984 7.162993 15.999985 15.999984-7.162993 15.999984-15.999985 15.999984zM319.999688 74.999927h31.999968v191.999812h-31.999968V74.999927z m63.999937 0h31.999969v191.999812h-31.999969V74.999927z m63.999938 0h31.999968v191.999812h-31.999968V74.999927z m63.999937 0h31.999969v191.999812h-31.999969V74.999927zM79.999922 528.999483c-8.836991 0-15.999984-7.162993-15.999984-15.999984s7.162993-15.999984 15.999984-15.999984 15.999984 7.162993 15.999984 15.999984-7.162993 15.999984-15.999984 15.999984z m63.999937 0c-8.836991 0-15.999984-7.162993-15.999984-15.999984s7.162993-15.999984 15.999984-15.999984 15.999984 7.162993 15.999985 15.999984-7.162993 15.999984-15.999985 15.999984z m63.999938 0c-8.836991 0-15.999984-7.162993-15.999984-15.999984s7.162993-15.999984 15.999984-15.999984 15.999984 7.162993 15.999984 15.999984-7.162993 15.999984-15.999984 15.999984z m63.999937 0c-8.836991 0-15.999984-7.162993-15.999984-15.999984s7.162993-15.999984 15.999984-15.999984 15.999984 7.162993 15.999985 15.999984-7.162993 15.999984-15.999985 15.999984z m319.999688 0c-8.836991 0-15.999984-7.162993-15.999984-15.999984s7.162993-15.999984 15.999984-15.999984 15.999984 7.162993 15.999984 15.999984-7.162993 15.999984-15.999984 15.999984z m63.999937 0c-8.836991 0-15.999984-7.162993-15.999984-15.999984s7.162993-15.999984 15.999984-15.999984 15.999984 7.162993 15.999985 15.999984-7.162993 15.999984-15.999985 15.999984z m63.999938 0c-8.836991 0-15.999984-7.162993-15.999984-15.999984s7.162993-15.999984 15.999984-15.999984 15.999984 7.162993 15.999984 15.999984-7.162993 15.999984-15.999984 15.999984z m63.999937 0c-8.836991 0-15.999984-7.162993-15.999984-15.999984s7.162993-15.999984 15.999984-15.999984 15.999984 7.162993 15.999985 15.999984-7.162993 15.999984-15.999985 15.999984zM319.999688 416.999593h31.999968v191.999812h-31.999968V416.999593z m63.999937 0h31.999969v191.999812h-31.999969V416.999593z m63.999938 0h31.999968v191.999812h-31.999968V416.999593z m63.999937 0h31.999969v191.999812h-31.999969V416.999593z" fill="#FFFFFF" p-id="12342"></path><path d="M0 308.999698h895.999125v31.999969H0zM0 650.999364h895.999125v31.999969H0z" fill="#333333" p-id="12343"></path><path d="M79.999922 870.999149c-8.836991 0-15.999984-7.162993-15.999984-15.999984s7.162993-15.999984 15.999984-15.999984 15.999984 7.162993 15.999984 15.999984-7.162993 15.999984-15.999984 15.999984z m63.999937 0c-8.836991 0-15.999984-7.162993-15.999984-15.999984s7.162993-15.999984 15.999984-15.999984 15.999984 7.162993 15.999985 15.999984-7.162993 15.999984-15.999985 15.999984z m63.999938 0c-8.836991 0-15.999984-7.162993-15.999984-15.999984s7.162993-15.999984 15.999984-15.999984 15.999984 7.162993 15.999984 15.999984-7.162993 15.999984-15.999984 15.999984z m63.999937 0c-8.836991 0-15.999984-7.162993-15.999984-15.999984s7.162993-15.999984 15.999984-15.999984 15.999984 7.162993 15.999985 15.999984-7.162993 15.999984-15.999985 15.999984z m319.999688 0c-8.836991 0-15.999984-7.162993-15.999984-15.999984s7.162993-15.999984 15.999984-15.999984 15.999984 7.162993 15.999984 15.999984-7.162993 15.999984-15.999984 15.999984z m63.999937 0c-8.836991 0-15.999984-7.162993-15.999984-15.999984s7.162993-15.999984 15.999984-15.999984 15.999984 7.162993 15.999985 15.999984-7.162993 15.999984-15.999985 15.999984z m63.999938 0c-8.836991 0-15.999984-7.162993-15.999984-15.999984s7.162993-15.999984 15.999984-15.999984 15.999984 7.162993 15.999984 15.999984-7.162993 15.999984-15.999984 15.999984z m63.999937 0c-8.836991 0-15.999984-7.162993-15.999984-15.999984s7.162993-15.999984 15.999984-15.999984 15.999984 7.162993 15.999985 15.999984-7.162993 15.999984-15.999985 15.999984zM319.999688 758.999259h31.999968v191.999812h-31.999968V758.999259z m63.999937 0h31.999969v191.999812h-31.999969V758.999259z m63.999938 0h31.999968v191.999812h-31.999968V758.999259z m63.999937 0h31.999969v191.999812h-31.999969V758.999259z" fill="#FFFFFF" p-id="12344"></path><path d="M127.999875 848.499171c0-96.925905 78.573923-175.499829 175.499829-175.499828 18.877982 0 37.059964 2.979997 54.099947 8.496991C382.199627 565.794447 484.963526 478.999532 607.999406 478.999532c141.384862 0 255.99975 114.614888 255.99975 255.99975l-0.001 0.821999A146.134857 146.134857 0 0 1 879.499141 734.999282c79.804922 0 144.499859 64.694937 144.499859 144.499859 0 79.637922-64.424937 144.229859-143.999859 144.499859H298.999708v-0.057c-94.845907-2.386998-170.999833-80.021922-170.999833-175.442829z" fill="#FFFFFF" p-id="12345"></path><path d="M301.649705 1023.999h578.291436C941.88408 1023.76 991.999031 973.469049 991.999031 911.49911c0-62.131939-50.367951-112.49989-112.49989-112.49989-4.071996 0-8.109992 0.215-12.107988 0.640999l-35.504965 3.786996 0.112-35.706965L831.999188 766.999251c0-123.711879-100.287902-223.999781-223.999782-223.999781-106.253896 0-197.287807 74.569927-219.099786 177.151827l-7.382993 34.721966-33.772967-10.93299c-14.149986-4.579996-29.016972-6.940993-44.243956-6.940993-79.252923 0-143.49986 64.246937-143.49986 143.49986 0 77.879924 62.129939 141.498862 139.804863 143.45386l1.844998 0.046z" fill="#0091FF" p-id="12346"></path><path d="M610.999403 682.489334V923.999098h-31.999968V682.019334l-97.372905 97.371905L458.999552 756.764261 594.764419 620.999394l135.763868 135.764867-22.626978 22.626978z" fill="#FFFFFF" p-id="12347"></path><path d="M127.999875 848.499171c0-96.925905 78.573923-175.499829 175.499829-175.499828 18.877982 0 37.059964 2.979997 54.099947 8.496991C382.199627 565.794447 484.963526 478.999532 607.999406 478.999532c141.384862 0 255.99975 114.614888 255.99975 255.99975l-0.001 0.821999A146.134857 146.134857 0 0 1 879.499141 734.999282c79.804922 0 144.499859 64.694937 144.499859 144.499859 0 79.637922-64.424937 144.229859-143.999859 144.499859H298.999708v-0.057c-94.845907-2.386998-170.999833-80.021922-170.999833-175.442829zM301.649705 991.999031h578.291436C941.88408 991.760031 991.999031 941.469081 991.999031 879.499141c0-62.131939-50.367951-112.49989-112.49989-112.49989-4.071996 0-8.109992 0.215-12.107988 0.640999l-35.504965 3.786997 0.112-35.706965L831.999188 734.999282c0-123.711879-100.287902-223.999781-223.999782-223.999781-106.253896 0-197.287807 74.569927-219.099786 177.151827l-7.382993 34.721966-33.772967-10.932989c-14.149986-4.579996-29.016972-6.940993-44.243956-6.940993-79.252923 0-143.49986 64.246937-143.49986 143.499859 0 77.879924 62.129939 141.498862 139.804863 143.45386l1.844998 0.046z" fill="#333333" p-id="12348"></path></svg>