<?xml version="1.0" standalone="no"?><!DOCTYPE svg PUBLIC "-//W3C//DTD SVG 1.1//EN" "http://www.w3.org/Graphics/SVG/1.1/DTD/svg11.dtd"><svg t="1658110067893" class="icon" viewBox="0 0 1024 1024" version="1.1" xmlns="http://www.w3.org/2000/svg" p-id="11876" xmlns:xlink="http://www.w3.org/1999/xlink" width="200" height="200"><defs><style type="text/css"></style></defs><path d="M16 80h366v864H16zM642 80h366v864H642z" fill="#7FC8FF" p-id="11877"></path><path d="M0 64h398v896H0V64z m32 32v832h334V96H32zM626 64h398v896H626V64z m32 32v832h334V96H658z" fill="#333333" p-id="11878"></path><path d="M272 64v960h480V64z" fill="#0091FF" p-id="11879"></path><path d="M240 0h544v1024H240V0z m32 32v960h480V32H272z" fill="#333333" p-id="11880"></path><path d="M320 192c-8.837 0-16-7.163-16-16s7.163-16 16-16 16 7.163 16 16-7.163 16-16 16z m64 0c-8.837 0-16-7.163-16-16s7.163-16 16-16 16 7.163 16 16-7.163 16-16 16z m64 0c-8.837 0-16-7.163-16-16s7.163-16 16-16 16 7.163 16 16-7.163 16-16 16z m128-32h128c8.837 0 16 7.163 16 16s-7.163 16-16 16H576c-8.837 0-16-7.163-16-16s7.163-16 16-16zM320 512c-8.837 0-16-7.163-16-16s7.163-16 16-16 16 7.163 16 16-7.163 16-16 16z m64 0c-8.837 0-16-7.163-16-16s7.163-16 16-16 16 7.163 16 16-7.163 16-16 16z m64 0c-8.837 0-16-7.163-16-16s7.163-16 16-16 16 7.163 16 16-7.163 16-16 16z m128-32h128c8.837 0 16 7.163 16 16s-7.163 16-16 16H576c-8.837 0-16-7.163-16-16s7.163-16 16-16z" fill="#FFFFFF" p-id="11881"></path><path d="M256 320h512v32H256zM256 640h512v32H256z" fill="#333333" p-id="11882"></path><path d="M320 832c-8.837 0-16-7.163-16-16s7.163-16 16-16 16 7.163 16 16-7.163 16-16 16z m64 0c-8.837 0-16-7.163-16-16s7.163-16 16-16 16 7.163 16 16-7.163 16-16 16z m64 0c-8.837 0-16-7.163-16-16s7.163-16 16-16 16 7.163 16 16-7.163 16-16 16z m128-32h128c8.837 0 16 7.163 16 16s-7.163 16-16 16H576c-8.837 0-16-7.163-16-16s7.163-16 16-16z" fill="#FFFFFF" p-id="11883"></path></svg>