<?xml version="1.0" standalone="no"?><!DOCTYPE svg PUBLIC "-//W3C//DTD SVG 1.1//EN" "http://www.w3.org/Graphics/SVG/1.1/DTD/svg11.dtd"><svg t="1676083031029" class="icon" viewBox="0 0 1024 1024" version="1.1" xmlns="http://www.w3.org/2000/svg" p-id="14768" xmlns:xlink="http://www.w3.org/1999/xlink" width="200" height="200"><path d="M872.33592 142.646766c45.75395 0 83.117214 36.782488 83.993473 82.414169l0.015284 1.630249v145.29592c-0.086607 23.205572-2.470846 38.85596-29.293533 56.651145-51.821532 27.790647-66.641512 46.951164-66.641512 85.929393 0 3.535602 0.132458 6.918368 0.407562 10.173771L610.069652 524.736318a31.840796 31.840796 0 0 0-31.840796 31.840796v318.407961c0 4.009393 0.738706 7.845572 2.088756 11.376079H152.784876c-45.759045 0-83.122308-36.869095-83.993473-82.46002l-0.015284-1.630248v-144.521553c0.117174-11.880438 3.372577-39.390886 29.48203-56.681711l1.56402-1.008717 2.628776-1.222686c28.936915-9.822249 62.255124-28.193114 62.255125-84.263483 0-49.371065-45.422806-75.857512-64.975602-85.063323-28.121791-15.130746-30.857552-34.194468-30.949254-57.542687L68.776119 226.696279c0-45.845652 36.823244-83.163065 82.378508-84.034229l1.630249-0.015284h719.551044zM310.11407 351.996179a23.149532 23.149532 0 0 0-0.219065 32.941214l86.418468 85.934488v14.743562H327.150169c-12.894249 0-23.353313 10.357174-23.353313 23.139343s10.459065 23.144438 23.353313 23.144438h69.316139v46.283781H327.150169c-12.894249 0-23.348219 10.357174-23.348219 23.139343s10.45397 23.144438 23.348219 23.144438h69.316139v69.570866c0 8.268418 4.452617 15.910209 11.676657 20.04187a23.536716 23.536716 0 0 0 23.353314 0 23.103682 23.103682 0 0 0 11.671562-20.04187v-69.423125h70.951482c12.899343 0 23.353313-10.362269 23.353314-23.144437 0-12.782169-10.45397-23.139343-23.353314-23.139344H443.172935v-46.431522h70.951483c12.899343 0 23.353313-10.362269 23.353313-23.144438 0-12.782169-10.45397-23.139343-23.353313-23.139343H443.172935V474.70806l86.571304-90.213891a22.889711 22.889711 0 0 0 5.60398-22.354786 23.154627 23.154627 0 0 0-16.730428-15.996816 23.383881 23.383881 0 0 0-22.339502 6.368159l-74.369911 77.385871-78.537234-77.681353a23.658985 23.658985 0 0 0-33.246885-0.219065z"  p-id="14769"></path><path d="M898.761234 560.39801a25.895483 25.895483 0 0 1 25.895482 25.895483v258.975204a25.895483 25.895483 0 0 1-25.895482 25.895482h-258.975204a25.895483 25.895483 0 0 1-25.895483-25.895482v-258.975204a25.895483 25.895483 0 0 1 25.895483-25.895483h258.975204z m-55.224677 192.471244l-0.983244 0.886447-12.705751 12.705752-12.058746-12.058747a12.950289 12.950289 0 0 0-19.206368 17.321394l0.886448 0.988338 12.068935 12.058746-11.717413 11.717413a12.950289 12.950289 0 0 0 17.326487 19.196179l0.988339-0.891542 11.712318-11.717413 12.354229 12.364418a12.950289 12.950289 0 0 0 19.196179-17.331582l-0.886448-0.983244-12.344039-12.354229 12.695562-12.700657a12.950289 12.950289 0 0 0-17.321393-19.206368z m-104.167801-2.868219a12.950289 12.950289 0 0 0-18.314826 0l-42.732895 42.727801a12.950289 12.950289 0 0 0 18.31992 18.31992l42.727801-42.732895a12.950289 12.950289 0 0 0 0-18.314826z m-30.730189-137.806965c-6.668736 0-12.247244 5.06396-12.889154 11.702129l-0.05604 1.243065v17.963303h-17.061572a12.950289 12.950289 0 0 0-1.243065 25.839443l1.243065 0.061134h17.061572v16.562309a12.950289 12.950289 0 0 0 25.834348 1.243064l0.061135-1.243064v-16.562309h17.474229a12.950289 12.950289 0 0 0 1.23797-25.839443l-1.243065-0.061134h-17.474229v-17.963303a12.950289 12.950289 0 0 0-12.940099-12.945194z m151.276896 30.908497H799.484179a12.950289 12.950289 0 0 0-1.243065 25.839443l1.243065 0.061134h60.421095a12.950289 12.950289 0 0 0 0-25.900577z"  p-id="14770"></path></svg>