<?xml version="1.0" standalone="no"?><!DOCTYPE svg PUBLIC "-//W3C//DTD SVG 1.1//EN" "http://www.w3.org/Graphics/SVG/1.1/DTD/svg11.dtd"><svg t="1676092815073" class="icon" viewBox="0 0 1024 1024" version="1.1" xmlns="http://www.w3.org/2000/svg" p-id="47298" xmlns:xlink="http://www.w3.org/1999/xlink" width="200" height="200"><path d="M853.333333 549.925926h-93.866666V415.288889h-23.703704V245.57037h12.325926v-56.888889H527.17037l-93.866666 27.496297v29.392592h18.014815L464.592593 395.377778H309.096296v-51.2h-12.325926V284.444444l35.081482-22.755555-14.222222-21.807408-40.770371 26.548149-5.688889 3.792592v73.007408h-12.325926v51.2h-23.703703l-93.866667 17.066666v194.370371h-35.081481v61.629629l53.096296 34.133334H218.074074l-0.948148-0.948149c-9.481481-12.325926-17.066667-26.548148-19.911111-41.718518-2.844444-13.274074-1.896296-27.496296 1.896296-40.77037 4.740741-13.274074 12.325926-25.6 23.703704-34.133334 8.533333-6.637037 18.014815-11.377778 28.444444-13.274074l3.792593-0.948148h507.259259c17.066667 1.896296 33.185185 9.481481 44.562963 21.807407 7.585185 7.585185 13.274074 17.066667 16.118519 26.548149 0.948148 3.792593 1.896296 6.637037 2.844444 10.429629l28.444444-18.014815V549.925926H853.333333z m-595.437037 46.459259h499.674074c12.325926 1.896296 22.755556 6.637037 29.392593 14.222222 4.740741 4.740741 7.585185 10.42963 10.42963 17.066667 1.896296 6.637037 2.844444 13.274074 1.896296 19.911111-1.896296 12.325926-8.533333 25.6-20.859259 37.925926l-47.407408 46.459259c-8.533333 8.533333-17.066667 13.274074-26.548148 16.118519-8.533333 2.844444-18.014815 2.844444-29.392593 2.844444H330.903704c-31.288889 0-38.874074 0-54.992593-18.014814L237.037037 687.407407c-7.585185-10.42963-12.325926-20.859259-15.17037-31.288888-1.896296-10.42963-1.896296-19.911111 0.948148-28.444445 2.844444-8.533333 7.585185-16.118519 15.17037-21.807407 4.740741-3.792593 11.377778-6.637037 18.014815-8.533334l1.896296-0.948148z m487.348148 98.607408L720.592593 719.644444c0.948148-3.792593 1.896296-6.637037 1.896296-10.429629 0-8.533333-2.844444-17.066667-8.533333-22.755556 7.585185 5.688889 18.014815 9.481481 28.444444 9.481482 0-0.948148 0.948148-0.948148 2.844444-0.948148z m-37.925925-15.170371c-5.688889-3.792593-12.325926-5.688889-18.962963-5.688889-9.481481 0-18.014815 3.792593-24.651852 10.42963-6.637037 6.637037-10.42963 15.17037-10.42963 24.651852s3.792593 18.014815 10.42963 24.651852l0.948148 0.948148h-22.755556l0.948148-0.948148c6.637037-6.637037 10.42963-15.17037 10.42963-24.651852s-3.792593-18.014815-10.42963-24.651852c-6.637037-6.637037-15.17037-10.42963-24.651851-10.42963s-18.014815 3.792593-24.651852 10.42963c-6.637037 6.637037-10.42963 15.17037-10.42963 24.651852s3.792593 18.014815 10.42963 24.651852l0.948148 0.948148h-24.651852c0.948148 0 0.948148-0.948148 1.896296-0.948148 6.637037-6.637037 10.42963-15.17037 10.42963-24.651852s-3.792593-18.014815-10.42963-24.651852c-6.637037-6.637037-15.17037-10.42963-24.651852-10.42963s-18.014815 3.792593-24.651851 10.42963c-6.637037 6.637037-10.42963 15.17037-10.42963 24.651852s3.792593 18.014815 10.42963 24.651852l0.948148 0.948148h-26.548148c0.948148 0 0.948148-0.948148 0.948148-0.948148 6.637037-6.637037 10.42963-15.17037 10.429629-24.651852s-3.792593-18.014815-10.429629-24.651852c-6.637037-6.637037-15.17037-10.42963-24.651852-10.42963s-18.014815 3.792593-24.651852 10.42963c-6.637037 6.637037-10.42963 15.17037-10.42963 24.651852s3.792593 18.014815 10.42963 24.651852c0 0 0.948148 0.948148 1.896296 0.948148h-26.548148c0.948148 0 0.948148-0.948148 1.896297-0.948148 6.637037-6.637037 10.42963-15.17037 10.429629-24.651852s-3.792593-18.014815-10.429629-24.651852c-6.637037-6.637037-15.17037-10.42963-24.651852-10.42963s-18.014815 3.792593-24.651852 10.42963c-6.637037 6.637037-10.42963 15.17037-10.42963 24.651852s3.792593 18.014815 10.42963 24.651852c0 0 0.948148 0.948148 1.896296 0.948148H350.814815c0.948148 0 0.948148-0.948148 1.896296-0.948148 6.637037-6.637037 10.42963-15.17037 10.42963-24.651852s-3.792593-18.014815-10.42963-24.651852c-6.637037-6.637037-15.17037-10.42963-24.651852-10.42963s-18.014815 3.792593-24.651852 10.42963c-6.637037 6.637037-10.42963 15.17037-10.429629 24.651852s3.792593 18.014815 10.429629 24.651852c-6.637037-1.896296-11.377778-4.740741-17.066666-11.377778l-23.703704-26.548148h5.688889c13.274074 0 24.651852-5.688889 33.185185-14.222222 8.533333-8.533333 14.222222-20.859259 14.222222-33.185186 0-13.274074-5.688889-24.651852-14.222222-33.185185h-0.948148 61.62963c-2.844444 3.792593-3.792593 8.533333-3.792593 14.222222 0 6.637037 2.844444 13.274074 7.585185 18.014815s10.42963 7.585185 18.014815 7.585185a25.903407 25.903407 0 0 0 25.6-25.6c0-5.688889-1.896296-10.42963-4.740741-14.222222h185.837037c-2.844444 3.792593-4.740741 8.533333-4.74074 14.222222a25.903407 25.903407 0 0 0 25.6 25.6 25.903407 25.903407 0 0 0 25.6-25.6c0-5.688889-1.896296-10.42963-4.740741-14.222222h71.111111c-8.533333 8.533333-14.222222 20.859259-14.222222 33.185185 4.740741 11.377778 9.481481 23.703704 18.014815 31.288889z m49.303703-47.407407c3.792593 3.792593 6.637037 9.481481 6.637037 15.17037 0 5.688889-2.844444 11.377778-6.637037 15.170371-3.792593 3.792593-9.481481 6.637037-15.17037 6.637037-5.688889 0-11.377778-2.844444-15.170371-6.637037-3.792593-3.792593-6.637037-9.481481-6.637037-15.170371 0-5.688889 2.844444-11.377778 6.637037-15.17037 3.792593-3.792593 9.481481-6.637037 15.170371-6.637037 6.637037 0 11.377778 2.844444 15.17037 6.637037z m-134.637037-10.42963c1.896296 1.896296 2.844444 3.792593 2.844445 5.688889 0 1.896296-0.948148 4.740741-2.844445 5.688889-1.896296 1.896296-3.792593 2.844444-5.688889 2.844444-1.896296 0-4.740741-0.948148-5.688889-2.844444-1.896296-1.896296-2.844444-3.792593-2.844444-5.688889 0-1.896296 0.948148-4.740741 2.844444-5.688889 1.896296-1.896296 3.792593-1.896296 5.688889-1.896296 2.844444 0 4.740741 0 5.688889 1.896296z m-227.555555 0c1.896296 1.896296 2.844444 3.792593 2.844444 5.688889 0 1.896296-0.948148 4.740741-2.844444 5.688889-1.896296 1.896296-3.792593 2.844444-5.688889 2.844444-1.896296 0-4.740741-0.948148-5.688889-2.844444-1.896296-1.896296-2.844444-3.792593-2.844445-5.688889 0-1.896296 0.948148-4.740741 2.844445-5.688889 1.896296-1.896296 3.792593-1.896296 5.688889-1.896296 1.896296 0 3.792593 0 5.688889 1.896296z m-51.2 74.903704c2.844444 2.844444 4.740741 7.585185 4.74074 12.325926s-1.896296 9.481481-4.74074 12.325926c-2.844444 2.844444-7.585185 4.740741-12.325926 4.74074s-9.481481-1.896296-12.325926-4.74074c-2.844444-2.844444-4.740741-7.585185-4.740741-12.325926s1.896296-8.533333 4.740741-12.325926c2.844444-2.844444 7.585185-4.740741 12.325926-4.740741 5.688889-0.948148 9.481481 0.948148 12.325926 4.740741z m356.503703 0c2.844444 2.844444 4.740741 7.585185 4.740741 12.325926s-1.896296 9.481481-4.740741 12.325926c-2.844444 2.844444-7.585185 4.740741-12.325926 4.74074s-8.533333-1.896296-12.325926-4.74074c-2.844444-2.844444-4.740741-7.585185-4.74074-12.325926s1.896296-8.533333 4.74074-12.325926c2.844444-2.844444 7.585185-4.740741 12.325926-4.740741 5.688889-0.948148 9.481481 0.948148 12.325926 4.740741z m-68.266666 0c2.844444 2.844444 4.740741 7.585185 4.74074 12.325926s-1.896296 9.481481-4.74074 12.325926c-2.844444 2.844444-7.585185 4.740741-12.325926 4.74074s-9.481481-1.896296-12.325926-4.74074c-2.844444-2.844444-4.740741-7.585185-4.740741-12.325926s1.896296-8.533333 4.740741-12.325926c2.844444-2.844444 7.585185-4.740741 12.325926-4.740741 4.740741-0.948148 8.533333 0.948148 12.325926 4.740741z m-71.111111 0c2.844444 2.844444 4.740741 7.585185 4.74074 12.325926s-1.896296 9.481481-4.74074 12.325926c-2.844444 2.844444-7.585185 4.740741-12.325926 4.74074s-9.481481-1.896296-12.325926-4.74074c-2.844444-2.844444-4.740741-7.585185-4.740741-12.325926s1.896296-8.533333 4.740741-12.325926c2.844444-2.844444 7.585185-4.740741 12.325926-4.740741 4.740741-0.948148 9.481481 0.948148 12.325926 4.740741z m-72.05926 0c2.844444 2.844444 4.740741 7.585185 4.740741 12.325926s-1.896296 9.481481-4.740741 12.325926c-2.844444 2.844444-7.585185 4.740741-12.325926 4.74074s-9.481481-1.896296-12.325926-4.74074c-2.844444-2.844444-4.740741-7.585185-4.74074-12.325926s1.896296-8.533333 4.74074-12.325926c2.844444-2.844444 7.585185-4.740741 12.325926-4.740741 4.740741-0.948148 9.481481 0.948148 12.325926 4.740741z m-72.059259 0c2.844444 2.844444 4.740741 7.585185 4.740741 12.325926s-1.896296 9.481481-4.740741 12.325926c-2.844444 2.844444-7.585185 4.740741-12.325926 4.74074s-8.533333-1.896296-12.325926-4.74074c-2.844444-2.844444-4.740741-7.585185-4.740741-12.325926s1.896296-8.533333 4.740741-12.325926c2.844444-2.844444 7.585185-4.740741 12.325926-4.740741 5.688889-0.948148 9.481481 0.948148 12.325926 4.740741z m-128-64.474074c3.792593 3.792593 6.637037 9.481481 6.637037 15.17037 0 5.688889-2.844444 11.377778-6.637037 15.170371-3.792593 3.792593-9.481481 6.637037-15.17037 6.637037-5.688889 0-11.377778-2.844444-15.170371-6.637037-3.792593-3.792593-6.637037-9.481481-6.637037-15.170371 0-5.688889 2.844444-11.377778 6.637037-15.17037 3.792593-3.792593 9.481481-6.637037 15.170371-6.637037 5.688889 0 11.377778 2.844444 15.17037 6.637037z m77.748148-225.659259h50.251852v6.637037h-50.251852v-6.637037z m0 51.2h50.251852v6.637037h-50.251852v-6.637037z m0-12.325926h50.251852v6.637037h-50.251852V445.62963z m0-13.274074h50.251852v6.637037h-50.251852v-6.637037z m0-12.325926h50.251852v6.637037h-50.251852v-6.637037zM577.422222 398.222222V254.103704H701.62963V398.222222H577.422222z m-28.444444-144.118518v141.274074h-50.251852l-13.274074-141.274074h63.525926z m-79.644445 216.177777v36.02963H247.466667v-36.02963h221.866666z"  p-id="47299"></path></svg>