<?xml version="1.0" standalone="no"?><!DOCTYPE svg PUBLIC "-//W3C//DTD SVG 1.1//EN" "http://www.w3.org/Graphics/SVG/1.1/DTD/svg11.dtd"><svg t="1676092820799" class="icon" viewBox="0 0 1024 1024" version="1.1" xmlns="http://www.w3.org/2000/svg" p-id="47449" xmlns:xlink="http://www.w3.org/1999/xlink" width="200" height="200"><path d="M397.274074 541.392593c25.6 0.948148 48.355556 11.377778 65.422222 28.444444l2.844445 2.844444v-1.896296c0.948148-0.948148 2.844444-1.896296 3.792592-2.844444 5.688889 8.533333 9.481481 17.066667 10.42963 24.651852l-0.948148 0.948148c3.792593 7.585185 7.585185 16.118519 9.481481 24.651852l0.948148-1.896297c1.896296 0 3.792593-0.948148 4.740741-0.948148 0.948148 10.42963 0 18.962963-2.844444 26.548148h-0.948148c0 8.533333-1.896296 18.014815-4.740741 25.6l1.896296-0.948148c1.896296 0.948148 2.844444 0.948148 4.740741 1.896296-4.740741 9.481481-9.481481 16.118519-16.118519 20.85926h-0.948148c-3.792593 6.637037-8.533333 12.325926-13.274074 17.066666l-2.844444 2.844445h1.896296c0.948148 0.948148 1.896296 2.844444 2.844444 3.792592-8.533333 5.688889-17.066667 9.481481-24.651851 10.42963l-0.948149-0.948148c-7.585185 3.792593-16.118519 7.585185-24.651851 9.481481l1.896296 0.948149c0 1.896296 0.948148 3.792593 0.948148 5.688888-10.42963 0.948148-18.962963 0-26.548148-3.792592v-0.948148c-8.533333 0-18.014815-1.896296-25.6-4.740741l0.948148 1.896296c-0.948148 1.896296-0.948148 2.844444-1.896296 4.740741-9.481481-4.740741-16.118519-9.481481-20.85926-16.118519v-0.948148c-6.637037-3.792593-12.325926-8.533333-17.066666-13.274074l-2.844445-2.844444v1.896296c-0.948148 0.948148-2.844444 1.896296-3.792592 2.844445-5.688889-8.533333-9.481481-17.066667-10.42963-24.651852h0.948148c-3.792593-7.585185-7.585185-16.118519-9.481481-24.651852l-0.948148 1.896296c-1.896296 0-3.792593 0.948148-4.740741 0.948148-0.948148-10.42963 0-18.962963 2.844444-26.548148h0.948149c0-8.533333 1.896296-18.014815 4.74074-25.6l-1.896296 0.948148c-1.896296-0.948148-2.844444-0.948148-4.740741-1.896296 4.740741-9.481481 9.481481-16.118519 16.118519-20.859259h0.948148c3.792593-6.637037 8.533333-12.325926 13.274074-17.066667l2.844444-2.844444h-1.896296c-0.948148-0.948148-1.896296-2.844444-2.844444-3.792593 8.533333-5.688889 17.066667-9.481481 24.651852-10.42963l0.948148 0.948149c7.585185-3.792593 16.118519-6.637037 24.651852-8.533334l-1.896297-0.948148c0-1.896296-0.948148-3.792593-0.948148-4.740741 9.481481-3.792593 18.014815-2.844444 25.6 1.896297zM260.740741 659.911111l46.459259-116.622222h-68.266667l-54.044444 68.266667c19.911111-2.844444 39.822222-6.637037 60.681481-9.481482 4.740741 18.962963 10.42963 38.874074 15.170371 57.837037z m-21.807408-39.822222l25.6 96.711111H38.874074c-2.844444-11.377778-5.688889-22.755556-9.481481-35.081481 66.37037-39.822222 136.533333-57.837037 209.54074-61.62963z m291.081482 14.222222h147.911111v22.755556H530.014815v-22.755556z m-59.733334-244.622222h-18.962962L436.148148 291.081481H218.074074l-12.325926 34.133334h16.118519l46.459259 172.562963 0.948148 4.740741 4.740741 17.066666h117.57037l2.844445-6.637037c89.125926 14.222222 126.103704 54.044444 154.548148 111.881482h109.037037c42.666667-44.562963 96.711111-74.903704 174.459259-76.8v-75.851852h-53.096296l-46.459259-81.540741-217.125926-0.948148 7.585185-25.6h299.614815l10.429629 30.340741 41.718519-14.222223-15.170371-45.511111-4.74074-15.17037H491.140741l-4.740741 15.17037-16.118519 54.992593z m-103.348148 44.562963c-30.340741 11.377778-62.577778 17.066667-97.659259 13.274074l-33.185185-122.311111h149.807407l-18.962963 109.037037z m443.733334 142.222222c20.859259 0.948148 39.822222 9.481481 53.096296 23.703704l2.844444 2.844444v-1.896296c0.948148-0.948148 1.896296-1.896296 3.792593-2.844445 4.740741 6.637037 7.585185 13.274074 8.533333 19.911112 3.792593 6.637037 5.688889 13.274074 7.585186 19.911111l0.948148-0.948148c1.896296 0 2.844444 0 4.74074-0.948149 0.948148 8.533333 0 16.118519-2.844444 21.807408h-0.948148c0 7.585185-1.896296 14.222222-3.792593 20.859259l0.948148-0.948148c0.948148 0.948148 2.844444 0.948148 3.792593 1.896296-3.792593 7.585185-7.585185 13.274074-13.274074 17.066667h-0.948148c-2.844444 4.740741-6.637037 9.481481-11.377778 14.222222l-2.844444 2.844445h1.896296c0.948148 0.948148 1.896296 1.896296 2.844444 3.792592-6.637037 4.740741-13.274074 7.585185-19.911111 8.533333-6.637037 3.792593-13.274074 5.688889-19.911111 7.585186l0.948148 0.948148c0 1.896296 0 2.844444 0.948148 4.740741-8.533333 0.948148-16.118519 0-21.807407-2.844445v-0.948148c-7.585185 0-14.222222-1.896296-20.859259-3.792593l0.948148 0.948149c-0.948148 0.948148-0.948148 2.844444-1.896296 3.792592-7.585185-3.792593-13.274074-7.585185-17.066667-13.274074v-0.948148c-4.740741-2.844444-9.481481-6.637037-14.222222-11.377778l-2.844445-2.844444v1.896296c-0.948148 0.948148-1.896296 1.896296-3.792592 2.844444-4.740741-6.637037-7.585185-13.274074-8.533334-19.911111-3.792593-6.637037-5.688889-13.274074-7.585185-19.911111l-0.948148 0.948148c-1.896296 0-2.844444 0-4.740741 0.948148-0.948148-8.533333 0-16.118519 2.844445-21.807407h0.948148c0-7.585185 1.896296-14.222222 3.792592-20.859259l-0.948148 0.948148c-0.948148-0.948148-2.844444-0.948148-3.792592-1.896296 3.792593-7.585185 7.585185-13.274074 13.274074-17.066667h0.948148c2.844444-4.740741 6.637037-9.481481 11.377778-14.222222l2.844444-2.844445h-1.896296c-0.948148-0.948148-1.896296-1.896296-2.844445-3.792592 6.637037-4.740741 13.274074-7.585185 19.911111-8.533334 6.637037-3.792593 13.274074-5.688889 19.911112-7.585185l-0.948149-0.948148c0-1.896296 0-2.844444-0.948148-4.740741 8.533333 0 16.118519 0.948148 21.807408 4.740741z m31.288889 45.511111c8.533333 8.533333 14.222222 20.859259 14.222222 34.133334s-5.688889 25.6-14.222222 34.133333c-8.533333 8.533333-20.859259 14.222222-34.133334 14.222222s-25.6-5.688889-34.133333-14.222222c-8.533333-8.533333-14.222222-20.859259-14.222222-34.133333s5.688889-25.6 14.222222-34.133334c8.533333-8.533333 20.859259-14.222222 34.133333-14.222222s25.6 5.688889 34.133334 14.222222z m-406.755556-25.6c-10.42963-10.42963-25.6-17.066667-41.718519-17.066666-16.118519 0-30.340741 6.637037-41.718518 17.066666-10.42963 10.42963-17.066667 25.6-17.066667 41.718519 0 16.118519 6.637037 30.340741 17.066667 41.718518 10.42963 10.42963 25.6 17.066667 41.718518 17.066667 16.118519 0 30.340741-6.637037 41.718519-17.066667 10.42963-10.42963 17.066667-25.6 17.066667-41.718518 0-16.118519-6.637037-31.288889-17.066667-41.718519z"  p-id="47450"></path></svg>