<?xml version="1.0" standalone="no"?><!DOCTYPE svg PUBLIC "-//W3C//DTD SVG 1.1//EN" "http://www.w3.org/Graphics/SVG/1.1/DTD/svg11.dtd"><svg t="1676092732010" class="icon" viewBox="0 0 1024 1024" version="1.1" xmlns="http://www.w3.org/2000/svg" p-id="41500" xmlns:xlink="http://www.w3.org/1999/xlink" width="200" height="200"><path d="M323.318519 590.696296c-3.792593-7.585185-7.585185-14.222222-12.325926-20.859259-8.533333-12.325926-17.066667-23.703704-27.496297-34.133333H102.4c-12.325926 12.325926-22.755556 25.6-32.237037 38.874074-10.42963 14.222222-19.911111 30.340741-28.444444 46.459259l-18.962963-9.481481c8.533333-17.066667 18.014815-33.185185 29.392592-48.355556 4.740741-8.533333 9.481481-14.222222 14.222222-19.911111v-72.059259h210.488889V216.177778h-19.911111v-50.251852h328.059259v50.251852h-19.911111l19.911111 145.066666h127.051852V274.962963h-13.274074v-18.014815h61.62963V274.962963H749.037037v86.281481h164.977778l37.925926 36.02963v26.548148H614.4v7.585185h337.540741v176.355556h43.614815v53.096296h-89.125926v-0.948148l-1.896297 0.948148c0-48.355556-30.340741-91.022222-63.525926-127.051852H665.6c-16.118519 17.066667-49.303704 56.888889-59.733333 77.748149H332.8c0 0.948148-3.792593-8.533333-9.481481-20.85926z m59.733333-253.155555v24.651852h73.955555v205.748148H355.555556L305.303704 493.037037v-79.644444h15.17037l25.6-11.377778v-11.377778h-40.77037v-28.444444h52.148148V216.177778h-59.733333V495.881481l0.948148 0.948149 52.148148 76.8 0.948148 1.896296h113.777778V217.125926h-82.488889v120.414815z m315.733333-105.244445v18.014815h61.62963v-18.014815h-61.62963zM202.903704 562.251852v-0.948148c-10.42963-4.740741-23.703704-6.637037-37.925926-4.740741 0 2.844444 0.948148 4.740741 0.948148 7.585185l1.896296 0.948148c-12.325926 2.844444-24.651852 7.585185-36.029629 13.274074l-0.948149-0.948148c-11.377778 0.948148-23.703704 6.637037-36.029629 15.170371 1.896296 1.896296 2.844444 3.792593 4.740741 5.688888h2.844444l-4.740741 4.740741c-7.585185 7.585185-14.222222 16.118519-19.911111 24.651852h-0.948148c-9.481481 6.637037-17.066667 17.066667-23.703704 31.288889 1.896296 0.948148 4.740741 1.896296 6.637037 2.844444l1.896297-0.948148c-3.792593 12.325926-5.688889 24.651852-6.637037 37.925926h-0.948149c-4.740741 10.42963-6.637037 23.703704-4.74074 37.925926 2.844444 0 4.740741-0.948148 7.585185-0.948148l0.948148-1.896296c2.844444 12.325926 7.585185 24.651852 13.274074 36.029629l-0.948148 0.948148c0.948148 11.377778 6.637037 23.703704 15.17037 36.02963 1.896296-1.896296 3.792593-2.844444 5.688889-4.740741v-2.844444l4.740741 4.740741c7.585185 7.585185 16.118519 14.222222 24.651852 19.911111v0.948148c6.637037 9.481481 17.066667 17.066667 31.288889 23.703704 0.948148-2.844444 1.896296-4.740741 2.844444-7.585186l-0.948148-1.896296c12.325926 3.792593 24.651852 5.688889 37.925926 6.637037v0.948148c10.42963 4.740741 23.703704 6.637037 37.925926 4.740741 0-2.844444-0.948148-4.740741-0.948148-7.585185l-1.896297-0.948148c12.325926-2.844444 24.651852-7.585185 36.02963-13.274074l0.948148 0.948148c11.377778-0.948148 23.703704-6.637037 36.02963-15.170371-1.896296-1.896296-2.844444-3.792593-4.740741-5.688888h-2.844444l4.74074-4.740741c7.585185-7.585185 14.222222-16.118519 19.911111-24.651852h0.948149c9.481481-6.637037 17.066667-17.066667 23.703703-31.288889-2.844444-0.948148-4.740741-1.896296-7.585185-2.844444l-1.896296 0.948148c3.792593-12.325926 5.688889-24.651852 6.637037-37.925926h0.948148c4.740741-10.42963 6.637037-23.703704 4.740741-38.874074-2.844444 0-4.740741 0.948148-7.585185 0.948148l-0.948149 1.896296c-2.844444-12.325926-7.585185-24.651852-13.274074-36.029629l0.948149-0.948149c-0.948148-11.377778-6.637037-23.703704-15.170371-36.029629-1.896296 1.896296-3.792593 2.844444-5.688889 4.740741v2.844444l-4.74074-4.740741c-7.585185-7.585185-16.118519-14.222222-24.651852-19.911111v-0.948148c-9.481481-11.377778-19.911111-18.962963-30.340741-22.755556-0.948148 1.896296-1.896296 4.740741-2.844445 6.637037l0.948149 1.896297c-12.325926-2.844444-24.651852-5.688889-37.925926-5.688889z m54.992592 80.592592c-15.17037-15.17037-36.977778-24.651852-59.733333-24.651851-23.703704 0-44.562963 9.481481-59.733333 24.651851-15.17037 15.17037-24.651852 36.977778-24.651852 59.733334s9.481481 44.562963 24.651852 59.733333c15.17037 15.17037 36.977778 24.651852 59.733333 24.651852 23.703704 0 44.562963-9.481481 59.733333-24.651852 15.17037-15.17037 24.651852-36.977778 24.651852-59.733333s-9.481481-44.562963-24.651852-59.733334z m110.933334-18.962963V673.185185h213.333333v-48.355555H368.82963v-0.948149z m395.377777-61.629629v-0.948148c-10.42963-4.740741-23.703704-6.637037-37.925926-4.740741 0 2.844444 0.948148 4.740741 0.948149 7.585185l1.896296 0.948148c-12.325926 2.844444-24.651852 7.585185-36.02963 13.274074l-0.948148-0.948148c-11.377778 0.948148-23.703704 6.637037-36.029629 15.170371 1.896296 1.896296 2.844444 3.792593 4.74074 5.688888h2.844445l-4.740741 4.740741c-7.585185 7.585185-14.222222 16.118519-19.911111 24.651852h-0.948148c-9.481481 6.637037-17.066667 17.066667-23.703704 31.288889 1.896296 0.948148 4.740741 1.896296 6.637037 2.844444l1.896296-0.948148c-3.792593 12.325926-5.688889 24.651852-6.637037 37.925926h-0.948148c-4.740741 10.42963-6.637037 23.703704-4.740741 37.925926 2.844444 0 4.740741-0.948148 7.585186-0.948148l1.896296-1.896296c2.844444 12.325926 7.585185 24.651852 13.274074 36.029629l-0.948148 0.948148c0.948148 11.377778 6.637037 23.703704 15.17037 36.02963 1.896296-1.896296 3.792593-2.844444 5.688889-4.740741v-2.844444l4.740741 4.740741c7.585185 7.585185 16.118519 14.222222 24.651852 19.911111v0.948148c6.637037 9.481481 17.066667 17.066667 31.288889 23.703704 0.948148-2.844444 1.896296-4.740741 2.844444-7.585186l-0.948148-1.896296c12.325926 3.792593 24.651852 5.688889 37.925926 6.637037v0.948148c10.42963 4.740741 23.703704 6.637037 37.925926 4.740741 0-2.844444-0.948148-4.740741-0.948148-7.585185l-1.896297-0.948148c12.325926-2.844444 24.651852-7.585185 36.02963-13.274074l0.948148 0.948148c11.377778-0.948148 23.703704-6.637037 36.02963-15.170371-1.896296-1.896296-2.844444-3.792593-4.740741-5.688888h-2.844445l4.740741-4.740741c7.585185-7.585185 14.222222-16.118519 19.911111-24.651852h0.948148c9.481481-6.637037 17.066667-17.066667 23.703704-31.288889-2.844444-0.948148-4.740741-1.896296-7.585185-2.844444l-1.896296 0.948148c3.792593-12.325926 5.688889-24.651852 6.637037-37.925926h0.948148c4.740741-10.42963 6.637037-23.703704 4.740741-38.874074-2.844444 0-4.740741 0.948148-7.585186 0.948148l-1.896296 1.896296c-2.844444-12.325926-7.585185-24.651852-13.274074-36.029629l0.948148-0.948149c-0.948148-11.377778-6.637037-23.703704-15.17037-36.029629-1.896296 1.896296-3.792593 2.844444-5.688889 4.740741v2.844444l-4.740741-4.740741c-7.585185-7.585185-16.118519-14.222222-24.651852-19.911111v-0.948148c-9.481481-11.377778-19.911111-18.962963-30.34074-22.755556-0.948148 1.896296-1.896296 4.740741-2.844445 6.637037l0.948148 1.896297c-12.325926-2.844444-24.651852-5.688889-37.925926-5.688889z m54.992593 80.592592c-15.17037-15.17037-36.977778-24.651852-59.733333-24.651851-23.703704 0-44.562963 9.481481-59.733334 24.651851-15.17037 15.17037-24.651852 36.977778-24.651852 59.733334s9.481481 44.562963 24.651852 59.733333c15.17037 15.17037 36.977778 24.651852 59.733334 24.651852 23.703704 0 44.562963-9.481481 59.733333-24.651852 15.17037-15.17037 24.651852-36.977778 24.651852-59.733333s-9.481481-44.562963-24.651852-59.733334zM540.444444 362.192593V216.177778h-49.303703v145.066666H540.444444z" p-id="41501"></path></svg>