<?xml version="1.0" standalone="no"?><!DOCTYPE svg PUBLIC "-//W3C//DTD SVG 1.1//EN" "http://www.w3.org/Graphics/SVG/1.1/DTD/svg11.dtd"><svg t="1676452005728" class="icon" viewBox="0 0 1024 1024" version="1.1" xmlns="http://www.w3.org/2000/svg" p-id="7751" xmlns:xlink="http://www.w3.org/1999/xlink" width="200" height="200"><path d="M741.0176 942.5408h-467.968c-102.8608 0-186.2656-83.4048-186.2656-186.2656V288.256c0-102.8608 83.4048-186.2656 186.2656-186.2656h467.968c102.8608 0 186.2656 83.4048 186.2656 186.2656v467.968c0.0512 102.912-83.3536 186.3168-186.2656 186.3168z" fill="#FF5D50" p-id="7752"></path><path d="M588.0832 574.6176l-88.9344 7.1168c-21.6576 1.7408-41.7792-18.3296-40.0384-40.0384l7.1168-88.9344c0.6656-8.0384 3.9424-15.3088 9.3184-20.736l352.256-352.256c13.9264-13.9264 38.0928-12.288 54.0672 3.6352L957.44 158.976c15.9232 15.9232 17.5616 40.1408 3.6352 54.0672l-352.256 352.256c-5.4272 5.4272-12.6976 8.6528-20.736 9.3184zM720.7936 806.912H293.3248c-28.2624 0-51.2-22.9376-51.2-51.2s22.9376-51.2 51.2-51.2h427.4688c28.2624 0 51.2 22.9376 51.2 51.2s-22.9376 51.2-51.2 51.2z" fill="#FFDF99" p-id="7753"></path></svg>