<?xml version="1.0" standalone="no"?><!DOCTYPE svg PUBLIC "-//W3C//DTD SVG 1.1//EN" "http://www.w3.org/Graphics/SVG/1.1/DTD/svg11.dtd"><svg t="1676036999814" class="icon" viewBox="0 0 1024 1024" version="1.1" xmlns="http://www.w3.org/2000/svg" p-id="11875" xmlns:xlink="http://www.w3.org/1999/xlink" width="200" height="200"><path d="M956.8 334.08c-8.96 0-16 7.04-16 16L940.8 723.2c0 17.28-8.96 33.28-24.32 41.6L544 977.92c-14.72 8.32-32.64 8.32-47.36 0L123.52 764.8c-14.72-8.32-24.32-24.32-24.32-41.6l0-424.96c0-17.28 8.96-33.28 24.32-41.6l372.48-213.12c14.72-8.32 32.64-8.32 47.36 0l334.72 191.36c7.68 4.48 17.28 1.92 21.76-5.76 4.48-7.68 1.92-17.28-5.76-21.76l-334.72-191.36c-24.32-14.08-55.04-14.08-79.36 0L107.52 228.48c-24.96 14.08-40.32 40.96-40.32 69.76L67.2 723.2c0 28.8 15.36 55.04 40.32 69.76L480 1005.44c12.16 7.04 26.24 10.24 39.68 10.24 13.44 0 27.52-3.2 39.68-10.24l373.12-213.12c24.96-14.08 40.32-40.96 40.32-69.76l0-372.48C972.8 341.76 965.76 334.08 956.8 334.08z" p-id="11876"></path><path d="M555.52 732.8l179.84 0 0-26.24-124.16 0c-9.6 0-17.28-7.68-17.28-17.28L593.92 581.76l94.72 0c17.28 0 30.72-14.08 30.72-30.72L719.36 466.56c0-17.28-13.44-30.72-30.72-30.72l-31.36 0 36.48-67.2c3.84-7.04 3.84-14.72-0.64-21.76-3.84-7.04-10.88-10.24-18.56-10.24l-237.44 0c7.04-12.16 14.08-24.32 20.48-36.48L384 300.16c-21.12 40.32-44.8 76.16-80.64 124.16l75.52 0c15.36-19.2 30.08-39.68 42.88-60.8l189.44 0c3.2 0 6.4 1.92 7.68 3.84 1.28 2.56 1.28 5.76 0.64 8.96l-32.64 60.16-237.44 0c-16.64 0-30.08 14.08-30.08 30.72l0 84.48c0 17.28 14.08 30.72 30.08 30.72l104.96 0c-31.36 51.2-83.2 85.12-143.36 99.84l0 52.48c97.28-15.36 174.08-64.64 213.76-143.36l0 112.64C524.8 719.36 538.24 732.8 555.52 732.8zM554.88 462.08l77.44 0c9.6 0 17.28 7.68 17.28 17.28l0 58.88c0 9.6-7.68 17.28-17.28 17.28l-93.44 0C549.12 527.36 554.24 496 554.88 462.08zM467.84 555.52l-61.44 0c-9.6 0-17.28-7.68-17.28-17.28L389.12 479.36c0-9.6 7.68-17.28 17.28-17.28l81.28 0C487.04 496.64 479.36 528 467.84 555.52z"></path></svg>