<?xml version="1.0" standalone="no"?><!DOCTYPE svg PUBLIC "-//W3C//DTD SVG 1.1//EN" "http://www.w3.org/Graphics/SVG/1.1/DTD/svg11.dtd"><svg t="1676037027439" class="icon" viewBox="0 0 1024 1024" version="1.1" xmlns="http://www.w3.org/2000/svg" p-id="12016" xmlns:xlink="http://www.w3.org/1999/xlink" width="200" height="200"><path d="M512 896.992a382.08 382.08 0 0 1-247.84-90.944l161.216-161.184H480v96a32 32 0 0 0 64 0v-96h128a32 32 0 0 0 0-64h-128v-54.624l9.376-9.376H672a32 32 0 0 0 0-64h-54.624l187.712-187.68a382.24 382.24 0 0 1 90.88 247.808c0 212.064-171.904 384-384 384M128 512.992c0-212.064 171.968-384 384-384a382.4 382.4 0 0 1 247.872 90.912L682.24 297.472a31.776 31.776 0 0 0-43.872 0.896l-121.088 121.088-121.12-121.088a32 32 0 1 0-45.248 45.248l109.248 109.248H352a32 32 0 0 0 0 64h110.848l-64 64H352a32 32 0 0 0-32 32c0 12.704 7.552 23.456 18.24 28.64l-119.36 119.36A382.4 382.4 0 0 1 128 512.96m700.8-316.768h-0.032a446.464 446.464 0 0 0-316.8-131.2C264.608 64.992 64 265.536 64 512.992c0 247.392 200.608 448 448 448 247.456 0 448-200.608 448-448 0-123.744-50.112-235.744-131.2-316.8" fill="#000000" p-id="12017"></path></svg>