<?xml version="1.0" standalone="no"?><!DOCTYPE svg PUBLIC "-//W3C//DTD SVG 1.1//EN" "http://www.w3.org/Graphics/SVG/1.1/DTD/svg11.dtd"><svg t="1676037058445" class="icon" viewBox="0 0 1024 1024" version="1.1" xmlns="http://www.w3.org/2000/svg" p-id="12156" xmlns:xlink="http://www.w3.org/1999/xlink" width="200" height="200"><path d="M689.3315 202.659744l-111.608734-64.43298a131.434267 131.434267 0 0 0-131.423003 0l-111.619998 64.43298c-20.388757 11.77141-12.030493 42.9403 11.512326 42.9403h331.638347c23.542819 0 31.901084-31.168891 11.501062-42.9403z" fill="#4070DB" p-id="12157"></path><path d="M511.994368 1023.988735a178.272086 178.272086 0 0 1-89.147308-23.801903L133.788548 833.291898A178.778989 178.778989 0 0 1 44.641241 678.889302V345.099433a178.778989 178.778989 0 0 1 89.147307-154.402596L422.84706 23.801903a178.812783 178.812783 0 0 1 178.294615 0l289.058512 166.894934a178.778989 178.778989 0 0 1 89.147308 154.402596v333.789869a178.778989 178.778989 0 0 1-89.147308 154.402596L601.141675 1000.186832a178.272086 178.272086 0 0 1-89.147307 23.801903z m0-967.699994a121.960816 121.960816 0 0 0-60.986041 16.288477L161.949816 239.472152A122.298751 122.298751 0 0 0 100.963775 345.099433v333.789869a122.298751 122.298751 0 0 0 60.986041 105.627281l289.058511 166.894935a122.310016 122.310016 0 0 0 121.972081 0l289.058512-166.894935a122.298751 122.298751 0 0 0 60.98604-105.627281V345.099433a122.298751 122.298751 0 0 0-60.98604-105.627281L572.980408 72.577218a121.960816 121.960816 0 0 0-60.98604-16.288477z" fill="#4070DB" p-id="12158"></path><path d="M202.862505 619.739376q-24.297541 0-24.297542-24.297541V428.546901q0-24.297541 24.297542-24.297542h88.798108q24.297541 0 24.297541 21.402563 0 21.69544-24.297541 21.695441h-59.870854a1.284154 1.284154 0 0 0-1.453122 1.441857v44.258247a1.284154 1.284154 0 0 0 1.453122 1.453122h57.674275q24.297541 0 24.297541 21.402563 0 21.69544-24.297541 21.69544h-57.674275a1.272889 1.272889 0 0 0-1.408064 1.430592v56.401386q0 24.297541-24.297541 24.297542zM365.127727 619.739376q-24.297541 0-24.297542-24.297541V428.546901q0-24.297541 24.297542-24.297542h54.666652q84.17966 0 84.168395 67.970035 0 44.844002-35.573312 61.616853c-0.968748 0.382993-1.25036 0.968748-0.867368 1.734734l33.556967 59.589241q13.866608 24.579154-14.463627 24.579154h-9.011606q-20.546461 0-30.087498-18.225972l-27.721951-53.472614a7.502162 7.502162 0 0 0-6.938937-4.043958h-18.800462a1.272889 1.272889 0 0 0-1.453121 1.441857v50.036939q0 24.297541-24.297541 24.297542z m27.462868-118.018239a1.284154 1.284154 0 0 0 1.453121 1.453122h21.69544q37.882537 0 37.882537-30.954865 0-14.756504-9.833915-21.109686-8.955283-5.801221-28.048622-5.789957h-21.684176a1.284154 1.284154 0 0 0-1.464385 1.453122zM557.480447 619.739376q-24.297541 0-24.297542-24.297541V428.546901q0-24.297541 24.297542-24.297542h92.898388q24.297541 0 24.297541 21.402563 0 21.69544-24.297541 21.695441h-63.982399a1.272889 1.272889 0 0 0-1.441857 1.441857v37.026434a1.272889 1.272889 0 0 0 1.441857 1.441857h64.939882q24.297541 0 24.297542 21.69544t-24.297542 21.69544h-64.939882a1.284154 1.284154 0 0 0-1.441857 1.453122v42.805126a1.272889 1.272889 0 0 0 1.441857 1.441857h62.191342q24.297541 0 24.297542 21.69544t-24.297542 21.69544zM727.259095 619.739376q-24.297541 0-24.297542-24.297541V428.546901q0-24.297541 24.297542-24.297542h92.909653q24.297541 0 24.297541 21.402563 0 21.69544-24.297541 21.695441h-63.9824a1.272889 1.272889 0 0 0-1.441856 1.441857v37.026434a1.272889 1.272889 0 0 0 1.441856 1.441857h64.939883q24.297541-0.045058 24.297541 21.69544t-24.297541 21.69544h-64.939883a1.272889 1.272889 0 0 0-1.441856 1.453122v42.805126a1.272889 1.272889 0 0 0 1.441856 1.441857h62.202608q24.297541 0 24.297541 21.69544t-24.297541 21.69544z" p-id="12159"></path></svg>