<?xml version="1.0" standalone="no"?><!DOCTYPE svg PUBLIC "-//W3C//DTD SVG 1.1//EN" "http://www.w3.org/Graphics/SVG/1.1/DTD/svg11.dtd"><svg t="1676452042556" class="icon" viewBox="0 0 1024 1024" version="1.1" xmlns="http://www.w3.org/2000/svg" p-id="9061" xmlns:xlink="http://www.w3.org/1999/xlink" width="200" height="200"><path d="M512 64c247.392 0 448 200.592 448 448a448.48 448.48 0 0 1-15.456 117.072A223.12 223.12 0 0 0 800 576.208c-30.624 0-59.824 6.144-86.4 17.28V399.584c0-86.496-70-156.704-156.304-156.704-78.992 0-144.192 58.8-154.704 135.104-89.6 9.2-159.392 80-159.392 166.096v62.608c0.304 50.992 25.696 98 67.2 129.2v0.4a44.88 44.88 0 0 0 44.8 44.896c24.704 0 44.8-20.096 44.8-44.896a44.88 44.88 0 0 0-44.8-44.896c-7.408 0-14.304 1.984-20.496 5.2-26.912-22.72-43.2-55.008-43.504-89.92v-62.592c0-65.392 54.992-118.704 124.192-122.096h14c69.2 3.392 124.208 56.704 124.208 122.096v62.608c-0.4 34.896-16.704 67.104-43.6 89.792a45.28 45.28 0 0 0-20.4-5.104 44.88 44.88 0 0 0-44.8 44.912 44.88 44.88 0 0 0 44.8 44.896c24.704 0 44.8-20.096 44.8-44.896V736c41.504-31.2 66.8-78.304 67.2-129.296v-62.608c0-84.288-67.008-153.792-153.904-165.296 9.696-51.904 54.896-91.104 109.504-91.104 61.696 0 111.696 50.096 111.696 111.904V618.56A223.696 223.696 0 0 0 576 800.208c0 55.024 19.84 105.408 52.768 144.4A447.84 447.84 0 0 1 512 960C264.592 960 64 759.392 64 512 64 264.592 264.592 64 512 64z" fill="#FE9120" p-id="9062"></path><path d="M800 640.208a159.68 159.68 0 0 1 160 160 159.68 159.68 0 0 1-160 160 159.68 159.68 0 0 1-160-160 159.68 159.68 0 0 1 160-160z" fill="#FE9120" p-id="9063"></path><path d="M742.16 811.28c-4.928 0-6.16-2.464-6.16-6.16v-16c0-4.912 2.464-6.144 6.16-6.144h43.072a106.432 106.432 0 0 1-7.392 28.304h-35.68z m62.768-27.072h55.376c2.464 0 3.696 0 6.16 1.216 1.232 1.232 1.232 2.464 1.232 4.928v17.232c0 3.68-2.464 4.928-7.392 4.928h-61.536c2.464-9.856 4.928-18.464 6.16-28.32z m-59.088 66.448c-7.376 4.928-19.68 9.856-33.232 13.552v16c6.16-1.232 11.088-1.232 14.784-2.464 11.072-2.464 22.144-7.392 33.216-16 11.088-8.624 20.928-19.696 30.784-34.464h14.768v34.464c0 6.144 2.448 11.072 6.144 14.768 3.696 2.464 8.624 3.68 13.536 3.68h64V861.76H832c-2.464 0-4.928 0-4.928-1.232-1.232-1.232-1.232-2.464-1.232-6.16v-25.84h43.088c6.144 0 9.84-1.232 13.536-4.928 3.68-2.464 4.928-7.376 4.928-13.536v-25.84c0-6.16-1.232-11.088-4.928-13.552-2.464-2.448-4.928-3.68-9.856-4.912l4.928-11.088c1.232-3.68 2.464-6.144 2.464-8.608 0-4.928-1.232-8.624-4.928-12.32-3.68-3.68-8.608-6.144-16-6.144h-105.84l2.464-9.84h-17.232c-3.68 11.072-6.16 17.232-9.856 20.912-4.912 4.928-8.608 8.624-14.768 9.856v18.464c7.392-2.464 13.552-4.928 18.464-8.624 3.696-2.464 8.624-7.376 12.32-12.32h104.608c3.68 0 6.16 0 7.376 1.248 1.232 1.232 2.464 1.232 2.464 3.68 0 1.232-1.232 3.696-2.464 6.16l-3.68 8.624h-109.536c-9.856 0-16 1.232-19.696 4.912-3.696 3.696-6.16 8.624-6.16 14.768v23.392c0 9.84 3.68 16 12.32 18.464 2.448 1.232 6.144 1.232 11.072 1.232h25.84a123.52 123.52 0 0 1-20.928 22.144z" fill="#FFFFFF" p-id="9064"></path></svg>