<?xml version="1.0" standalone="no"?><!DOCTYPE svg PUBLIC "-//W3C//DTD SVG 1.1//EN" "http://www.w3.org/Graphics/SVG/1.1/DTD/svg11.dtd"><svg t="1676452086675" class="icon" viewBox="0 0 1024 1024" version="1.1" xmlns="http://www.w3.org/2000/svg" p-id="10688" xmlns:xlink="http://www.w3.org/1999/xlink" width="200" height="200"><path d="M768 153.6V0H153.6a51.2 51.2 0 0 0-51.2 51.2v921.6a51.2 51.2 0 0 0 51.2 51.2h716.8a51.2 51.2 0 0 0 51.2-51.2V153.6h-153.6zM205.8752 759.2448a38.4 38.4 0 1 1 0-76.8 38.4 38.4 0 0 1 0 76.8z m0-247.2448a38.4 38.4 0 1 1 0-76.8 38.4 38.4 0 0 1 0 76.8z m0-247.2448a38.4 38.4 0 1 1 0-76.8 38.4 38.4 0 0 1 0 76.8z" fill="#F27151" p-id="10689"></path><path d="M768 153.6h153.6l-153.6-153.6z" fill="#F4C2BC" p-id="10690"></path><path d="M921.6 307.2V153.6h-153.6z" fill="#D66648" p-id="10691"></path><path d="M416.6912 294.7584h49.6896v120.96c4.736 16.8448 15.5136 25.2672 32.3584 25.2672h170.6496v33.5104h-185.1136c-5.8624 0-14.0032-3.4048-24.4224-10.2144-11.9296 8.1408-26.7008 12.2112-44.288 12.2112V442.112c9.6512-1.5104 14.4896-4.8128 14.4896-9.9328v-100.7872h-13.3376v-36.6336z m9.9328-72.1152h40.8832v51.0976h-40.8832V222.6432z m62.1824-1.152h159.5648v35.4816l-23.8592 18.7392h37.1968v124.3648c0 9.856-3.1232 18.0736-9.3696 24.704-4.9152 5.6832-12.1088 8.5248-21.5808 8.5248h-25.5488v-27.8272h12.2112c4.1728 0 6.3488-4.0704 6.528-12.2112h-34.3552v37.76h-37.76v-37.76h-33.2288v40.0384h-37.76V275.712h33.792l-10.496-15.3344h42.3168l10.2144 15.3344h15.616l28.3904-24.4224h-111.872V221.4912z m29.7984 99.9424h33.2288v-16.7424h-33.2288v16.7424z m0 44.3136h33.2288v-16.7424h-33.2288v16.7424z m70.9888-61.056v16.7424h34.3552v-16.7424h-34.3552z m0 44.288v16.7424h34.3552v-16.7424h-34.3552zM436.5568 564.48h34.3552l-3.968 18.7392h80.64v36.6336h-42.3168v47.6928h45.44v37.76h-45.44c0.1792 2.2784 0.768 5.12 1.7152 8.5248l23.8592 57.9328c2.8416 4.5312 6.528 6.8096 11.0592 6.8096h12.2112v36.6336h-33.2288c-9.088 0-15.616-5.2992-19.584-15.8976l-14.7712-41.728-16.1792 42.3168c-3.4048 10.2144-8.704 15.3344-15.8976 15.3344h-36.6336v-36.6336h15.3344c4.352 0 7.7568-2.2784 10.2144-6.8096l22.7072-58.496c0.9472-4.1472 1.408-6.8096 1.408-7.9616h-53.0944v-37.76h53.0944v-47.6928h-8.5248l-0.5632 3.1232c-3.2256 13.44-11.264 20.1728-24.1408 20.1728h-16.4608v-34.3552h5.4016c2.2784 0 4.1728-2.4576 5.6832-7.3728l7.68-36.9664z m123.2128 13.3632h110.7456v208.4096c0 17.792-9.1904 26.7008-27.5456 26.7008h-83.2v-235.1104z m64.1792 199.5776c5.8624 0 8.8064-2.944 8.8064-8.8064v-155.3152H597.248v164.096h26.7008z" fill="#EA654B" p-id="10692"></path><path d="M307.2 238.3872h512v51.2H307.2zM307.2 400h512v51.2H307.2zM307.2 561.5872h512v51.2H307.2zM307.2 723.2h420.2752v51.2H307.2z" fill="#C9C5DD" p-id="10693"></path></svg>