<?xml version="1.0" standalone="no"?><!DOCTYPE svg PUBLIC "-//W3C//DTD SVG 1.1//EN" "http://www.w3.org/Graphics/SVG/1.1/DTD/svg11.dtd"><svg t="1676121128240" class="icon" viewBox="0 0 1030 1024" version="1.1" xmlns="http://www.w3.org/2000/svg" p-id="4766" xmlns:xlink="http://www.w3.org/1999/xlink" width="201.171875" height="200"><path d="M1030.0672 582.0928a113.7664 113.7664 0 0 0-113.7664-113.7664H119.8336a113.7664 113.7664 0 0 0-113.7664 113.7664v79.6416a113.7664 113.7664 0 0 0 113.7664 113.7664h796.4416a113.7664 113.7664 0 0 0 113.7664-113.7664v-79.6416z" fill="#F27151" p-id="4767"></path><path d="M492.4672 268.5952l25.0112-30.6688h309.3248c89.472 0 117.9136 58.0096 117.9136 58.0096l85.3248 170.624v129.7664h-537.6V268.5952z" fill="#F9C82D" p-id="4768"></path><path d="M774.0672 468.3264h199.1168l-56.8832-118.0416s-28.4416-61.1584-85.3248-61.1584h-56.8832v179.2z" fill="#3BAFDA" p-id="4769"></path><path d="M774.0672 780.5952m-113.7664 0a113.7664 113.7664 0 1 0 227.5328 0 113.7664 113.7664 0 1 0-227.5328 0Z" fill="#292F33" p-id="4770"></path><path d="M774.0672 780.5952m-56.8832 0a56.8832 56.8832 0 1 0 113.7664 0 56.8832 56.8832 0 1 0-113.7664 0Z" fill="#CCD6DD" p-id="4771"></path><path d="M262.0672 780.5952m-113.7664 0a113.7664 113.7664 0 1 0 227.5328 0 113.7664 113.7664 0 1 0-227.5328 0Z" fill="#292F33" p-id="4772"></path><path d="M262.0672 780.5952m-56.8832 0a56.8832 56.8832 0 1 0 113.7664 0 56.8832 56.8832 0 1 0-113.7664 0Z" fill="#CCD6DD" p-id="4773"></path><path d="M119.8336 135.5264h426.6752c62.8224 0 125.1584 41.8048 125.1584 104.6272v356.1728h-665.6V240.1536c0-62.8224 50.944-104.6272 113.7664-104.6272z" fill="#CCD6DD" p-id="4774"></path></svg>