<?xml version="1.0" standalone="no"?><!DOCTYPE svg PUBLIC "-//W3C//DTD SVG 1.1//EN" "http://www.w3.org/Graphics/SVG/1.1/DTD/svg11.dtd"><svg t="1676121196087" class="icon" viewBox="0 0 1024 1024" version="1.1" xmlns="http://www.w3.org/2000/svg" p-id="6807" xmlns:xlink="http://www.w3.org/1999/xlink" width="200" height="200"><path d="M629.028571 87.771429h204.8a58.514286 58.514286 0 0 1 58.514286 58.514285v725.577143a58.514286 58.514286 0 0 1-58.514286 58.514286h-204.8a58.514286 58.514286 0 0 1-58.514285-58.514286V146.285714a58.514286 58.514286 0 0 1 58.514285-58.514285z" fill="#FFDF7A" p-id="6808"></path><path d="M177.005714 103.745829l438.857143-101.288229A58.514286 58.514286 0 0 1 687.542857 59.479771v879.352686a58.514286 58.514286 0 0 1-71.68 57.022172l-438.857143-101.317486A58.514286 58.514286 0 0 1 131.657143 837.544229V160.768a58.514286 58.514286 0 0 1 45.348571-57.022171z" fill="#FFBF55" p-id="6809"></path><path d="M541.257143 555.885714m-58.514286 0a58.514286 58.514286 0 1 0 117.028572 0 58.514286 58.514286 0 1 0-117.028572 0Z" fill="#FFFFFF" p-id="6810"></path></svg>